<svg width="152" height="152" viewBox="0 0 152 152" fill="none" xmlns="http://www.w3.org/2000/svg">
<path d="M56 71.5L56.4955 71.4332L56.5161 71.5859L56.4472 71.7236L56 71.5ZM12.5 152.192V152.692H12.0493L12.0027 152.244L12.5 152.192ZM132.5 83.5L132.488 83.0001L132.749 82.9939L132.903 83.204L132.5 83.5ZM150.5 108L150.903 107.704L151.168 108.065L150.839 108.368L150.5 108ZM102.5 152.192L102.839 152.56L102.695 152.692H102.5V152.192ZM87 76L84.1133 71H89.8868L87 76ZM46.5 1L46.4328 0.504534L46.9287 0.437297L46.9955 0.933228L46.5 1ZM17 5L16.5605 4.76162L16.6814 4.53862L16.9328 4.50453L17 5ZM1 34.5L0.50209 34.5456L0.488266 34.3948L0.560486 34.2616L1 34.5ZM12.5 85.5H12V85.3015L12.1362 85.157L12.5 85.5ZM34 68L33.6844 67.6122L34.0914 67.2809L34.4026 67.7035L34 68ZM29 68L28.6362 67.657L29.0264 67.2431L29.3868 67.6832L29 68ZM31 70.4419L31.3156 70.8296L31 70.4419ZM6.5 94.5L6.00264 94.5517L6.00209 94.5456L6.5 94.5ZM132.5 83.5L132.903 83.204L150.903 107.704L150.5 108L150.097 108.296L132.097 83.796L132.5 83.5ZM150.5 108L150.839 108.368L102.839 152.56L102.5 152.192L102.161 151.824L150.161 107.632L150.5 108ZM87 62H87.5C87.5 62.0018 87.5 62.0035 87.5 62.0053C87.5 62.0071 87.5 62.0089 87.5 62.0107C87.5 62.0125 87.5 62.0144 87.5 62.0162C87.5 62.0181 87.5 62.0199 87.5 62.0218C87.5 62.0237 87.5 62.0256 87.5 62.0275C87.5 62.0294 87.5 62.0313 87.5 62.0332C87.5 62.0352 87.5 62.0371 87.5 62.0391C87.5 62.0411 87.5 62.0431 87.5 62.045C87.5 62.047 87.5 62.0491 87.5 62.0511C87.5 62.0531 87.5 62.0551 87.5 62.0572C87.5 62.0593 87.5 62.0613 87.5 62.0634C87.5 62.0655 87.5 62.0676 87.5 62.0697C87.5 62.0718 87.5 62.074 87.5 62.0761C87.5 62.0782 87.5 62.0804 87.5 62.0826C87.5 62.0847 87.5 62.0869 87.5 62.0891C87.5 62.0913 87.5 62.0935 87.5 62.0958C87.5 62.098 87.5 62.1003 87.5 62.1025C87.5 62.1048 87.5 62.107 87.5 62.1093C87.5 62.1116 87.5 62.1139 87.5 62.1162C87.5 62.1186 87.5 62.1209 87.5 62.1232C87.5 62.1256 87.5 62.1279 87.5 62.1303C87.5 62.1327 87.5 62.1351 87.5 62.1375C87.5 62.1399 87.5 62.1423 87.5 62.1447C87.5 62.1472 87.5 62.1496 87.5 62.1521C87.5 62.1545 87.5 62.157 87.5 62.1595C87.5 62.162 87.5 62.1645 87.5 62.167C87.5 62.1695 87.5 62.172 87.5 62.1746C87.5 62.1771 87.5 62.1797 87.5 62.1823C87.5 62.1848 87.5 62.1874 87.5 62.19C87.5 62.1926 87.5 62.1952 87.5 62.1979C87.5 62.2005 87.5 62.2031 87.5 62.2058C87.5 62.2085 87.5 62.2111 87.5 62.2138C87.5 62.2165 87.5 62.2192 87.5 62.2219C87.5 62.2246 87.5 62.2273 87.5 62.2301C87.5 62.2328 87.5 62.2356 87.5 62.2383C87.5 62.2411 87.5 62.2439 87.5 62.2467C87.5 62.2495 87.5 62.2523 87.5 62.2551C87.5 62.2579 87.5 62.2608 87.5 62.2636C87.5 62.2665 87.5 62.2693 87.5 62.2722C87.5 62.2751 87.5 62.278 87.5 62.2809C87.5 62.2838 87.5 62.2867 87.5 62.2896C87.5 62.2926 87.5 62.2955 87.5 62.2985C87.5 62.3014 87.5 62.3044 87.5 62.3074C87.5 62.3104 87.5 62.3134 87.5 62.3164C87.5 62.3194 87.5 62.3224 87.5 62.3255C87.5 62.3285 87.5 62.3316 87.5 62.3346C87.5 62.3377 87.5 62.3408 87.5 62.3439C87.5 62.347 87.5 62.3501 87.5 62.3532C87.5 62.3563 87.5 62.3594 87.5 62.3626C87.5 62.3657 87.5 62.3689 87.5 62.372C87.5 62.3752 87.5 62.3784 87.5 62.3816C87.5 62.3848 87.5 62.388 87.5 62.3912C87.5 62.3945 87.5 62.3977 87.5 62.401C87.5 62.4042 87.5 62.4075 87.5 62.4107C87.5 62.414 87.5 62.4173 87.5 62.4206C87.5 62.4239 87.5 62.4272 87.5 62.4306C87.5 62.4339 87.5 62.4372 87.5 62.4406C87.5 62.4439 87.5 62.4473 87.5 62.4507C87.5 62.4541 87.5 62.4575 87.5 62.4609C87.5 62.4643 87.5 62.4677 87.5 62.4711C87.5 62.4746 87.5 62.478 87.5 62.4815C87.5 62.4849 87.5 62.4884 87.5 62.4919C87.5 62.4954 87.5 62.4989 87.5 62.5024C87.5 62.5059 87.5 62.5094 87.5 62.5129C87.5 62.5165 87.5 62.52 87.5 62.5236C87.5 62.5271 87.5 62.5307 87.5 62.5343C87.5 62.5379 87.5 62.5415 87.5 62.5451C87.5 62.5487 87.5 62.5523 87.5 62.556C87.5 62.5596 87.5 62.5632 87.5 62.5669C87.5 62.5706 87.5 62.5742 87.5 62.5779C87.5 62.5816 87.5 62.5853 87.5 62.589C87.5 62.5927 87.5 62.5964 87.5 62.6002C87.5 62.6039 87.5 62.6077 87.5 62.6114C87.5 62.6152 87.5 62.6189 87.5 62.6227C87.5 62.6265 87.5 62.6303 87.5 62.6341C87.5 62.6379 87.5 62.6418 87.5 62.6456C87.5 62.6494 87.5 62.6533 87.5 62.6571C87.5 62.661 87.5 62.6648 87.5 62.6687C87.5 62.6726 87.5 62.6765 87.5 62.6804C87.5 62.6843 87.5 62.6882 87.5 62.6922C87.5 62.6961 87.5 62.7 87.5 62.704C87.5 62.7079 87.5 62.7119 87.5 62.7159C87.5 62.7199 87.5 62.7239 87.5 62.7279C87.5 62.7319 87.5 62.7359 87.5 62.7399C87.5 62.7439 87.5 62.748 87.5 62.752C87.5 62.7561 87.5 62.7601 87.5 62.7642C87.5 62.7683 87.5 62.7724 87.5 62.7765C87.5 62.7806 87.5 62.7847 87.5 62.7888C87.5 62.7929 87.5 62.797 87.5 62.8012C87.5 62.8053 87.5 62.8095 87.5 62.8137C87.5 62.8178 87.5 62.822 87.5 62.8262C87.5 62.8304 87.5 62.8346 87.5 62.8388C87.5 62.843 87.5 62.8473 87.5 62.8515C87.5 62.8557 87.5 62.86 87.5 62.8642C87.5 62.8685 87.5 62.8728 87.5 62.8771C87.5 62.8813 87.5 62.8856 87.5 62.8899C87.5 62.8942 87.5 62.8986 87.5 62.9029C87.5 62.9072 87.5 62.9116 87.5 62.9159C87.5 62.9203 87.5 62.9246 87.5 62.929C87.5 62.9334 87.5 62.9378 87.5 62.9422C87.5 62.9466 87.5 62.951 87.5 62.9554C87.5 62.9598 87.5 62.9643 87.5 62.9687C87.5 62.9731 87.5 62.9776 87.5 62.9821C87.5 62.9865 87.5 62.991 87.5 62.9955C87.5 63 87.5 63.0045 87.5 63.009C87.5 63.0135 87.5 63.018 87.5 63.0226C87.5 63.0271 87.5 63.0316 87.5 63.0362C87.5 63.0407 87.5 63.0453 87.5 63.0499C87.5 63.0545 87.5 63.059 87.5 63.0636C87.5 63.0682 87.5 63.0729 87.5 63.0775C87.5 63.0821 87.5 63.0867 87.5 63.0914C87.5 63.096 87.5 63.1007 87.5 63.1053C87.5 63.11 87.5 63.1147 87.5 63.1194C87.5 63.124 87.5 63.1287 87.5 63.1334C87.5 63.1382 87.5 63.1429 87.5 63.1476C87.5 63.1523 87.5 63.1571 87.5 63.1618C87.5 63.1666 87.5 63.1713 87.5 63.1761C87.5 63.1809 87.5 63.1857 87.5 63.1905C87.5 63.1952 87.5 63.2001 87.5 63.2049C87.5 63.2097 87.5 63.2145 87.5 63.2193C87.5 63.2242 87.5 63.229 87.5 63.2339C87.5 63.2387 87.5 63.2436 87.5 63.2485C87.5 63.2534 87.5 63.2582 87.5 63.2631C87.5 63.268 87.5 63.273 87.5 63.2779C87.5 63.2828 87.5 63.2877 87.5 63.2927C87.5 63.2976 87.5 63.3026 87.5 63.3075C87.5 63.3125 87.5 63.3174 87.5 63.3224C87.5 63.3274 87.5 63.3324 87.5 63.3374C87.5 63.3424 87.5 63.3474 87.5 63.3524C87.5 63.3575 87.5 63.3625 87.5 63.3675C87.5 63.3726 87.5 63.3776 87.5 63.3827C87.5 63.3878 87.5 63.3928 87.5 63.3979C87.5 63.403 87.5 63.4081 87.5 63.4132C87.5 63.4183 87.5 63.4234 87.5 63.4285C87.5 63.4337 87.5 63.4388 87.5 63.4439C87.5 63.4491 87.5 63.4542 87.5 63.4594C87.5 63.4646 87.5 63.4697 87.5 63.4749C87.5 63.4801 87.5 63.4853 87.5 63.4905C87.5 63.4957 87.5 63.5009 87.5 63.5062C87.5 63.5114 87.5 63.5166 87.5 63.5219C87.5 63.5271 87.5 63.5323 87.5 63.5376C87.5 63.5429 87.5 63.5481 87.5 63.5534C87.5 63.5587 87.5 63.564 87.5 63.5693C87.5 63.5746 87.5 63.5799 87.5 63.5852C87.5 63.5906 87.5 63.5959 87.5 63.6012C87.5 63.6066 87.5 63.6119 87.5 63.6173C87.5 63.6226 87.5 63.628 87.5 63.6334C87.5 63.6388 87.5 63.6442 87.5 63.6496C87.5 63.6549 87.5 63.6604 87.5 63.6658C87.5 63.6712 87.5 63.6766 87.5 63.682C87.5 63.6875 87.5 63.6929 87.5 63.6984C87.5 63.7038 87.5 63.7093 87.5 63.7148C87.5 63.7202 87.5 63.7257 87.5 63.7312C87.5 63.7367 87.5 63.7422 87.5 63.7477C87.5 63.7532 87.5 63.7588 87.5 63.7643C87.5 63.7698 87.5 63.7753 87.5 63.7809C87.5 63.7864 87.5 63.792 87.5 63.7976C87.5 63.8031 87.5 63.8087 87.5 63.8143C87.5 63.8199 87.5 63.8255 87.5 63.8311C87.5 63.8367 87.5 63.8423 87.5 63.8479C87.5 63.8535 87.5 63.8591 87.5 63.8648C87.5 63.8704 87.5 63.8761 87.5 63.8817C87.5 63.8874 87.5 63.8931 87.5 63.8987C87.5 63.9044 87.5 63.9101 87.5 63.9158C87.5 63.9215 87.5 63.9272 87.5 63.9329C87.5 63.9386 87.5 63.9443 87.5 63.95C87.5 63.9558 87.5 63.9615 87.5 63.9672C87.5 63.973 87.5 63.9787 87.5 63.9845C87.5 63.9903 87.5 63.996 87.5 64.0018C87.5 64.0076 87.5 64.0134 87.5 64.0192C87.5 64.025 87.5 64.0308 87.5 64.0366C87.5 64.0424 87.5 64.0482 87.5 64.0541C87.5 64.0599 87.5 64.0657 87.5 64.0716C87.5 64.0774 87.5 64.0833 87.5 64.0892C87.5 64.095 87.5 64.1009 87.5 64.1068C87.5 64.1127 87.5 64.1186 87.5 64.1245C87.5 64.1304 87.5 64.1363 87.5 64.1422C87.5 64.1481 87.5 64.154 87.5 64.16C87.5 64.1659 87.5 64.1718 87.5 64.1778C87.5 64.1837 87.5 64.1897 87.5 64.1957C87.5 64.2016 87.5 64.2076 87.5 64.2136C87.5 64.2196 87.5 64.2256 87.5 64.2316C87.5 64.2376 87.5 64.2436 87.5 64.2496C87.5 64.2556 87.5 64.2616 87.5 64.2677C87.5 64.2737 87.5 64.2797 87.5 64.2858C87.5 64.2918 87.5 64.2979 87.5 64.304C87.5 64.31 87.5 64.3161 87.5 64.3222C87.5 64.3283 87.5 64.3344 87.5 64.3405C87.5 64.3465 87.5 64.3527 87.5 64.3588C87.5 64.3649 87.5 64.371 87.5 64.3771C87.5 64.3833 87.5 64.3894 87.5 64.3955C87.5 64.4017 87.5 64.4078 87.5 64.414C87.5 64.4202 87.5 64.4263 87.5 64.4325C87.5 64.4387 87.5 64.4449 87.5 64.4511C87.5 64.4573 87.5 64.4635 87.5 64.4697C87.5 64.4759 87.5 64.4821 87.5 64.4883C87.5 64.4945 87.5 64.5008 87.5 64.507C87.5 64.5132 87.5 64.5195 87.5 64.5257C87.5 64.532 87.5 64.5382 87.5 64.5445C87.5 64.5508 87.5 64.5571 87.5 64.5633C87.5 64.5696 87.5 64.5759 87.5 64.5822C87.5 64.5885 87.5 64.5948 87.5 64.6011C87.5 64.6074 87.5 64.6138 87.5 64.6201C87.5 64.6264 87.5 64.6328 87.5 64.6391C87.5 64.6455 87.5 64.6518 87.5 64.6582C87.5 64.6645 87.5 64.6709 87.5 64.6773C87.5 64.6836 87.5 64.69 87.5 64.6964C87.5 64.7028 87.5 64.7092 87.5 64.7156C87.5 64.722 87.5 64.7284 87.5 64.7348C87.5 64.7412 87.5 64.7477 87.5 64.7541C87.5 64.7605 87.5 64.7669 87.5 64.7734C87.5 64.7798 87.5 64.7863 87.5 64.7928C87.5 64.7992 87.5 64.8057 87.5 64.8121C87.5 64.8186 87.5 64.8251 87.5 64.8316C87.5 64.8381 87.5 64.8446 87.5 64.8511C87.5 64.8576 87.5 64.8641 87.5 64.8706C87.5 64.8771 87.5 64.8836 87.5 64.8902C87.5 64.8967 87.5 64.9032 87.5 64.9098C87.5 64.9163 87.5 64.9229 87.5 64.9294C87.5 64.936 87.5 64.9425 87.5 64.9491C87.5 64.9557 87.5 64.9623 87.5 64.9688C87.5 64.9754 87.5 64.982 87.5 64.9886C87.5 64.9952 87.5 65.0018 87.5 65.0084C87.5 65.015 87.5 65.0217 87.5 65.0283C87.5 65.0349 87.5 65.0415 87.5 65.0482C87.5 65.0548 87.5 65.0615 87.5 65.0681C87.5 65.0748 87.5 65.0814 87.5 65.0881C87.5 65.0947 87.5 65.1014 87.5 65.1081C87.5 65.1148 87.5 65.1214 87.5 65.1281C87.5 65.1348 87.5 65.1415 87.5 65.1482C87.5 65.1549 87.5 65.1616 87.5 65.1683C87.5 65.1751 87.5 65.1818 87.5 65.1885C87.5 65.1952 87.5 65.202 87.5 65.2087C87.5 65.2154 87.5 65.2222 87.5 65.229C87.5 65.2357 87.5 65.2425 87.5 65.2492C87.5 65.256 87.5 65.2628 87.5 65.2695C87.5 65.2763 87.5 65.2831 87.5 65.2899C87.5 65.2967 87.5 65.3035 87.5 65.3103C87.5 65.3171 87.5 65.3239 87.5 65.3307C87.5 65.3375 87.5 65.3443 87.5 65.3512C87.5 65.358 87.5 65.3648 87.5 65.3717C87.5 65.3785 87.5 65.3853 87.5 65.3922C87.5 65.399 87.5 65.4059 87.5 65.4128C87.5 65.4196 87.5 65.4265 87.5 65.4334C87.5 65.4402 87.5 65.4471 87.5 65.454C87.5 65.4609 87.5 65.4678 87.5 65.4747C87.5 65.4816 87.5 65.4885 87.5 65.4954C87.5 65.5023 87.5 65.5092 87.5 65.5161C87.5 65.5231 87.5 65.53 87.5 65.5369C87.5 65.5438 87.5 65.5508 87.5 65.5577C87.5 65.5647 87.5 65.5716 87.5 65.5786C87.5 65.5855 87.5 65.5925 87.5 65.5995C87.5 65.6064 87.5 65.6134 87.5 65.6204C87.5 65.6273 87.5 65.6343 87.5 65.6413C87.5 65.6483 87.5 65.6553 87.5 65.6623C87.5 65.6693 87.5 65.6763 87.5 65.6833C87.5 65.6903 87.5 65.6973 87.5 65.7044C87.5 65.7114 87.5 65.7184 87.5 65.7254C87.5 65.7325 87.5 65.7395 87.5 65.7465C87.5 65.7536 87.5 65.7606 87.5 65.7677C87.5 65.7747 87.5 65.7818 87.5 65.7889C87.5 65.7959 87.5 65.803 87.5 65.8101C87.5 65.8171 87.5 65.8242 87.5 65.8313C87.5 65.8384 87.5 65.8455 87.5 65.8526C87.5 65.8597 87.5 65.8668 87.5 65.8739C87.5 65.881 87.5 65.8881 87.5 65.8952C87.5 65.9023 87.5 65.9094 87.5 65.9165C87.5 65.9237 87.5 65.9308 87.5 65.9379C87.5 65.9451 87.5 65.9522 87.5 65.9594C87.5 65.9665 87.5 65.9736 87.5 65.9808C87.5 65.988 87.5 65.9951 87.5 66.0023C87.5 66.0094 87.5 66.0166 87.5 66.0238C87.5 66.031 87.5 66.0381 87.5 66.0453C87.5 66.0525 87.5 66.0597 87.5 66.0669C87.5 66.0741 87.5 66.0813 87.5 66.0885C87.5 66.0957 87.5 66.1029 87.5 66.1101C87.5 66.1173 87.5 66.1245 87.5 66.1317C87.5 66.139 87.5 66.1462 87.5 66.1534C87.5 66.1607 87.5 66.1679 87.5 66.1751C87.5 66.1824 87.5 66.1896 87.5 66.1969C87.5 66.2041 87.5 66.2114 87.5 66.2186C87.5 66.2259 87.5 66.2331 87.5 66.2404C87.5 66.2477 87.5 66.2549 87.5 66.2622C87.5 66.2695 87.5 66.2768 87.5 66.284C87.5 66.2913 87.5 66.2986 87.5 66.3059C87.5 66.3132 87.5 66.3205 87.5 66.3278C87.5 66.3351 87.5 66.3424 87.5 66.3497C87.5 66.357 87.5 66.3643 87.5 66.3717C87.5 66.379 87.5 66.3863 87.5 66.3936C87.5 66.401 87.5 66.4083 87.5 66.4156C87.5 66.423 87.5 66.4303 87.5 66.4376C87.5 66.445 87.5 66.4523 87.5 66.4597C87.5 66.467 87.5 66.4744 87.5 66.4818C87.5 66.4891 87.5 66.4965 87.5 66.5038C87.5 66.5112 87.5 66.5186 87.5 66.5259C87.5 66.5333 87.5 66.5407 87.5 66.5481C87.5 66.5555 87.5 66.5629 87.5 66.5703C87.5 66.5776 87.5 66.585 87.5 66.5924C87.5 66.5998 87.5 66.6072 87.5 66.6146C87.5 66.622 87.5 66.6295 87.5 66.6369C87.5 66.6443 87.5 66.6517 87.5 66.6591C87.5 66.6665 87.5 66.674 87.5 66.6814C87.5 66.6888 87.5 66.6963 87.5 66.7037C87.5 66.7111 87.5 66.7186 87.5 66.726C87.5 66.7335 87.5 66.7409 87.5 66.7484C87.5 66.7558 87.5 66.7633 87.5 66.7707C87.5 66.7782 87.5 66.7856 87.5 66.7931C87.5 66.8006 87.5 66.808 87.5 66.8155C87.5 66.823 87.5 66.8305 87.5 66.8379C87.5 66.8454 87.5 66.8529 87.5 66.8604C87.5 66.8679 87.5 66.8754 87.5 66.8828C87.5 66.8903 87.5 66.8978 87.5 66.9053C87.5 66.9128 87.5 66.9203 87.5 66.9278C87.5 66.9353 87.5 66.9428 87.5 66.9504C87.5 66.9579 87.5 66.9654 87.5 66.9729C87.5 66.9804 87.5 66.9879 87.5 66.9955C87.5 67.003 87.5 67.0105 87.5 67.0181C87.5 67.0256 87.5 67.0331 87.5 67.0407C87.5 67.0482 87.5 67.0557 87.5 67.0633C87.5 67.0708 87.5 67.0784 87.5 67.0859C87.5 67.0935 87.5 67.101 87.5 67.1086C87.5 67.1161 87.5 67.1237 87.5 67.1312C87.5 67.1388 87.5 67.1464 87.5 67.1539C87.5 67.1615 87.5 67.1691 87.5 67.1767C87.5 67.1842 87.5 67.1918 87.5 67.1994C87.5 67.207 87.5 67.2145 87.5 67.2221C87.5 67.2297 87.5 67.2373 87.5 67.2449C87.5 67.2525 87.5 67.2601 87.5 67.2677C87.5 67.2753 87.5 67.2829 87.5 67.2905C87.5 67.298 87.5 67.3057 87.5 67.3133C87.5 67.3209 87.5 67.3285 87.5 67.3361C87.5 67.3437 87.5 67.3513 87.5 67.3589C87.5 67.3665 87.5 67.3742 87.5 67.3818C87.5 67.3894 87.5 67.397 87.5 67.4046C87.5 67.4123 87.5 67.4199 87.5 67.4275C87.5 67.4352 87.5 67.4428 87.5 67.4504C87.5 67.4581 87.5 67.4657 87.5 67.4734C87.5 67.481 87.5 67.4886 87.5 67.4963C87.5 67.5039 87.5 67.5116 87.5 67.5192C87.5 67.5269 87.5 67.5345 87.5 67.5422C87.5 67.5498 87.5 67.5575 87.5 67.5651C87.5 67.5728 87.5 67.5805 87.5 67.5881C87.5 67.5958 87.5 67.6035 87.5 67.6111C87.5 67.6188 87.5 67.6265 87.5 67.6341C87.5 67.6418 87.5 67.6495 87.5 67.6572C87.5 67.6648 87.5 67.6725 87.5 67.6802C87.5 67.6879 87.5 67.6956 87.5 67.7032C87.5 67.7109 87.5 67.7186 87.5 67.7263C87.5 67.734 87.5 67.7417 87.5 67.7494C87.5 67.7571 87.5 67.7647 87.5 67.7724C87.5 67.7801 87.5 67.7878 87.5 67.7955C87.5 67.8032 87.5 67.8109 87.5 67.8186C87.5 67.8263 87.5 67.8341 87.5 67.8418C87.5 67.8495 87.5 67.8572 87.5 67.8649C87.5 67.8726 87.5 67.8803 87.5 67.888C87.5 67.8957 87.5 67.9034 87.5 67.9112C87.5 67.9189 87.5 67.9266 87.5 67.9343C87.5 67.942 87.5 67.9498 87.5 67.9575C87.5 67.9652 87.5 67.9729 87.5 67.9807C87.5 67.9884 87.5 67.9961 87.5 68.0038C87.5 68.0116 87.5 68.0193 87.5 68.027C87.5 68.0348 87.5 68.0425 87.5 68.0502C87.5 68.058 87.5 68.0657 87.5 68.0734C87.5 68.0812 87.5 68.0889 87.5 68.0967C87.5 68.1044 87.5 68.1121 87.5 68.1199C87.5 68.1276 87.5 68.1354 87.5 68.1431C87.5 68.1509 87.5 68.1586 87.5 68.1664C87.5 68.1741 87.5 68.1819 87.5 68.1896C87.5 68.1974 87.5 68.2051 87.5 68.2129C87.5 68.2206 87.5 68.2284 87.5 68.2361C87.5 68.2439 87.5 68.2516 87.5 68.2594C87.5 68.2672 87.5 68.2749 87.5 68.2827C87.5 68.2904 87.5 68.2982 87.5 68.306C87.5 68.3137 87.5 68.3215 87.5 68.3292C87.5 68.337 87.5 68.3448 87.5 68.3525C87.5 68.3603 87.5 68.3681 87.5 68.3758C87.5 68.3836 87.5 68.3914 87.5 68.3991C87.5 68.4069 87.5 68.4147 87.5 68.4225C87.5 68.4302 87.5 68.438 87.5 68.4458C87.5 68.4535 87.5 68.4613 87.5 68.4691C87.5 68.4769 87.5 68.4846 87.5 68.4924C87.5 68.5002 87.5 68.508 87.5 68.5157C87.5 68.5235 87.5 68.5313 87.5 68.5391C87.5 68.5469 87.5 68.5546 87.5 68.5624C87.5 68.5702 87.5 68.578 87.5 68.5858C87.5 68.5935 87.5 68.6013 87.5 68.6091C87.5 68.6169 87.5 68.6247 87.5 68.6324C87.5 68.6402 87.5 68.648 87.5 68.6558C87.5 68.6636 87.5 68.6714 87.5 68.6791C87.5 68.6869 87.5 68.6947 87.5 68.7025C87.5 68.7103 87.5 68.7181 87.5 68.7259C87.5 68.7336 87.5 68.7414 87.5 68.7492C87.5 68.757 87.5 68.7648 87.5 68.7726C87.5 68.7804 87.5 68.7881 87.5 68.7959C87.5 68.8037 87.5 68.8115 87.5 68.8193C87.5 68.8271 87.5 68.8349 87.5 68.8427C87.5 68.8504 87.5 68.8582 87.5 68.866C87.5 68.8738 87.5 68.8816 87.5 68.8894C87.5 68.8972 87.5 68.905 87.5 68.9128C87.5 68.9205 87.5 68.9283 87.5 68.9361C87.5 68.9439 87.5 68.9517 87.5 68.9595C87.5 68.9673 87.5 68.9751 87.5 68.9828C87.5 68.9906 87.5 68.9984 87.5 69.0062C87.5 69.014 87.5 69.0218 87.5 69.0296C87.5 69.0374 87.5 69.0452 87.5 69.0529C87.5 69.0607 87.5 69.0685 87.5 69.0763C87.5 69.0841 87.5 69.0919 87.5 69.0997C87.5 69.1075 87.5 69.1152 87.5 69.123C87.5 69.1308 87.5 69.1386 87.5 69.1464C87.5 69.1542 87.5 69.1619 87.5 69.1697C87.5 69.1775 87.5 69.1853 87.5 69.1931C87.5 69.2009 87.5 69.2087 87.5 69.2164C87.5 69.2242 87.5 69.232 87.5 69.2398C87.5 69.2476 87.5 69.2553 87.5 69.2631C87.5 69.2709 87.5 69.2787 87.5 69.2865C87.5 69.2943 87.5 69.302 87.5 69.3098C87.5 69.3176 87.5 69.3254 87.5 69.3331C87.5 69.3409 87.5 69.3487 87.5 69.3565C87.5 69.3642 87.5 69.372 87.5 69.3798C87.5 69.3876 87.5 69.3953 87.5 69.4031C87.5 69.4109 87.5 69.4187 87.5 69.4264C87.5 69.4342 87.5 69.442 87.5 69.4497C87.5 69.4575 87.5 69.4653 87.5 69.473C87.5 69.4808 87.5 69.4886 87.5 69.4963C87.5 69.5041 87.5 69.5119 87.5 69.5196C87.5 69.5274 87.5 69.5352 87.5 69.5429C87.5 69.5507 87.5 69.5585 87.5 69.5662C87.5 69.574 87.5 69.5817 87.5 69.5895C87.5 69.5973 87.5 69.605 87.5 69.6128C87.5 69.6205 87.5 69.6283 87.5 69.636C87.5 69.6438 87.5 69.6515 87.5 69.6593C87.5 69.667 87.5 69.6748 87.5 69.6825C87.5 69.6903 87.5 69.698 87.5 69.7058C87.5 69.7135 87.5 69.7213 87.5 69.729C87.5 69.7368 87.5 69.7445 87.5 69.7522C87.5 69.76 87.5 69.7677 87.5 69.7755C87.5 69.7832 87.5 69.7909 87.5 69.7987C87.5 69.8064 87.5 69.8141 87.5 69.8219C87.5 69.8296 87.5 69.8373 87.5 69.8451C87.5 69.8528 87.5 69.8605 87.5 69.8683C87.5 69.876 87.5 69.8837 87.5 69.8914C87.5 69.8992 87.5 69.9069 87.5 69.9146C87.5 69.9223 87.5 69.93 87.5 69.9378C87.5 69.9455 87.5 69.9532 87.5 69.9609C87.5 69.9686 87.5 69.9763 87.5 69.984C87.5 69.9918 87.5 69.9995 87.5 70.0072C87.5 70.0149 87.5 70.0226 87.5 70.0303C87.5 70.038 87.5 70.0457 87.5 70.0534C87.5 70.0611 87.5 70.0688 87.5 70.0765C87.5 70.0842 87.5 70.0919 87.5 70.0996C87.5 70.1073 87.5 70.115 87.5 70.1226C87.5 70.1303 87.5 70.138 87.5 70.1457C87.5 70.1534 87.5 70.1611 87.5 70.1687C87.5 70.1764 87.5 70.1841 87.5 70.1918C87.5 70.1995 87.5 70.2071 87.5 70.2148C87.5 70.2225 87.5 70.2301 87.5 70.2378C87.5 70.2455 87.5 70.2532 87.5 70.2608C87.5 70.2685 87.5 70.2761 87.5 70.2838C87.5 70.2915 87.5 70.2991 87.5 70.3068C87.5 70.3144 87.5 70.3221 87.5 70.3297C87.5 70.3374 87.5 70.345 87.5 70.3527C87.5 70.3603 87.5 70.368 87.5 70.3756C87.5 70.3833 87.5 70.3909 87.5 70.3985C87.5 70.4062 87.5 70.4138 87.5 70.4214C87.5 70.4291 87.5 70.4367 87.5 70.4443C87.5 70.452 87.5 70.4596 87.5 70.4672C87.5 70.4748 87.5 70.4824 87.5 70.4901C87.5 70.4977 87.5 70.5053 87.5 70.5129C87.5 70.5205 87.5 70.5281 87.5 70.5357C87.5 70.5433 87.5 70.5509 87.5 70.5585C87.5 70.5661 87.5 70.5737 87.5 70.5813C87.5 70.5889 87.5 70.5965 87.5 70.6041C87.5 70.6117 87.5 70.6193 87.5 70.6269C87.5 70.6345 87.5 70.642 87.5 70.6496C87.5 70.6572 87.5 70.6648 87.5 70.6723C87.5 70.6799 87.5 70.6875 87.5 70.6951C87.5 70.7026 87.5 70.7102 87.5 70.7178C87.5 70.7253 87.5 70.7329 87.5 70.7404C87.5 70.748 87.5 70.7555 87.5 70.7631C87.5 70.7706 87.5 70.7782 87.5 70.7857C87.5 70.7933 87.5 70.8008 87.5 70.8084C87.5 70.8159 87.5 70.8234 87.5 70.831C87.5 70.8385 87.5 70.846 87.5 70.8536C87.5 70.8611 87.5 70.8686 87.5 70.8761C87.5 70.8836 87.5 70.8912 87.5 70.8987C87.5 70.9062 87.5 70.9137 87.5 70.9212C87.5 70.9287 87.5 70.9362 87.5 70.9437C87.5 70.9512 87.5 70.9587 87.5 70.9662C87.5 70.9737 87.5 70.9812 87.5 70.9887C87.5 70.9962 87.5 71.0036 87.5 71.0111C87.5 71.0186 87.5 71.0261 87.5 71.0336C87.5 71.041 87.5 71.0485 87.5 71.056C87.5 71.0634 87.5 71.0709 87.5 71.0783C87.5 71.0858 87.5 71.0933 87.5 71.1007C87.5 71.1082 87.5 71.1156 87.5 71.1231C87.5 71.1305 87.5 71.1379 87.5 71.1454C87.5 71.1528 87.5 71.1603 87.5 71.1677C87.5 71.1751 87.5 71.1825 87.5 71.19C87.5 71.1974 87.5 71.2048 87.5 71.2122C87.5 71.2196 87.5 71.227 87.5 71.2345C87.5 71.2419 87.5 71.2493 87.5 71.2567C87.5 71.2641 87.5 71.2715 87.5 71.2789C87.5 71.2862 87.5 71.2936 87.5 71.301C87.5 71.3084 87.5 71.3158 87.5 71.3232C87.5 71.3305 87.5 71.3379 87.5 71.3453C87.5 71.3527 87.5 71.36 87.5 71.3674C87.5 71.3747 87.5 71.3821 87.5 71.3895C87.5 71.3968 87.5 71.4041 87.5 71.4115C87.5 71.4188 87.5 71.4262 87.5 71.4335C87.5 71.4408 87.5 71.4482 87.5 71.4555C87.5 71.4628 87.5 71.4702 87.5 71.4775C87.5 71.4848 87.5 71.4921 87.5 71.4994H87H86.5C86.5 71.4921 86.5 71.4848 86.5 71.4775C86.5 71.4702 86.5 71.4628 86.5 71.4555C86.5 71.4482 86.5 71.4408 86.5 71.4335C86.5 71.4262 86.5 71.4188 86.5 71.4115C86.5 71.4041 86.5 71.3968 86.5 71.3895C86.5 71.3821 86.5 71.3747 86.5 71.3674C86.5 71.36 86.5 71.3527 86.5 71.3453C86.5 71.3379 86.5 71.3305 86.5 71.3232C86.5 71.3158 86.5 71.3084 86.5 71.301C86.5 71.2936 86.5 71.2862 86.5 71.2789C86.5 71.2715 86.5 71.2641 86.5 71.2567C86.5 71.2493 86.5 71.2419 86.5 71.2345C86.5 71.227 86.5 71.2196 86.5 71.2122C86.5 71.2048 86.5 71.1974 86.5 71.19C86.5 71.1825 86.5 71.1751 86.5 71.1677C86.5 71.1603 86.5 71.1528 86.5 71.1454C86.5 71.1379 86.5 71.1305 86.5 71.1231C86.5 71.1156 86.5 71.1082 86.5 71.1007C86.5 71.0933 86.5 71.0858 86.5 71.0783C86.5 71.0709 86.5 71.0634 86.5 71.056C86.5 71.0485 86.5 71.041 86.5 71.0336C86.5 71.0261 86.5 71.0186 86.5 71.0111C86.5 71.0036 86.5 70.9962 86.5 70.9887C86.5 70.9812 86.5 70.9737 86.5 70.9662C86.5 70.9587 86.5 70.9512 86.5 70.9437C86.5 70.9362 86.5 70.9287 86.5 70.9212C86.5 70.9137 86.5 70.9062 86.5 70.8987C86.5 70.8912 86.5 70.8836 86.5 70.8761C86.5 70.8686 86.5 70.8611 86.5 70.8536C86.5 70.846 86.5 70.8385 86.5 70.831C86.5 70.8234 86.5 70.8159 86.5 70.8084C86.5 70.8008 86.5 70.7933 86.5 70.7857C86.5 70.7782 86.5 70.7706 86.5 70.7631C86.5 70.7555 86.5 70.748 86.5 70.7404C86.5 70.7329 86.5 70.7253 86.5 70.7178C86.5 70.7102 86.5 70.7026 86.5 70.6951C86.5 70.6875 86.5 70.6799 86.5 70.6723C86.5 70.6648 86.5 70.6572 86.5 70.6496C86.5 70.642 86.5 70.6345 86.5 70.6269C86.5 70.6193 86.5 70.6117 86.5 70.6041C86.5 70.5965 86.5 70.5889 86.5 70.5813C86.5 70.5737 86.5 70.5661 86.5 70.5585C86.5 70.5509 86.5 70.5433 86.5 70.5357C86.5 70.5281 86.5 70.5205 86.5 70.5129C86.5 70.5053 86.5 70.4977 86.5 70.4901C86.5 70.4824 86.5 70.4748 86.5 70.4672C86.5 70.4596 86.5 70.452 86.5 70.4443C86.5 70.4367 86.5 70.4291 86.5 70.4214C86.5 70.4138 86.5 70.4062 86.5 70.3985C86.5 70.3909 86.5 70.3833 86.5 70.3756C86.5 70.368 86.5 70.3603 86.5 70.3527C86.5 70.345 86.5 70.3374 86.5 70.3297C86.5 70.3221 86.5 70.3144 86.5 70.3068C86.5 70.2991 86.5 70.2915 86.5 70.2838C86.5 70.2761 86.5 70.2685 86.5 70.2608C86.5 70.2532 86.5 70.2455 86.5 70.2378C86.5 70.2301 86.5 70.2225 86.5 70.2148C86.5 70.2071 86.5 70.1995 86.5 70.1918C86.5 70.1841 86.5 70.1764 86.5 70.1687C86.5 70.1611 86.5 70.1534 86.5 70.1457C86.5 70.138 86.5 70.1303 86.5 70.1226C86.5 70.115 86.5 70.1073 86.5 70.0996C86.5 70.0919 86.5 70.0842 86.5 70.0765C86.5 70.0688 86.5 70.0611 86.5 70.0534C86.5 70.0457 86.5 70.038 86.5 70.0303C86.5 70.0226 86.5 70.0149 86.5 70.0072C86.5 69.9995 86.5 69.9918 86.5 69.984C86.5 69.9763 86.5 69.9686 86.5 69.9609C86.5 69.9532 86.5 69.9455 86.5 69.9378C86.5 69.93 86.5 69.9223 86.5 69.9146C86.5 69.9069 86.5 69.8992 86.5 69.8914C86.5 69.8837 86.5 69.876 86.5 69.8683C86.5 69.8605 86.5 69.8528 86.5 69.8451C86.5 69.8373 86.5 69.8296 86.5 69.8219C86.5 69.8141 86.5 69.8064 86.5 69.7987C86.5 69.7909 86.5 69.7832 86.5 69.7755C86.5 69.7677 86.5 69.76 86.5 69.7522C86.5 69.7445 86.5 69.7368 86.5 69.729C86.5 69.7213 86.5 69.7135 86.5 69.7058C86.5 69.698 86.5 69.6903 86.5 69.6825C86.5 69.6748 86.5 69.667 86.5 69.6593C86.5 69.6515 86.5 69.6438 86.5 69.636C86.5 69.6283 86.5 69.6205 86.5 69.6128C86.5 69.605 86.5 69.5973 86.5 69.5895C86.5 69.5817 86.5 69.574 86.5 69.5662C86.5 69.5585 86.5 69.5507 86.5 69.5429C86.5 69.5352 86.5 69.5274 86.5 69.5196C86.5 69.5119 86.5 69.5041 86.5 69.4963C86.5 69.4886 86.5 69.4808 86.5 69.473C86.5 69.4653 86.5 69.4575 86.5 69.4497C86.5 69.442 86.5 69.4342 86.5 69.4264C86.5 69.4187 86.5 69.4109 86.5 69.4031C86.5 69.3953 86.5 69.3876 86.5 69.3798C86.5 69.372 86.5 69.3642 86.5 69.3565C86.5 69.3487 86.5 69.3409 86.5 69.3331C86.5 69.3254 86.5 69.3176 86.5 69.3098C86.5 69.302 86.5 69.2943 86.5 69.2865C86.5 69.2787 86.5 69.2709 86.5 69.2631C86.5 69.2553 86.5 69.2476 86.5 69.2398C86.5 69.232 86.5 69.2242 86.5 69.2164C86.5 69.2087 86.5 69.2009 86.5 69.1931C86.5 69.1853 86.5 69.1775 86.5 69.1697C86.5 69.1619 86.5 69.1542 86.5 69.1464C86.5 69.1386 86.5 69.1308 86.5 69.123C86.5 69.1152 86.5 69.1075 86.5 69.0997C86.5 69.0919 86.5 69.0841 86.5 69.0763C86.5 69.0685 86.5 69.0607 86.5 69.0529C86.5 69.0452 86.5 69.0374 86.5 69.0296C86.5 69.0218 86.5 69.014 86.5 69.0062C86.5 68.9984 86.5 68.9906 86.5 68.9828C86.5 68.9751 86.5 68.9673 86.5 68.9595C86.5 68.9517 86.5 68.9439 86.5 68.9361C86.5 68.9283 86.5 68.9205 86.5 68.9128C86.5 68.905 86.5 68.8972 86.5 68.8894C86.5 68.8816 86.5 68.8738 86.5 68.866C86.5 68.8582 86.5 68.8504 86.5 68.8427C86.5 68.8349 86.5 68.8271 86.5 68.8193C86.5 68.8115 86.5 68.8037 86.5 68.7959C86.5 68.7881 86.5 68.7804 86.5 68.7726C86.5 68.7648 86.5 68.757 86.5 68.7492C86.5 68.7414 86.5 68.7336 86.5 68.7259C86.5 68.7181 86.5 68.7103 86.5 68.7025C86.5 68.6947 86.5 68.6869 86.5 68.6791C86.5 68.6714 86.5 68.6636 86.5 68.6558C86.5 68.648 86.5 68.6402 86.5 68.6324C86.5 68.6247 86.5 68.6169 86.5 68.6091C86.5 68.6013 86.5 68.5935 86.5 68.5858C86.5 68.578 86.5 68.5702 86.5 68.5624C86.5 68.5546 86.5 68.5469 86.5 68.5391C86.5 68.5313 86.5 68.5235 86.5 68.5157C86.5 68.508 86.5 68.5002 86.5 68.4924C86.5 68.4846 86.5 68.4769 86.5 68.4691C86.5 68.4613 86.5 68.4535 86.5 68.4458C86.5 68.438 86.5 68.4302 86.5 68.4225C86.5 68.4147 86.5 68.4069 86.5 68.3991C86.5 68.3914 86.5 68.3836 86.5 68.3758C86.5 68.3681 86.5 68.3603 86.5 68.3525C86.5 68.3448 86.5 68.337 86.5 68.3292C86.5 68.3215 86.5 68.3137 86.5 68.306C86.5 68.2982 86.5 68.2904 86.5 68.2827C86.5 68.2749 86.5 68.2672 86.5 68.2594C86.5 68.2516 86.5 68.2439 86.5 68.2361C86.5 68.2284 86.5 68.2206 86.5 68.2129C86.5 68.2051 86.5 68.1974 86.5 68.1896C86.5 68.1819 86.5 68.1741 86.5 68.1664C86.5 68.1586 86.5 68.1509 86.5 68.1431C86.5 68.1354 86.5 68.1276 86.5 68.1199C86.5 68.1121 86.5 68.1044 86.5 68.0967C86.5 68.0889 86.5 68.0812 86.5 68.0734C86.5 68.0657 86.5 68.058 86.5 68.0502C86.5 68.0425 86.5 68.0348 86.5 68.027C86.5 68.0193 86.5 68.0116 86.5 68.0038C86.5 67.9961 86.5 67.9884 86.5 67.9807C86.5 67.9729 86.5 67.9652 86.5 67.9575C86.5 67.9498 86.5 67.942 86.5 67.9343C86.5 67.9266 86.5 67.9189 86.5 67.9112C86.5 67.9034 86.5 67.8957 86.5 67.888C86.5 67.8803 86.5 67.8726 86.5 67.8649C86.5 67.8572 86.5 67.8495 86.5 67.8418C86.5 67.8341 86.5 67.8263 86.5 67.8186C86.5 67.8109 86.5 67.8032 86.5 67.7955C86.5 67.7878 86.5 67.7801 86.5 67.7724C86.5 67.7647 86.5 67.7571 86.5 67.7494C86.5 67.7417 86.5 67.734 86.5 67.7263C86.5 67.7186 86.5 67.7109 86.5 67.7032C86.5 67.6956 86.5 67.6879 86.5 67.6802C86.5 67.6725 86.5 67.6648 86.5 67.6572C86.5 67.6495 86.5 67.6418 86.5 67.6341C86.5 67.6265 86.5 67.6188 86.5 67.6111C86.5 67.6035 86.5 67.5958 86.5 67.5881C86.5 67.5805 86.5 67.5728 86.5 67.5651C86.5 67.5575 86.5 67.5498 86.5 67.5422C86.5 67.5345 86.5 67.5269 86.5 67.5192C86.5 67.5116 86.5 67.5039 86.5 67.4963C86.5 67.4886 86.5 67.481 86.5 67.4734C86.5 67.4657 86.5 67.4581 86.5 67.4504C86.5 67.4428 86.5 67.4352 86.5 67.4275C86.5 67.4199 86.5 67.4123 86.5 67.4046C86.5 67.397 86.5 67.3894 86.5 67.3818C86.5 67.3742 86.5 67.3665 86.5 67.3589C86.5 67.3513 86.5 67.3437 86.5 67.3361C86.5 67.3285 86.5 67.3209 86.5 67.3133C86.5 67.3057 86.5 67.298 86.5 67.2905C86.5 67.2829 86.5 67.2753 86.5 67.2677C86.5 67.2601 86.5 67.2525 86.5 67.2449C86.5 67.2373 86.5 67.2297 86.5 67.2221C86.5 67.2145 86.5 67.207 86.5 67.1994C86.5 67.1918 86.5 67.1842 86.5 67.1767C86.5 67.1691 86.5 67.1615 86.5 67.1539C86.5 67.1464 86.5 67.1388 86.5 67.1312C86.5 67.1237 86.5 67.1161 86.5 67.1086C86.5 67.101 86.5 67.0935 86.5 67.0859C86.5 67.0784 86.5 67.0708 86.5 67.0633C86.5 67.0557 86.5 67.0482 86.5 67.0407C86.5 67.0331 86.5 67.0256 86.5 67.0181C86.5 67.0105 86.5 67.003 86.5 66.9955C86.5 66.9879 86.5 66.9804 86.5 66.9729C86.5 66.9654 86.5 66.9579 86.5 66.9504C86.5 66.9428 86.5 66.9353 86.5 66.9278C86.5 66.9203 86.5 66.9128 86.5 66.9053C86.5 66.8978 86.5 66.8903 86.5 66.8828C86.5 66.8754 86.5 66.8679 86.5 66.8604C86.5 66.8529 86.5 66.8454 86.5 66.8379C86.5 66.8305 86.5 66.823 86.5 66.8155C86.5 66.808 86.5 66.8006 86.5 66.7931C86.5 66.7856 86.5 66.7782 86.5 66.7707C86.5 66.7633 86.5 66.7558 86.5 66.7484C86.5 66.7409 86.5 66.7335 86.5 66.726C86.5 66.7186 86.5 66.7111 86.5 66.7037C86.5 66.6963 86.5 66.6888 86.5 66.6814C86.5 66.674 86.5 66.6665 86.5 66.6591C86.5 66.6517 86.5 66.6443 86.5 66.6369C86.5 66.6295 86.5 66.622 86.5 66.6146C86.5 66.6072 86.5 66.5998 86.5 66.5924C86.5 66.585 86.5 66.5776 86.5 66.5703C86.5 66.5629 86.5 66.5555 86.5 66.5481C86.5 66.5407 86.5 66.5333 86.5 66.5259C86.5 66.5186 86.5 66.5112 86.5 66.5038C86.5 66.4965 86.5 66.4891 86.5 66.4818C86.5 66.4744 86.5 66.467 86.5 66.4597C86.5 66.4523 86.5 66.445 86.5 66.4376C86.5 66.4303 86.5 66.423 86.5 66.4156C86.5 66.4083 86.5 66.401 86.5 66.3936C86.5 66.3863 86.5 66.379 86.5 66.3717C86.5 66.3643 86.5 66.357 86.5 66.3497C86.5 66.3424 86.5 66.3351 86.5 66.3278C86.5 66.3205 86.5 66.3132 86.5 66.3059C86.5 66.2986 86.5 66.2913 86.5 66.284C86.5 66.2768 86.5 66.2695 86.5 66.2622C86.5 66.2549 86.5 66.2477 86.5 66.2404C86.5 66.2331 86.5 66.2259 86.5 66.2186C86.5 66.2114 86.5 66.2041 86.5 66.1969C86.5 66.1896 86.5 66.1824 86.5 66.1751C86.5 66.1679 86.5 66.1607 86.5 66.1534C86.5 66.1462 86.5 66.139 86.5 66.1317C86.5 66.1245 86.5 66.1173 86.5 66.1101C86.5 66.1029 86.5 66.0957 86.5 66.0885C86.5 66.0813 86.5 66.0741 86.5 66.0669C86.5 66.0597 86.5 66.0525 86.5 66.0453C86.5 66.0381 86.5 66.031 86.5 66.0238C86.5 66.0166 86.5 66.0094 86.5 66.0023C86.5 65.9951 86.5 65.988 86.5 65.9808C86.5 65.9736 86.5 65.9665 86.5 65.9594C86.5 65.9522 86.5 65.9451 86.5 65.9379C86.5 65.9308 86.5 65.9237 86.5 65.9165C86.5 65.9094 86.5 65.9023 86.5 65.8952C86.5 65.8881 86.5 65.881 86.5 65.8739C86.5 65.8668 86.5 65.8597 86.5 65.8526C86.5 65.8455 86.5 65.8384 86.5 65.8313C86.5 65.8242 86.5 65.8171 86.5 65.8101C86.5 65.803 86.5 65.7959 86.5 65.7889C86.5 65.7818 86.5 65.7747 86.5 65.7677C86.5 65.7606 86.5 65.7536 86.5 65.7465C86.5 65.7395 86.5 65.7325 86.5 65.7254C86.5 65.7184 86.5 65.7114 86.5 65.7044C86.5 65.6973 86.5 65.6903 86.5 65.6833C86.5 65.6763 86.5 65.6693 86.5 65.6623C86.5 65.6553 86.5 65.6483 86.5 65.6413C86.5 65.6343 86.5 65.6273 86.5 65.6204C86.5 65.6134 86.5 65.6064 86.5 65.5995C86.5 65.5925 86.5 65.5855 86.5 65.5786C86.5 65.5716 86.5 65.5647 86.5 65.5577C86.5 65.5508 86.5 65.5438 86.5 65.5369C86.5 65.53 86.5 65.5231 86.5 65.5161C86.5 65.5092 86.5 65.5023 86.5 65.4954C86.5 65.4885 86.5 65.4816 86.5 65.4747C86.5 65.4678 86.5 65.4609 86.5 65.454C86.5 65.4471 86.5 65.4402 86.5 65.4334C86.5 65.4265 86.5 65.4196 86.5 65.4128C86.5 65.4059 86.5 65.399 86.5 65.3922C86.5 65.3853 86.5 65.3785 86.5 65.3717C86.5 65.3648 86.5 65.358 86.5 65.3512C86.5 65.3443 86.5 65.3375 86.5 65.3307C86.5 65.3239 86.5 65.3171 86.5 65.3103C86.5 65.3035 86.5 65.2967 86.5 65.2899C86.5 65.2831 86.5 65.2763 86.5 65.2695C86.5 65.2628 86.5 65.256 86.5 65.2492C86.5 65.2425 86.5 65.2357 86.5 65.229C86.5 65.2222 86.5 65.2154 86.5 65.2087C86.5 65.202 86.5 65.1952 86.5 65.1885C86.5 65.1818 86.5 65.1751 86.5 65.1683C86.5 65.1616 86.5 65.1549 86.5 65.1482C86.5 65.1415 86.5 65.1348 86.5 65.1281C86.5 65.1214 86.5 65.1148 86.5 65.1081C86.5 65.1014 86.5 65.0947 86.5 65.0881C86.5 65.0814 86.5 65.0748 86.5 65.0681C86.5 65.0615 86.5 65.0548 86.5 65.0482C86.5 65.0415 86.5 65.0349 86.5 65.0283C86.5 65.0217 86.5 65.015 86.5 65.0084C86.5 65.0018 86.5 64.9952 86.5 64.9886C86.5 64.982 86.5 64.9754 86.5 64.9688C86.5 64.9623 86.5 64.9557 86.5 64.9491C86.5 64.9425 86.5 64.936 86.5 64.9294C86.5 64.9229 86.5 64.9163 86.5 64.9098C86.5 64.9032 86.5 64.8967 86.5 64.8902C86.5 64.8836 86.5 64.8771 86.5 64.8706C86.5 64.8641 86.5 64.8576 86.5 64.8511C86.5 64.8446 86.5 64.8381 86.5 64.8316C86.5 64.8251 86.5 64.8186 86.5 64.8121C86.5 64.8057 86.5 64.7992 86.5 64.7928C86.5 64.7863 86.5 64.7798 86.5 64.7734C86.5 64.7669 86.5 64.7605 86.5 64.7541C86.5 64.7477 86.5 64.7412 86.5 64.7348C86.5 64.7284 86.5 64.722 86.5 64.7156C86.5 64.7092 86.5 64.7028 86.5 64.6964C86.5 64.69 86.5 64.6836 86.5 64.6773C86.5 64.6709 86.5 64.6645 86.5 64.6582C86.5 64.6518 86.5 64.6455 86.5 64.6391C86.5 64.6328 86.5 64.6264 86.5 64.6201C86.5 64.6138 86.5 64.6074 86.5 64.6011C86.5 64.5948 86.5 64.5885 86.5 64.5822C86.5 64.5759 86.5 64.5696 86.5 64.5633C86.5 64.5571 86.5 64.5508 86.5 64.5445C86.5 64.5382 86.5 64.532 86.5 64.5257C86.5 64.5195 86.5 64.5132 86.5 64.507C86.5 64.5008 86.5 64.4945 86.5 64.4883C86.5 64.4821 86.5 64.4759 86.5 64.4697C86.5 64.4635 86.5 64.4573 86.5 64.4511C86.5 64.4449 86.5 64.4387 86.5 64.4325C86.5 64.4263 86.5 64.4202 86.5 64.414C86.5 64.4078 86.5 64.4017 86.5 64.3955C86.5 64.3894 86.5 64.3833 86.5 64.3771C86.5 64.371 86.5 64.3649 86.5 64.3588C86.5 64.3527 86.5 64.3465 86.5 64.3405C86.5 64.3344 86.5 64.3283 86.5 64.3222C86.5 64.3161 86.5 64.31 86.5 64.304C86.5 64.2979 86.5 64.2918 86.5 64.2858C86.5 64.2797 86.5 64.2737 86.5 64.2677C86.5 64.2616 86.5 64.2556 86.5 64.2496C86.5 64.2436 86.5 64.2376 86.5 64.2316C86.5 64.2256 86.5 64.2196 86.5 64.2136C86.5 64.2076 86.5 64.2016 86.5 64.1957C86.5 64.1897 86.5 64.1837 86.5 64.1778C86.5 64.1718 86.5 64.1659 86.5 64.16C86.5 64.154 86.5 64.1481 86.5 64.1422C86.5 64.1363 86.5 64.1304 86.5 64.1245C86.5 64.1186 86.5 64.1127 86.5 64.1068C86.5 64.1009 86.5 64.095 86.5 64.0892C86.5 64.0833 86.5 64.0774 86.5 64.0716C86.5 64.0657 86.5 64.0599 86.5 64.0541C86.5 64.0482 86.5 64.0424 86.5 64.0366C86.5 64.0308 86.5 64.025 86.5 64.0192C86.5 64.0134 86.5 64.0076 86.5 64.0018C86.5 63.996 86.5 63.9903 86.5 63.9845C86.5 63.9787 86.5 63.973 86.5 63.9672C86.5 63.9615 86.5 63.9558 86.5 63.95C86.5 63.9443 86.5 63.9386 86.5 63.9329C86.5 63.9272 86.5 63.9215 86.5 63.9158C86.5 63.9101 86.5 63.9044 86.5 63.8987C86.5 63.8931 86.5 63.8874 86.5 63.8817C86.5 63.8761 86.5 63.8704 86.5 63.8648C86.5 63.8591 86.5 63.8535 86.5 63.8479C86.5 63.8423 86.5 63.8367 86.5 63.8311C86.5 63.8255 86.5 63.8199 86.5 63.8143C86.5 63.8087 86.5 63.8031 86.5 63.7976C86.5 63.792 86.5 63.7864 86.5 63.7809C86.5 63.7753 86.5 63.7698 86.5 63.7643C86.5 63.7588 86.5 63.7532 86.5 63.7477C86.5 63.7422 86.5 63.7367 86.5 63.7312C86.5 63.7257 86.5 63.7202 86.5 63.7148C86.5 63.7093 86.5 63.7038 86.5 63.6984C86.5 63.6929 86.5 63.6875 86.5 63.682C86.5 63.6766 86.5 63.6712 86.5 63.6658C86.5 63.6604 86.5 63.6549 86.5 63.6496C86.5 63.6442 86.5 63.6388 86.5 63.6334C86.5 63.628 86.5 63.6226 86.5 63.6173C86.5 63.6119 86.5 63.6066 86.5 63.6012C86.5 63.5959 86.5 63.5906 86.5 63.5852C86.5 63.5799 86.5 63.5746 86.5 63.5693C86.5 63.564 86.5 63.5587 86.5 63.5534C86.5 63.5481 86.5 63.5429 86.5 63.5376C86.5 63.5323 86.5 63.5271 86.5 63.5219C86.5 63.5166 86.5 63.5114 86.5 63.5062C86.5 63.5009 86.5 63.4957 86.5 63.4905C86.5 63.4853 86.5 63.4801 86.5 63.4749C86.5 63.4697 86.5 63.4646 86.5 63.4594C86.5 63.4542 86.5 63.4491 86.5 63.4439C86.5 63.4388 86.5 63.4337 86.5 63.4285C86.5 63.4234 86.5 63.4183 86.5 63.4132C86.5 63.4081 86.5 63.403 86.5 63.3979C86.5 63.3928 86.5 63.3878 86.5 63.3827C86.5 63.3776 86.5 63.3726 86.5 63.3675C86.5 63.3625 86.5 63.3575 86.5 63.3524C86.5 63.3474 86.5 63.3424 86.5 63.3374C86.5 63.3324 86.5 63.3274 86.5 63.3224C86.5 63.3174 86.5 63.3125 86.5 63.3075C86.5 63.3026 86.5 63.2976 86.5 63.2927C86.5 63.2877 86.5 63.2828 86.5 63.2779C86.5 63.273 86.5 63.268 86.5 63.2631C86.5 63.2582 86.5 63.2534 86.5 63.2485C86.5 63.2436 86.5 63.2387 86.5 63.2339C86.5 63.229 86.5 63.2242 86.5 63.2193C86.5 63.2145 86.5 63.2097 86.5 63.2049C86.5 63.2001 86.5 63.1952 86.5 63.1905C86.5 63.1857 86.5 63.1809 86.5 63.1761C86.5 63.1713 86.5 63.1666 86.5 63.1618C86.5 63.1571 86.5 63.1523 86.5 63.1476C86.5 63.1429 86.5 63.1382 86.5 63.1334C86.5 63.1287 86.5 63.124 86.5 63.1194C86.5 63.1147 86.5 63.11 86.5 63.1053C86.5 63.1007 86.5 63.096 86.5 63.0914C86.5 63.0867 86.5 63.0821 86.5 63.0775C86.5 63.0729 86.5 63.0682 86.5 63.0636C86.5 63.059 86.5 63.0545 86.5 63.0499C86.5 63.0453 86.5 63.0407 86.5 63.0362C86.5 63.0316 86.5 63.0271 86.5 63.0226C86.5 63.018 86.5 63.0135 86.5 63.009C86.5 63.0045 86.5 63 86.5 62.9955C86.5 62.991 86.5 62.9865 86.5 62.9821C86.5 62.9776 86.5 62.9731 86.5 62.9687C86.5 62.9643 86.5 62.9598 86.5 62.9554C86.5 62.951 86.5 62.9466 86.5 62.9422C86.5 62.9378 86.5 62.9334 86.5 62.929C86.5 62.9246 86.5 62.9203 86.5 62.9159C86.5 62.9116 86.5 62.9072 86.5 62.9029C86.5 62.8986 86.5 62.8942 86.5 62.8899C86.5 62.8856 86.5 62.8813 86.5 62.8771C86.5 62.8728 86.5 62.8685 86.5 62.8642C86.5 62.86 86.5 62.8557 86.5 62.8515C86.5 62.8473 86.5 62.843 86.5 62.8388C86.5 62.8346 86.5 62.8304 86.5 62.8262C86.5 62.822 86.5 62.8178 86.5 62.8137C86.5 62.8095 86.5 62.8053 86.5 62.8012C86.5 62.797 86.5 62.7929 86.5 62.7888C86.5 62.7847 86.5 62.7806 86.5 62.7765C86.5 62.7724 86.5 62.7683 86.5 62.7642C86.5 62.7601 86.5 62.7561 86.5 62.752C86.5 62.748 86.5 62.7439 86.5 62.7399C86.5 62.7359 86.5 62.7319 86.5 62.7279C86.5 62.7239 86.5 62.7199 86.5 62.7159C86.5 62.7119 86.5 62.7079 86.5 62.704C86.5 62.7 86.5 62.6961 86.5 62.6922C86.5 62.6882 86.5 62.6843 86.5 62.6804C86.5 62.6765 86.5 62.6726 86.5 62.6687C86.5 62.6648 86.5 62.661 86.5 62.6571C86.5 62.6533 86.5 62.6494 86.5 62.6456C86.5 62.6418 86.5 62.6379 86.5 62.6341C86.5 62.6303 86.5 62.6265 86.5 62.6227C86.5 62.6189 86.5 62.6152 86.5 62.6114C86.5 62.6077 86.5 62.6039 86.5 62.6002C86.5 62.5964 86.5 62.5927 86.5 62.589C86.5 62.5853 86.5 62.5816 86.5 62.5779C86.5 62.5742 86.5 62.5706 86.5 62.5669C86.5 62.5632 86.5 62.5596 86.5 62.556C86.5 62.5523 86.5 62.5487 86.5 62.5451C86.5 62.5415 86.5 62.5379 86.5 62.5343C86.5 62.5307 86.5 62.5271 86.5 62.5236C86.5 62.52 86.5 62.5165 86.5 62.5129C86.5 62.5094 86.5 62.5059 86.5 62.5024C86.5 62.4989 86.5 62.4954 86.5 62.4919C86.5 62.4884 86.5 62.4849 86.5 62.4815C86.5 62.478 86.5 62.4746 86.5 62.4711C86.5 62.4677 86.5 62.4643 86.5 62.4609C86.5 62.4575 86.5 62.4541 86.5 62.4507C86.5 62.4473 86.5 62.4439 86.5 62.4406C86.5 62.4372 86.5 62.4339 86.5 62.4306C86.5 62.4272 86.5 62.4239 86.5 62.4206C86.5 62.4173 86.5 62.414 86.5 62.4107C86.5 62.4075 86.5 62.4042 86.5 62.401C86.5 62.3977 86.5 62.3945 86.5 62.3912C86.5 62.388 86.5 62.3848 86.5 62.3816C86.5 62.3784 86.5 62.3752 86.5 62.372C86.5 62.3689 86.5 62.3657 86.5 62.3626C86.5 62.3594 86.5 62.3563 86.5 62.3532C86.5 62.3501 86.5 62.347 86.5 62.3439C86.5 62.3408 86.5 62.3377 86.5 62.3346C86.5 62.3316 86.5 62.3285 86.5 62.3255C86.5 62.3224 86.5 62.3194 86.5 62.3164C86.5 62.3134 86.5 62.3104 86.5 62.3074C86.5 62.3044 86.5 62.3014 86.5 62.2985C86.5 62.2955 86.5 62.2926 86.5 62.2896C86.5 62.2867 86.5 62.2838 86.5 62.2809C86.5 62.278 86.5 62.2751 86.5 62.2722C86.5 62.2693 86.5 62.2665 86.5 62.2636C86.5 62.2608 86.5 62.2579 86.5 62.2551C86.5 62.2523 86.5 62.2495 86.5 62.2467C86.5 62.2439 86.5 62.2411 86.5 62.2383C86.5 62.2356 86.5 62.2328 86.5 62.2301C86.5 62.2273 86.5 62.2246 86.5 62.2219C86.5 62.2192 86.5 62.2165 86.5 62.2138C86.5 62.2111 86.5 62.2085 86.5 62.2058C86.5 62.2031 86.5 62.2005 86.5 62.1979C86.5 62.1952 86.5 62.1926 86.5 62.19C86.5 62.1874 86.5 62.1848 86.5 62.1823C86.5 62.1797 86.5 62.1771 86.5 62.1746C86.5 62.172 86.5 62.1695 86.5 62.167C86.5 62.1645 86.5 62.162 86.5 62.1595C86.5 62.157 86.5 62.1545 86.5 62.1521C86.5 62.1496 86.5 62.1472 86.5 62.1447C86.5 62.1423 86.5 62.1399 86.5 62.1375C86.5 62.1351 86.5 62.1327 86.5 62.1303C86.5 62.1279 86.5 62.1256 86.5 62.1232C86.5 62.1209 86.5 62.1186 86.5 62.1162C86.5 62.1139 86.5 62.1116 86.5 62.1093C86.5 62.107 86.5 62.1048 86.5 62.1025C86.5 62.1003 86.5 62.098 86.5 62.0958C86.5 62.0935 86.5 62.0913 86.5 62.0891C86.5 62.0869 86.5 62.0847 86.5 62.0826C86.5 62.0804 86.5 62.0782 86.5 62.0761C86.5 62.074 86.5 62.0718 86.5 62.0697C86.5 62.0676 86.5 62.0655 86.5 62.0634C86.5 62.0613 86.5 62.0593 86.5 62.0572C86.5 62.0551 86.5 62.0531 86.5 62.0511C86.5 62.0491 86.5 62.047 86.5 62.045C86.5 62.0431 86.5 62.0411 86.5 62.0391C86.5 62.0371 86.5 62.0352 86.5 62.0332C86.5 62.0313 86.5 62.0294 86.5 62.0275C86.5 62.0256 86.5 62.0237 86.5 62.0218C86.5 62.0199 86.5 62.0181 86.5 62.0162C86.5 62.0144 86.5 62.0125 86.5 62.0107C86.5 62.0089 86.5 62.0071 86.5 62.0053C86.5 62.0035 86.5 62.0018 86.5 62H87ZM56 71.5L56.4472 71.7236L49.4472 85.7236L49 85.5L48.5528 85.2764L55.5528 71.2764L56 71.5ZM132.5 83.5L132.512 83.9999L49.012 85.9999L49 85.5L48.988 85.0001L132.488 83.0001L132.5 83.5ZM56 71.5L55.5045 71.5668L46.0045 1.06677L46.5 1L46.9955 0.933228L56.4955 71.4332L56 71.5ZM46.5 1L46.5672 1.49547L17.0672 5.49547L17 5L16.9328 4.50453L46.4328 0.504534L46.5 1ZM17 5L17.4395 5.23838L1.43951 34.7384L1 34.5L0.560486 34.2616L16.5605 4.76162L17 5ZM12.5 152.192H12V85.5H12.5H13V152.192H12.5ZM102.5 152.192V152.692H96V152.192V151.692H102.5V152.192ZM96 152.192V152.692H12.5V152.192V151.692H96V152.192ZM34 68L34.4026 67.7035L96.4026 151.896L96 152.192L95.5974 152.489L33.5974 68.2965L34 68ZM12.5 85.5L12.1362 85.157L28.6362 67.657L29 68L29.3638 68.343L12.8638 85.843L12.5 85.5ZM12.5 85.5L12.1844 85.1122L30.6844 70.0541L31 70.4419L31.3156 70.8296L12.8156 85.8878L12.5 85.5ZM31 70.4419L30.6844 70.0541L33.6844 67.6122L34 68L34.3156 68.3878L31.3156 70.8296L31 70.4419ZM29 68L29.3868 67.6832L31.3868 70.125L31 70.4419L30.6132 70.7587L28.6132 68.3168L29 68ZM1 34.5L1.49791 34.4544L6.99791 94.4544L6.5 94.5L6.00209 94.5456L0.50209 34.5456L1 34.5ZM6.5 94.5L6.99731 94.4483L12.9973 152.141L12.5 152.192L12.0027 152.244L6.00269 94.5517L6.5 94.5ZM12.5 93.3461L12.5944 93.8372L6.59442 94.991L6.5 94.5L6.40558 94.009L12.4056 92.8551L12.5 93.3461ZM49 85.5L49.0382 85.9985L47.0382 86.1518L47 85.6532L46.9618 85.1547L48.9618 85.0015L49 85.5Z" fill="white"/>
<path d="M75.9876 53.2273C75.9876 52.4602 76.0845 51.7358 76.2784 51.054C76.4723 50.3722 76.7504 49.733 77.1126 49.1364H77.6303C77.4748 49.3878 77.332 49.6722 77.2021 49.9897C77.0742 50.3072 76.9634 50.646 76.8697 51.006C76.7759 51.3661 76.7035 51.7347 76.6523 52.1119C76.6012 52.4869 76.5756 52.8587 76.5756 53.2273C76.5756 53.7195 76.6204 54.2159 76.7099 54.7166C76.7994 55.2173 76.9229 55.6925 77.0806 56.142C77.2404 56.5916 77.4237 56.9837 77.6303 57.3182H77.1126C76.7504 56.7195 76.4723 56.0792 76.2784 55.3974C76.0845 54.7156 75.9876 53.9922 75.9876 53.2273ZM78.6922 55.0938V54.608L81.6102 49.9545H81.9681V50.7695H81.7029L79.3602 54.5153V54.5568H83.1858V55.0938H78.6922ZM81.7476 56.5V54.9403V54.7166V49.9545H82.3165V56.5H81.7476ZM87.1545 52.9588V53.4957H84.4315V52.9588H87.1545ZM90.4751 56.5895C90.1108 56.5895 89.7848 56.516 89.4972 56.369C89.2116 56.2198 88.9837 56.0153 88.8132 55.7553C88.6449 55.4954 88.5554 55.1982 88.5447 54.8636H89.1232C89.1424 55.2109 89.2788 55.4964 89.5323 55.7202C89.7859 55.9418 90.1001 56.0526 90.4751 56.0526C90.767 56.0526 91.027 55.9833 91.255 55.8448C91.483 55.7042 91.6609 55.5124 91.7887 55.2695C91.9187 55.0245 91.9837 54.7486 91.9837 54.4418C91.9815 54.1222 91.9123 53.8409 91.7759 53.598C91.6396 53.353 91.4542 53.1612 91.2198 53.0227C90.9876 52.8842 90.7266 52.815 90.4368 52.815C90.2173 52.8129 90.0021 52.8491 89.7912 52.9237C89.5803 52.9982 89.4045 53.0941 89.2638 53.2113L88.6662 53.1346L89.0593 49.9545H92.2937V50.4915H89.5611L89.299 52.6808H89.331C89.4759 52.5593 89.6516 52.4602 89.8583 52.3835C90.0671 52.3068 90.2876 52.2685 90.5199 52.2685C90.9055 52.2685 91.2518 52.3612 91.5586 52.5465C91.8675 52.7319 92.1115 52.9876 92.2905 53.3136C92.4716 53.6374 92.5621 54.0103 92.5621 54.4322C92.5621 54.8455 92.4716 55.2152 92.2905 55.5412C92.1115 55.8651 91.8643 56.1207 91.549 56.3082C91.2358 56.4957 90.8778 56.5895 90.4751 56.5895ZM95.3251 53.2273C95.3251 53.9943 95.2282 54.7187 95.0343 55.4006C94.8404 56.0824 94.5623 56.7216 94.2001 57.3182H93.6824C93.8379 57.0668 93.9796 56.7823 94.1074 56.4648C94.2374 56.1474 94.3493 55.8086 94.443 55.4485C94.5368 55.0884 94.6092 54.7198 94.6603 54.3427C94.7115 53.9656 94.737 53.5938 94.737 53.2273C94.737 52.7351 94.6923 52.2386 94.6028 51.7379C94.5133 51.2372 94.3887 50.7621 94.2289 50.3125C94.0712 49.8629 93.889 49.4709 93.6824 49.1364H94.2001C94.5623 49.7351 94.8404 50.3754 95.0343 51.0572C95.2282 51.739 95.3251 52.4624 95.3251 53.2273Z" fill="white"/>
<path d="M12.5 85.5L96 152L132.5 83.5M17 5L54 75M1 34.5L50 84" stroke="white" stroke-width="0.5"/>
</svg>
