<svg width="141" height="148" viewBox="0 0 141 148" fill="none" xmlns="http://www.w3.org/2000/svg">
<path d="M92 77.6911L91.5054 77.6181L91.4815 77.78L91.558 77.9248L92 77.6911ZM129 147.691V148.191H129.446L129.497 147.748L129 147.691ZM18.5 83.6911L18.5284 83.1919L18.2734 83.1774L18.1122 83.3755L18.5 83.6911ZM1 105.191L0.612219 104.875L0.292811 105.268L0.688993 105.583L1 105.191ZM54.5 147.691L54.189 148.083L54.3256 148.191H54.5V147.691ZM145.5 6.1891L142.327 1.36597L139.736 6.52581L145.5 6.1891ZM97.55 88.1911L97.9921 87.9574L97.55 88.1911ZM101 16.6911L101.081 16.1976L100.579 16.1158L100.505 16.6181L101 16.6911ZM125.5 20.6911L125.933 20.4412L125.815 20.2358L125.581 20.1976L125.5 20.6911ZM140.5 46.6911L140.997 46.7477L141.015 46.584L140.933 46.4412L140.5 46.6911ZM18.5 83.6911L18.1122 83.3755L0.612219 104.875L1 105.191L1.38778 105.507L18.8878 84.0067L18.5 83.6911ZM1 105.191L0.688993 105.583L54.189 148.083L54.5 147.691L54.811 147.3L1.31101 104.8L1 105.191ZM54.5 147.691V148.191H129V147.691V147.191H54.5V147.691ZM101 6.69059L101.342 7.05532C103.047 5.45663 105.619 4.18561 108.751 3.26453C111.877 2.34547 115.523 1.78545 119.341 1.58438C126.983 1.18183 135.242 2.22109 141.293 4.63482L141.479 4.1704L141.664 3.70598C135.444 1.22502 127.033 0.177822 119.288 0.585763C115.412 0.789939 111.686 1.35939 108.469 2.30515C105.26 3.24887 102.522 4.57799 100.658 6.32585L101 6.69059ZM92 77.6911L91.558 77.9248L97.108 88.4247L97.55 88.1911L97.9921 87.9574L92.442 77.4575L92 77.6911ZM97.55 88.1911L97.108 88.4247L128.558 147.925L129 147.691L129.442 147.457L97.9921 87.9574L97.55 88.1911ZM18.5 83.6911L18.4716 84.1903L97.5216 88.6903L97.55 88.1911L97.5784 87.6919L18.5284 83.1919L18.5 83.6911ZM92 77.6911L92.4946 77.7641L101.495 16.7641L101 16.6911L100.505 16.6181L91.5054 77.6181L92 77.6911ZM101 16.6911L100.919 17.1846L125.419 21.1846L125.5 20.6911L125.581 20.1976L101.081 16.1976L101 16.6911ZM125.5 20.6911L125.067 20.941L140.067 46.941L140.5 46.6911L140.933 46.4412L125.933 20.4412L125.5 20.6911ZM140.5 46.6911L140.003 46.6345L128.503 147.635L129 147.691L129.497 147.748L140.997 46.7477L140.5 46.6911ZM132 8.68909H131.5C131.5 12.5551 128.366 15.6891 124.5 15.6891V16.1891V16.6891C128.918 16.6891 132.5 13.1074 132.5 8.68909H132ZM124.5 16.1891V15.6891C120.634 15.6891 117.5 12.5551 117.5 8.68909H117H116.5C116.5 13.1074 120.082 16.6891 124.5 16.6891V16.1891ZM117 8.68909H117.5C117.5 4.82309 120.634 1.68909 124.5 1.68909V1.18909V0.689087C120.082 0.689087 116.5 4.27081 116.5 8.68909H117ZM124.5 1.18909V1.68909C128.366 1.68909 131.5 4.82309 131.5 8.68909H132H132.5C132.5 4.27081 128.918 0.689087 124.5 0.689087V1.18909Z" fill="white"/>
<path d="M92 78.1885L121.5 92.4179M134.5 98.6885L121.5 92.4179M93 72.1885L121.5 92.4179" stroke="white" stroke-width="0.5"/>
</svg>
