<svg width="152" height="152" viewBox="0 0 152 152" fill="none" xmlns="http://www.w3.org/2000/svg">
<path d="M69.5 12.502C69.5 14.435 67.933 16.002 66 16.002C64.067 16.002 62.5 14.435 62.5 12.502C62.5 10.569 64.067 9.00196 66 9.00196C67.933 9.00196 69.5 10.569 69.5 12.502Z" fill="white"/>
<path d="M89 142.502C89 144.435 87.433 146.002 85.5 146.002C83.567 146.002 82 144.435 82 142.502C82 140.569 83.567 139.002 85.5 139.002C87.433 139.002 89 140.569 89 142.502Z" fill="white"/>
<path d="M1 77.502L0.646447 77.1484L0.292893 77.502L0.646447 77.8555L1 77.502ZM75.5001 3.00195L75.8537 2.6484L75.5001 2.29485L75.1466 2.6484L75.5001 3.00195ZM150 77.502L150.355 77.8544L150.706 77.5008L150.354 77.1484L150 77.502ZM75.7492 152.251L75.3956 152.605L75.7503 152.959L76.1039 152.603L75.7492 152.251ZM69.5 21.002L68.7865 26.7312L74.1049 24.4845L69.5 21.002ZM1 77.502L1.35355 77.8555L75.8537 3.35551L75.5001 3.00195L75.1466 2.6484L0.646447 77.1484L1 77.502ZM75.5001 3.00195L75.1466 3.35551L149.647 77.8555L150 77.502L150.354 77.1484L75.8537 2.6484L75.5001 3.00195ZM150 77.502L149.645 77.1496L75.3944 151.899L75.7492 152.251L76.1039 152.603L150.355 77.8544L150 77.502ZM75.7492 152.251L76.1027 151.898L1.35355 77.1484L1 77.502L0.646447 77.8555L75.3956 152.605L75.7492 152.251ZM69.5 12.502L69 12.502C69 14.1588 67.6569 15.502 66 15.502L66 16.002L66 16.502C68.2091 16.502 70 14.7111 70 12.502L69.5 12.502ZM66 16.002L66 15.502C64.3431 15.502 63 14.1588 63 12.502L62.5 12.502L62 12.502C62 14.7111 63.7909 16.502 66 16.502L66 16.002ZM62.5 12.502L63 12.502C63 10.8451 64.3431 9.50196 66 9.50196L66 9.00196L66 8.50196C63.7909 8.50196 62 10.2928 62 12.502L62.5 12.502ZM66 9.00196L66 9.50196C67.6569 9.50196 69 10.8451 69 12.502L69.5 12.502L70 12.502C70 10.2928 68.2091 8.50196 66 8.50196L66 9.00196ZM89 142.502L88.5 142.502C88.5 144.159 87.1569 145.502 85.5 145.502L85.5 146.002L85.5 146.502C87.7091 146.502 89.5 144.711 89.5 142.502L89 142.502ZM85.5 146.002L85.5 145.502C83.8431 145.502 82.5 144.159 82.5 142.502L82 142.502L81.5 142.502C81.5 144.711 83.2909 146.502 85.5 146.502L85.5 146.002ZM82 142.502L82.5 142.502C82.5 140.845 83.8431 139.502 85.5 139.502L85.5 139.002L85.5 138.502C83.2909 138.502 81.5 140.293 81.5 142.502L82 142.502ZM85.5 139.002L85.5 139.502C87.1569 139.502 88.5 140.845 88.5 142.502L89 142.502L89.5 142.502C89.5 140.293 87.7091 138.502 85.5 138.502L85.5 139.002ZM84.5 137.002L84.9985 137.041C87.881 100.049 85.2354 58.4027 71.7141 24.9586L71.2506 25.146L70.7871 25.3334C84.2274 58.5774 86.8779 100.05 84.0015 136.963L84.5 137.002Z" fill="white"/>
<line x1="11.4234" y1="87.5069" x2="140.423" y2="67.5069" stroke="white" stroke-dasharray="3 3"/>
<path d="M122.117 12.8838L118.371 17.2772L124.049 18.3245L122.117 12.8838ZM147.489 22.1183L147.019 21.9473C144.563 28.694 137.103 32.1727 130.357 29.7171L130.186 30.1869L130.015 30.6568C137.28 33.3013 145.314 29.555 147.959 22.2893L147.489 22.1183ZM130.186 30.1869L130.357 29.7171C125.018 27.7738 121.724 22.696 121.801 17.317L121.301 17.3099L120.801 17.3028C120.719 23.0942 124.264 28.5635 130.015 30.6568L130.186 30.1869Z" fill="white"/>
<path d="M147.676 21.9209L151.422 17.5275L145.744 16.4802L147.676 21.9209ZM122.304 12.6864L122.774 12.8574C125.23 6.11065 132.689 2.63202 139.436 5.08762L139.607 4.61778L139.778 4.14793C132.513 1.50343 124.479 5.24965 121.834 12.5153L122.304 12.6864ZM139.607 4.61778L139.436 5.08762C144.775 7.03086 148.069 12.1087 147.992 17.4877L148.492 17.4948L148.992 17.5019C149.074 11.7105 145.529 6.2412 139.778 4.14793L139.607 4.61778Z" fill="white"/>
<path d="M130.859 13.001L130.859 21.001L130.129 21.001L130.129 13.7666L130.082 13.7666L128.207 15.0127L128.207 14.2549L130.098 13.001L130.859 13.001ZM135.773 21.1104C135.211 21.1104 134.73 20.9489 134.332 20.626C133.936 20.3005 133.632 19.8304 133.418 19.2158C133.207 18.6012 133.102 17.863 133.102 17.001C133.102 16.1416 133.207 15.4059 133.418 14.7939C133.632 14.1794 133.938 13.7093 134.336 13.3838C134.737 13.0557 135.216 12.8916 135.773 12.8916C136.331 12.8916 136.809 13.0557 137.207 13.3838C137.608 13.7093 137.914 14.1794 138.125 14.7939C138.339 15.4059 138.445 16.1416 138.445 17.001C138.445 17.863 138.339 18.6012 138.125 19.2158C137.914 19.8304 137.609 20.3005 137.211 20.626C136.815 20.9489 136.336 21.1104 135.773 21.1104ZM135.773 20.4541C136.391 20.4541 136.872 20.1533 137.219 19.5518C137.565 18.9476 137.738 18.0973 137.738 17.001C137.738 16.2718 137.659 15.6494 137.5 15.1338C137.344 14.6156 137.118 14.2197 136.824 13.9463C136.533 13.6729 136.182 13.5361 135.773 13.5361C135.161 13.5361 134.681 13.8408 134.332 14.4502C133.983 15.057 133.809 15.9072 133.809 17.001C133.809 17.7301 133.887 18.3525 134.043 18.8682C134.202 19.3838 134.427 19.777 134.719 20.0479C135.013 20.3187 135.365 20.4541 135.773 20.4541ZM141.645 16.4033C141.324 16.4033 141.033 16.3252 140.77 16.1689C140.507 16.0127 140.297 15.8031 140.141 15.54C139.984 15.2744 139.906 14.9814 139.906 14.6611C139.906 14.3408 139.984 14.0492 140.141 13.7861C140.297 13.5231 140.507 13.3135 140.77 13.1572C141.033 13.001 141.324 12.9229 141.645 12.9229C141.965 12.9229 142.257 13.001 142.52 13.1572C142.783 13.3135 142.992 13.5231 143.148 13.7861C143.305 14.0492 143.383 14.3408 143.383 14.6611C143.383 14.9814 143.305 15.2744 143.148 15.54C142.992 15.8031 142.783 16.0127 142.52 16.1689C142.257 16.3252 141.965 16.4033 141.645 16.4033ZM141.645 15.7979C141.855 15.7979 142.046 15.7471 142.215 15.6455C142.387 15.5439 142.523 15.4072 142.625 15.2354C142.729 15.0635 142.781 14.8721 142.781 14.6611C142.781 14.4528 142.729 14.2627 142.625 14.0908C142.523 13.9189 142.387 13.7822 142.215 13.6807C142.046 13.5791 141.855 13.5283 141.645 13.5283C141.436 13.5283 141.246 13.5791 141.074 13.6807C140.902 13.7822 140.764 13.9189 140.66 14.0908C140.559 14.2627 140.508 14.4528 140.508 14.6611C140.508 14.8721 140.559 15.0635 140.66 15.2354C140.764 15.4072 140.902 15.5439 141.074 15.6455C141.246 15.7471 141.436 15.7979 141.645 15.7979Z" fill="white"/>
</svg>
