<svg width="112" height="153" viewBox="0 0 112 153" fill="none" xmlns="http://www.w3.org/2000/svg">
<path d="M75.734 4.5L76.2313 4.4482L76.1705 3.86467L75.604 4.01719L75.734 4.5ZM83.234 76.5L83.6745 76.7365L83.7472 76.6011L83.7313 76.4482L83.234 76.5ZM111.734 51.5L108.464 46.7415L105.978 51.9523L111.734 51.5ZM49.734 11.5L49.604 11.0172L49.383 11.0767L49.2836 11.2829L49.734 11.5ZM36.234 39.5L35.7836 39.2829L35.7268 39.4007L35.735 39.5313L36.234 39.5ZM43.234 151L42.736 151.045L42.8852 152.707L43.6745 151.237L43.234 151ZM32.734 34L32.2883 33.7734L32.2232 33.9015L32.236 34.0447L32.734 34ZM47.734 4.5L47.6673 4.00447L47.4073 4.03948L47.2883 4.27338L47.734 4.5ZM73.734 1H74.234V0.428182L73.6673 0.50447L73.734 1ZM5.23438 59L9.26222 63.1364L10.8305 57.58L5.23438 59ZM75.734 4.5L75.2367 4.5518L82.7367 76.5518L83.234 76.5L83.7313 76.4482L76.2313 4.4482L75.734 4.5ZM81.234 45.5L81.2532 45.9996C92.1539 45.5804 100.192 46.9283 107.477 50.0225L107.673 49.5623L107.868 49.1021C100.416 45.9372 92.2249 44.5769 81.2148 45.0004L81.234 45.5ZM49.734 11.5L49.2836 11.2829L35.7836 39.2829L36.234 39.5L36.6844 39.7171L50.1844 11.7171L49.734 11.5ZM36.234 39.5L35.735 39.5313L42.735 151.031L43.234 151L43.733 150.969L36.733 39.4687L36.234 39.5ZM43.234 151L43.6745 151.237L83.6745 76.7365L83.234 76.5L82.7935 76.2635L42.7935 150.763L43.234 151ZM43.234 151L43.732 150.955L33.232 33.9553L32.734 34L32.236 34.0447L42.736 151.045L43.234 151ZM32.734 34L33.1797 34.2266L48.1797 4.72662L47.734 4.5L47.2883 4.27338L32.2883 33.7734L32.734 34ZM47.734 4.5L47.8007 4.99553L73.8007 1.49553L73.734 1L73.6673 0.50447L47.6673 4.00447L47.734 4.5ZM75.734 4.5L75.604 4.01719L73.604 4.55565L73.734 5.03846L73.864 5.52127L75.864 4.98281L75.734 4.5ZM73.734 5.03846L73.604 4.55565L49.604 11.0172L49.734 11.5L49.864 11.9828L73.864 5.52127L73.734 5.03846ZM73.734 1H73.234V5.03846H73.734H74.234V1H73.734ZM57.734 60L57.5436 59.5377C38.0028 67.5832 23.0878 63.5503 9.70265 59.7416L9.56581 60.2226L9.42897 60.7035C22.8439 64.5206 38.0486 68.6458 57.9243 60.4623L57.734 60Z" fill="black"/>
<path d="M83.735 76.4996L80.235 78.1718M38.735 97.9996L68.235 83.9052M68.235 83.9052L38.2353 92M68.235 83.9052L80.235 78.1718M80.235 78.1718L49.735 11.4996M47.7355 4.50035L51.2355 11.0004M32.7354 34L36.7354 38" stroke="black" stroke-width="0.5"/>
</svg>
