<svg width="152" height="76" viewBox="0 0 152 76" fill="none" xmlns="http://www.w3.org/2000/svg">
<line x1="16" y1="42.499" x2="146.541" y2="42.499" stroke="black" stroke-dasharray="3 3"/>
<path d="M9.5 75.5L9.09791 75.7972L9.24781 76H9.5V75.5ZM142.5 75.5V76H142.752L142.902 75.7972L142.5 75.5ZM151 64L151.402 64.2972L151.701 63.8923L151.294 63.5958L151 64ZM64.5 1L64.7944 0.595834L64.3928 0.303365L64.0977 0.703032L64.5 1ZM1 64L0.709114 63.5933L0.296043 63.8888L0.597912 64.2972L1 64ZM76 9.37572L75.7056 9.77989L76 9.37572ZM87 1L87.4014 0.701918L87.0997 0.295616L86.6971 0.602193L87 1ZM113.5 36.6879L113.206 37.092L113.5 36.6879ZM77.5 13.999L75.8472 19.5309L81.4644 18.1963L77.5 13.999ZM142.5 75.5L142.902 75.7972L151.402 64.2972L151 64L150.598 63.7028L142.098 75.2028L142.5 75.5ZM9.5 75.5L9.90209 75.2028L1.40209 63.7028L1 64L0.597912 64.2972L9.09791 75.7972L9.5 75.5ZM64.5 1L64.0977 0.703032L36.5977 37.953L37 38.25L37.4023 38.547L64.9023 1.29697L64.5 1ZM37 38.25L36.5977 37.953L9.09774 75.203L9.5 75.5L9.90226 75.797L37.4023 38.547L37 38.25ZM1 64L1.29089 64.4067L37.2909 38.6567L37 38.25L36.7091 37.8433L0.709114 63.5933L1 64ZM76 9.37572L76.2944 8.97156L64.7944 0.595834L64.5 1L64.2056 1.40417L75.7056 9.77989L76 9.37572ZM76 9.37572L76.3029 9.77353L87.3029 1.39781L87 1L86.6971 0.602193L75.6971 8.97792L76 9.37572ZM151 64L151.294 63.5958L113.794 36.2837L113.5 36.6879L113.206 37.092L150.706 64.4042L151 64ZM113.5 36.6879L113.794 36.2837L76.2944 8.97156L76 9.37572L75.7056 9.77989L113.206 37.092L113.5 36.6879ZM87 1L86.5986 1.29808L113.099 36.986L113.5 36.6879L113.901 36.3898L87.4014 0.701918L87 1ZM9.5 75.5V76H76V75.5V75H9.5V75.5ZM76 75.5V76H142.5V75.5V75H76V75.5ZM78.5 72.9993L78.9797 73.1404C80.168 69.0999 81.3409 60.8481 81.6391 50.8961C81.9376 40.935 81.3613 29.2275 79.0289 18.2714L78.5398 18.3755L78.0508 18.4796C80.3619 29.3354 80.9365 40.9589 80.6396 50.8662C80.3424 60.7827 79.1736 68.9368 78.0203 72.8582L78.5 72.9993Z" fill="black"/>
<line x1="75.75" y1="75.999" x2="75.75" y2="8.99902" stroke="black" stroke-width="0.5"/>
</svg>
