<svg width="151" height="58" viewBox="0 0 151 58" fill="none" xmlns="http://www.w3.org/2000/svg">
<line x1="75" y1="58" x2="75" y2="-2.18557e-08" stroke="white" stroke-dasharray="3 3"/>
<path d="M120.5 46.0078V46.5078H120.665L120.798 46.4095L120.5 46.0078ZM30 46.0078L29.7022 46.4095L29.8349 46.5078H30V46.0078ZM1 24.5078L0.6 24.2078L0.298333 24.61L0.702221 24.9095L1 24.5078ZM10 12.5078V12.0078H9.75L9.6 12.2078L10 12.5078ZM140.5 12.5078L140.9 12.2078L140.75 12.0078H140.5V12.5078ZM149.5 24.5078L149.798 24.9095L150.202 24.61L149.9 24.2078L149.5 24.5078ZM87 4.50781L87.412 4.22455L87.1272 3.81025L86.7145 4.09736L87 4.50781ZM64.5 4.50781L64.7941 4.10344L64.3956 3.81365L64.1 4.20781L64.5 4.50781ZM26.5 24.5078L30.7734 28.39L31.9988 22.748L26.5 24.5078ZM30 46.0078L30.2978 45.6062L1.29778 24.1062L1 24.5078L0.702221 24.9095L29.7022 46.4095L30 46.0078ZM1 24.5078L1.4 24.8078L10.4 12.8078L10 12.5078L9.6 12.2078L0.6 24.2078L1 24.5078ZM140.5 12.5078L140.1 12.8078L149.1 24.8078L149.5 24.5078L149.9 24.2078L140.9 12.2078L140.5 12.5078ZM149.5 24.5078L149.202 24.1062L120.202 45.6062L120.5 46.0078L120.798 46.4095L149.798 24.9095L149.5 24.5078ZM120.5 46.0078V45.5078H116.5V46.0078V46.5078H120.5V46.0078ZM116.5 46.0078V45.5078H30V46.0078V46.5078H116.5V46.0078ZM140.5 12.5078L140.094 12.2166L116.094 45.7166L116.5 46.0078L116.906 46.299L140.906 12.799L140.5 12.5078ZM92.5 12.5078V13.0078H140.5V12.5078V12.0078H92.5V12.5078ZM92.5 12.5078L92.912 12.2245L87.412 4.22455L87 4.50781L86.588 4.79108L92.088 12.7911L92.5 12.5078ZM75.5 12.5078V13.0078H92.5V12.5078V12.0078H75.5V12.5078ZM87 4.50781L86.7145 4.09736L75.2145 12.0974L75.5 12.5078L75.7855 12.9183L87.2855 4.91827L87 4.50781ZM64.5 4.50781L64.2059 4.91218L75.2059 12.9122L75.5 12.5078L75.7941 12.1034L64.7941 4.10344L64.5 4.50781ZM10 12.5078V13.0078H58.5V12.5078V12.0078H10V12.5078ZM58.5 12.5078V13.0078H75.5V12.5078V12.0078H58.5V12.5078ZM64.5 4.50781L64.1 4.20781L58.1 12.2078L58.5 12.5078L58.9 12.8078L64.9 4.80781L64.5 4.50781ZM118 24.5078L117.848 24.0315C111.977 25.9064 97.6159 27.5807 81.0009 28.0625C64.4032 28.5438 45.6411 27.8326 30.9918 24.9718L30.896 25.4625L30.8001 25.9533C45.553 28.8343 64.3983 29.5443 81.0299 29.062C97.6441 28.5803 112.133 26.9063 118.152 24.9841L118 24.5078Z" fill="white"/>
</svg>
