<svg width="547" height="595" viewBox="0 0 547 595" fill="none" xmlns="http://www.w3.org/2000/svg">
<g clip-path="url(#clip0_332_595)">
<rect width="463.458" height="602.005" transform="translate(120.227 594.287) rotate(-105)" fill="#0000FF"/>
<path d="M555.545 36.6815L553.423 33.5944L548.378 34.9462L548.084 38.6807L546.343 39.1472L547.541 25.4982L549.495 24.9746L557.357 36.196L555.545 36.6815ZM548.785 30.0009L548.519 33.2709L552.463 32.2142L550.615 29.5106L549 27.1064L548.785 30.0009ZM563.086 34.813C560.475 35.5128 558.385 34.3211 557.257 30.1109L556.981 29.0806C555.862 24.9059 557.102 22.7838 559.678 22.0936C562.29 21.3939 564.38 22.5856 565.508 26.7958L565.784 27.8261C566.902 32.0008 565.662 34.1228 563.086 34.813ZM562.658 33.2142C564.221 32.7953 564.923 31.579 564.043 28.2926L563.767 27.2622C562.896 24.0113 561.634 23.2831 560.107 23.6924C558.543 24.1113 557.841 25.3276 558.722 28.6141L558.998 29.6444C559.869 32.8953 561.13 33.6236 562.658 33.2142Z" fill="white"/>
<path d="M42.2693 174.213L38.5088 169.985C38.3004 170.06 38.0872 170.117 37.8741 170.174L35.4581 170.821L36.7623 175.689L35.0925 176.136L31.7605 163.701L35.8463 162.606C39.0262 161.754 40.8506 162.808 41.479 165.152C41.9264 166.822 41.491 168.253 40.0397 169.232L44.1524 173.709L42.2693 174.213ZM36.2557 164.134L33.8397 164.781L35.0487 169.294L37.4647 168.646C39.4899 168.104 40.1141 167.022 39.738 165.619C39.362 164.216 38.2808 163.591 36.2557 164.134ZM50.5073 172.158C47.5761 172.944 45.211 171.578 44.34 168.327L42.3408 160.866L44.0106 160.419L46.0098 167.88C46.6191 170.154 48.1781 171.069 50.0789 170.559C51.9797 170.05 52.877 168.496 52.2629 166.204L50.2637 158.743L51.9336 158.296L53.9328 165.757C54.7991 168.99 53.4206 171.377 50.5073 172.158Z" fill="white"/>
<line x1="354" y1="178" x2="354" y2="120" stroke="white" stroke-dasharray="3 3"/>
<path d="M399.5 166.008V166.508H399.665L399.798 166.409L399.5 166.008ZM309 166.008L308.702 166.409L308.835 166.508H309V166.008ZM280 144.508L279.6 144.208L279.298 144.61L279.702 144.909L280 144.508ZM289 132.508V132.008H288.75L288.6 132.208L289 132.508ZM419.5 132.508L419.9 132.208L419.75 132.008H419.5V132.508ZM428.5 144.508L428.798 144.909L429.202 144.61L428.9 144.208L428.5 144.508ZM366 124.508L366.412 124.225L366.127 123.81L365.714 124.097L366 124.508ZM343.5 124.508L343.794 124.103L343.396 123.814L343.1 124.208L343.5 124.508ZM305.5 144.508L309.773 148.39L310.999 142.748L305.5 144.508ZM309 166.008L309.298 165.606L280.298 144.106L280 144.508L279.702 144.909L308.702 166.409L309 166.008ZM280 144.508L280.4 144.808L289.4 132.808L289 132.508L288.6 132.208L279.6 144.208L280 144.508ZM419.5 132.508L419.1 132.808L428.1 144.808L428.5 144.508L428.9 144.208L419.9 132.208L419.5 132.508ZM428.5 144.508L428.202 144.106L399.202 165.606L399.5 166.008L399.798 166.409L428.798 144.909L428.5 144.508ZM399.5 166.008V165.508H395.5V166.008V166.508H399.5V166.008ZM395.5 166.008V165.508H309V166.008V166.508H395.5V166.008ZM419.5 132.508L419.094 132.217L395.094 165.717L395.5 166.008L395.906 166.299L419.906 132.799L419.5 132.508ZM371.5 132.508V133.008H419.5V132.508V132.008H371.5V132.508ZM371.5 132.508L371.912 132.225L366.412 124.225L366 124.508L365.588 124.791L371.088 132.791L371.5 132.508ZM354.5 132.508V133.008H371.5V132.508V132.008H354.5V132.508ZM366 124.508L365.714 124.097L354.214 132.097L354.5 132.508L354.786 132.918L366.286 124.918L366 124.508ZM343.5 124.508L343.206 124.912L354.206 132.912L354.5 132.508L354.794 132.103L343.794 124.103L343.5 124.508ZM289 132.508V133.008H337.5V132.508V132.008H289V132.508ZM337.5 132.508V133.008H354.5V132.508V132.008H337.5V132.508ZM343.5 124.508L343.1 124.208L337.1 132.208L337.5 132.508L337.9 132.808L343.9 124.808L343.5 124.508ZM397 144.508L396.848 144.032C390.977 145.906 376.616 147.581 360.001 148.062C343.403 148.544 324.641 147.833 309.992 144.972L309.896 145.463L309.8 145.953C324.553 148.834 343.398 149.544 360.03 149.062C376.644 148.58 391.133 146.906 397.152 144.984L397 144.508Z" fill="white"/>
</g>
<defs>
<clipPath id="clip0_332_595">
<rect width="463.458" height="602.005" fill="white" transform="translate(120.227 594.287) rotate(-105)"/>
</clipPath>
</defs>
</svg>
