<svg width="1440" height="680" viewBox="0 0 1440 680" fill="none" xmlns="http://www.w3.org/2000/svg">
<g clip-path="url(#clip0_332_669)">
<rect width="1440" height="680" fill="white"/>
<path d="M196 0H720V680H196V0Z" fill="white"/>
<path d="M196 0V-1H195.5V0H196ZM720 0H720.5V-1H720V0ZM720 680V681H720.5V680H720ZM196 680H195.5V681H196V680ZM196 0H195.5V2.5H196H196.5V0H196ZM196 7.5H195.5V12.5H196H196.5V7.5H196ZM196 17.5H195.5V22.5H196H196.5V17.5H196ZM196 27.5H195.5V32.5H196H196.5V27.5H196ZM196 37.5H195.5V42.5H196H196.5V37.5H196ZM196 47.5H195.5V52.5H196H196.5V47.5H196ZM196 57.5H195.5V62.5H196H196.5V57.5H196ZM196 67.5H195.5V72.5H196H196.5V67.5H196ZM196 77.5H195.5V82.5H196H196.5V77.5H196ZM196 87.5H195.5V92.5H196H196.5V87.5H196ZM196 97.5H195.5V102.5H196H196.5V97.5H196ZM196 107.5H195.5V112.5H196H196.5V107.5H196ZM196 117.5H195.5V122.5H196H196.5V117.5H196ZM196 127.5H195.5V132.5H196H196.5V127.5H196ZM196 137.5H195.5V142.5H196H196.5V137.5H196ZM196 147.5H195.5V152.5H196H196.5V147.5H196ZM196 157.5H195.5V162.5H196H196.5V157.5H196ZM196 167.5H195.5V172.5H196H196.5V167.5H196ZM196 177.5H195.5V182.5H196H196.5V177.5H196ZM196 187.5H195.5V192.5H196H196.5V187.5H196ZM196 197.5H195.5V202.5H196H196.5V197.5H196ZM196 207.5H195.5V212.5H196H196.5V207.5H196ZM196 217.5H195.5V222.5H196H196.5V217.5H196ZM196 227.5H195.5V232.5H196H196.5V227.5H196ZM196 237.5H195.5V242.5H196H196.5V237.5H196ZM196 247.5H195.5V252.5H196H196.5V247.5H196ZM196 257.5H195.5V262.5H196H196.5V257.5H196ZM196 267.5H195.5V272.5H196H196.5V267.5H196ZM196 277.5H195.5V282.5H196H196.5V277.5H196ZM196 287.5H195.5V292.5H196H196.5V287.5H196ZM196 297.5H195.5V302.5H196H196.5V297.5H196ZM196 307.5H195.5V312.5H196H196.5V307.5H196ZM196 317.5H195.5V322.5H196H196.5V317.5H196ZM196 327.5H195.5V332.5H196H196.5V327.5H196ZM196 337.5H195.5V342.5H196H196.5V337.5H196ZM196 347.5H195.5V352.5H196H196.5V347.5H196ZM196 357.5H195.5V362.5H196H196.5V357.5H196ZM196 367.5H195.5V372.5H196H196.5V367.5H196ZM196 377.5H195.5V382.5H196H196.5V377.5H196ZM196 387.5H195.5V392.5H196H196.5V387.5H196ZM196 397.5H195.5V402.5H196H196.5V397.5H196ZM196 407.5H195.5V412.5H196H196.5V407.5H196ZM196 417.5H195.5V422.5H196H196.5V417.5H196ZM196 427.5H195.5V432.5H196H196.5V427.5H196ZM196 437.5H195.5V442.5H196H196.5V437.5H196ZM196 447.5H195.5V452.5H196H196.5V447.5H196ZM196 457.5H195.5V462.5H196H196.5V457.5H196ZM196 467.5H195.5V472.5H196H196.5V467.5H196ZM196 477.5H195.5V482.5H196H196.5V477.5H196ZM196 487.5H195.5V492.5H196H196.5V487.5H196ZM196 497.5H195.5V502.5H196H196.5V497.5H196ZM196 507.5H195.5V512.5H196H196.5V507.5H196ZM196 517.5H195.5V522.5H196H196.5V517.5H196ZM196 527.5H195.5V532.5H196H196.5V527.5H196ZM196 537.5H195.5V542.5H196H196.5V537.5H196ZM196 547.5H195.5V552.5H196H196.5V547.5H196ZM196 557.5H195.5V562.5H196H196.5V557.5H196ZM196 567.5H195.5V572.5H196H196.5V567.5H196ZM196 577.5H195.5V582.5H196H196.5V577.5H196ZM196 587.5H195.5V592.5H196H196.5V587.5H196ZM196 597.5H195.5V602.5H196H196.5V597.5H196ZM196 607.5H195.5V612.5H196H196.5V607.5H196ZM196 617.5H195.5V622.5H196H196.5V617.5H196ZM196 627.5H195.5V632.5H196H196.5V627.5H196ZM196 637.5H195.5V642.5H196H196.5V637.5H196ZM196 647.5H195.5V652.5H196H196.5V647.5H196ZM196 657.5H195.5V662.5H196H196.5V657.5H196ZM196 667.5H195.5V672.5H196H196.5V667.5H196ZM196 677.5H195.5V680H196H196.5V677.5H196ZM196 680V681H198.519V680V679H196V680ZM203.558 680V681H208.596V680V679H203.558V680ZM213.635 680V681H218.673V680V679H213.635V680ZM223.712 680V681H228.75V680V679H223.712V680ZM233.788 680V681H238.827V680V679H233.788V680ZM243.865 680V681H248.904V680V679H243.865V680ZM253.942 680V681H258.981V680V679H253.942V680ZM264.019 680V681H269.058V680V679H264.019V680ZM274.096 680V681H279.135V680V679H274.096V680ZM284.173 680V681H289.212V680V679H284.173V680ZM294.25 680V681H299.288V680V679H294.25V680ZM304.327 680V681H309.365V680V679H304.327V680ZM314.404 680V681H319.442V680V679H314.404V680ZM324.481 680V681H329.519V680V679H324.481V680ZM334.558 680V681H339.596V680V679H334.558V680ZM344.635 680V681H349.673V680V679H344.635V680ZM354.712 680V681H359.75V680V679H354.712V680ZM364.788 680V681H369.827V680V679H364.788V680ZM374.865 680V681H379.904V680V679H374.865V680ZM384.942 680V681H389.981V680V679H384.942V680ZM395.019 680V681H400.058V680V679H395.019V680ZM405.096 680V681H410.135V680V679H405.096V680ZM415.173 680V681H420.212V680V679H415.173V680ZM425.25 680V681H430.289V680V679H425.25V680ZM435.327 680V681H440.365V680V679H435.327V680ZM445.404 680V681H450.442V680V679H445.404V680ZM455.481 680V681H460.519V680V679H455.481V680ZM465.558 680V681H470.596V680V679H465.558V680ZM475.635 680V681H480.673V680V679H475.635V680ZM485.712 680V681H490.75V680V679H485.712V680ZM495.789 680V681H500.827V680V679H495.789V680ZM505.865 680V681H510.904V680V679H505.865V680ZM515.942 680V681H520.981V680V679H515.942V680ZM526.019 680V681H531.058V680V679H526.019V680ZM536.096 680V681H541.135V680V679H536.096V680ZM546.173 680V681H551.211V680V679H546.173V680ZM556.25 680V681H561.288V680V679H556.25V680ZM566.327 680V681H571.365V680V679H566.327V680ZM576.404 680V681H581.442V680V679H576.404V680ZM586.481 680V681H591.519V680V679H586.481V680ZM596.558 680V681H601.596V680V679H596.558V680ZM606.634 680V681H611.673V680V679H606.634V680ZM616.711 680V681H621.75V680V679H616.711V680ZM626.788 680V681H631.827V680V679H626.788V680ZM636.865 680V681H641.904V680V679H636.865V680ZM646.942 680V681H651.981V680V679H646.942V680ZM657.019 680V681H662.057V680V679H657.019V680ZM667.096 680V681H672.134V680V679H667.096V680ZM677.173 680V681H682.211V680V679H677.173V680ZM687.25 680V681H692.288V680V679H687.25V680ZM697.327 680V681H702.365V680V679H697.327V680ZM707.404 680V681H712.442V680V679H707.404V680ZM717.48 680V681H720V680V679H717.48V680ZM720 680H720.5V677.5H720H719.5V680H720ZM720 672.5H720.5V667.5H720H719.5V672.5H720ZM720 662.5H720.5V657.5H720H719.5V662.5H720ZM720 652.5H720.5V647.5H720H719.5V652.5H720ZM720 642.5H720.5V637.5H720H719.5V642.5H720ZM720 632.5H720.5V627.5H720H719.5V632.5H720ZM720 622.5H720.5V617.5H720H719.5V622.5H720ZM720 612.5H720.5V607.5H720H719.5V612.5H720ZM720 602.5H720.5V597.5H720H719.5V602.5H720ZM720 592.5H720.5V587.5H720H719.5V592.5H720ZM720 582.5H720.5V577.5H720H719.5V582.5H720ZM720 572.5H720.5V567.5H720H719.5V572.5H720ZM720 562.5H720.5V557.5H720H719.5V562.5H720ZM720 552.5H720.5V547.5H720H719.5V552.5H720ZM720 542.5H720.5V537.5H720H719.5V542.5H720ZM720 532.5H720.5V527.5H720H719.5V532.5H720ZM720 522.5H720.5V517.5H720H719.5V522.5H720ZM720 512.5H720.5V507.5H720H719.5V512.5H720ZM720 502.5H720.5V497.5H720H719.5V502.5H720ZM720 492.5H720.5V487.5H720H719.5V492.5H720ZM720 482.5H720.5V477.5H720H719.5V482.5H720ZM720 472.5H720.5V467.5H720H719.5V472.5H720ZM720 462.5H720.5V457.5H720H719.5V462.5H720ZM720 452.5H720.5V447.5H720H719.5V452.5H720ZM720 442.5H720.5V437.5H720H719.5V442.5H720ZM720 432.5H720.5V427.5H720H719.5V432.5H720ZM720 422.5H720.5V417.5H720H719.5V422.5H720ZM720 412.5H720.5V407.5H720H719.5V412.5H720ZM720 402.5H720.5V397.5H720H719.5V402.5H720ZM720 392.5H720.5V387.5H720H719.5V392.5H720ZM720 382.5H720.5V377.5H720H719.5V382.5H720ZM720 372.5H720.5V367.5H720H719.5V372.5H720ZM720 362.5H720.5V357.5H720H719.5V362.5H720ZM720 352.5H720.5V347.5H720H719.5V352.5H720ZM720 342.5H720.5V337.5H720H719.5V342.5H720ZM720 332.5H720.5V327.5H720H719.5V332.5H720ZM720 322.5H720.5V317.5H720H719.5V322.5H720ZM720 312.5H720.5V307.5H720H719.5V312.5H720ZM720 302.5H720.5V297.5H720H719.5V302.5H720ZM720 292.5H720.5V287.5H720H719.5V292.5H720ZM720 282.5H720.5V277.5H720H719.5V282.5H720ZM720 272.5H720.5V267.5H720H719.5V272.5H720ZM720 262.5H720.5V257.5H720H719.5V262.5H720ZM720 252.5H720.5V247.5H720H719.5V252.5H720ZM720 242.5H720.5V237.5H720H719.5V242.5H720ZM720 232.5H720.5V227.5H720H719.5V232.5H720ZM720 222.5H720.5V217.5H720H719.5V222.5H720ZM720 212.5H720.5V207.5H720H719.5V212.5H720ZM720 202.5H720.5V197.5H720H719.5V202.5H720ZM720 192.5H720.5V187.5H720H719.5V192.5H720ZM720 182.5H720.5V177.5H720H719.5V182.5H720ZM720 172.5H720.5V167.5H720H719.5V172.5H720ZM720 162.5H720.5V157.5H720H719.5V162.5H720ZM720 152.5H720.5V147.5H720H719.5V152.5H720ZM720 142.5H720.5V137.5H720H719.5V142.5H720ZM720 132.5H720.5V127.5H720H719.5V132.5H720ZM720 122.5H720.5V117.5H720H719.5V122.5H720ZM720 112.5H720.5V107.5H720H719.5V112.5H720ZM720 102.5H720.5V97.5H720H719.5V102.5H720ZM720 92.5H720.5V87.5H720H719.5V92.5H720ZM720 82.5H720.5V77.5H720H719.5V82.5H720ZM720 72.5H720.5V67.5H720H719.5V72.5H720ZM720 62.5H720.5V57.5H720H719.5V62.5H720ZM720 52.5H720.5V47.5H720H719.5V52.5H720ZM720 42.5H720.5V37.5H720H719.5V42.5H720ZM720 32.5H720.5V27.5H720H719.5V32.5H720ZM720 22.5H720.5V17.5H720H719.5V22.5H720ZM720 12.5H720.5V7.50001H720H719.5V12.5H720ZM720 2.5H720.5V0H720H719.5V2.5H720ZM720 0V-1H717.481V0V1H720V0ZM712.442 0V-1H707.404V0V1H712.442V0ZM702.365 0V-1H697.327V0V1H702.365V0ZM692.288 0V-1H687.25V0V1H692.288V0ZM682.212 0V-1H677.173V0V1H682.212V0ZM672.135 0V-1H667.096V0V1H672.135V0ZM662.058 0V-1H657.019V0V1H662.058V0ZM651.981 0V-1H646.942V0V1H651.981V0ZM641.904 0V-1H636.865V0V1H641.904V0ZM631.827 0V-1H626.788V0V1H631.827V0ZM621.75 0V-1H616.712V0V1H621.75V0ZM611.673 0V-1H606.635V0V1H611.673V0ZM601.596 0V-1H596.558V0V1H601.596V0ZM591.519 0V-1H586.481V0V1H591.519V0ZM581.442 0V-1H576.404V0V1H581.442V0ZM571.365 0V-1H566.327V0V1H571.365V0ZM561.288 0V-1H556.25V0V1H561.288V0ZM551.212 0V-1H546.173V0V1H551.212V0ZM541.135 0V-1H536.096V0V1H541.135V0ZM531.058 0V-1H526.019V0V1H531.058V0ZM520.981 0V-1H515.942V0V1H520.981V0ZM510.904 0V-1H505.865V0V1H510.904V0ZM500.827 0V-1H495.788V0V1H500.827V0ZM490.75 0V-1H485.711V0V1H490.75V0ZM480.673 0V-1H475.635V0V1H480.673V0ZM470.596 0V-1H465.558V0V1H470.596V0ZM460.519 0V-1H455.481V0V1H460.519V0ZM450.442 0V-1H445.404V0V1H450.442V0ZM440.365 0V-1H435.327V0V1H440.365V0ZM430.288 0V-1H425.25V0V1H430.288V0ZM420.211 0V-1H415.173V0V1H420.211V0ZM410.135 0V-1H405.096V0V1H410.135V0ZM400.058 0V-1H395.019V0V1H400.058V0ZM389.981 0V-1H384.942V0V1H389.981V0ZM379.904 0V-1H374.865V0V1H379.904V0ZM369.827 0V-1H364.789V0V1H369.827V0ZM359.75 0V-1H354.712V0V1H359.75V0ZM349.673 0V-1H344.635V0V1H349.673V0ZM339.596 0V-1H334.558V0V1H339.596V0ZM329.519 0V-1H324.481V0V1H329.519V0ZM319.442 0V-1H314.404V0V1H319.442V0ZM309.366 0V-1H304.327V0V1H309.366V0ZM299.289 0V-1H294.25V0V1H299.289V0ZM289.212 0V-1H284.173V0V1H289.212V0ZM279.135 0V-1H274.096V0V1H279.135V0ZM269.058 0V-1H264.019V0V1H269.058V0ZM258.981 0V-1H253.943V0V1H258.981V0ZM248.904 0V-1H243.866V0V1H248.904V0ZM238.827 0V-1H233.789V0V1H238.827V0ZM228.75 0V-1H223.712V0V1H228.75V0ZM218.673 0V-1H213.635V0V1H218.673V0ZM208.596 0V-1H203.558V0V1H208.596V0ZM198.52 0V-1H196V0V1H198.52V0Z" fill="#0000FF"/>
<path d="M450.5 370.839L443.853 352.846H416.819L410.26 370.839H403.878L426.923 308.794H434.014L457.059 370.839H450.5ZM425.239 330.067L418.946 347.173H441.814L435.521 330.067L430.38 315.885L425.239 330.067ZM486.344 371.459C473.935 371.459 465.957 363.571 465.957 342.653V336.98C465.957 316.239 474.023 308.174 486.344 308.174C498.753 308.174 506.73 316.062 506.73 336.98V342.653C506.73 363.393 498.664 371.459 486.344 371.459ZM486.344 365.609C494.941 365.609 500.348 360.203 500.348 342.653V336.98C500.348 319.519 494.853 314.024 486.344 314.024C477.746 314.024 472.339 319.43 472.339 336.98V342.653C472.339 360.114 477.835 365.609 486.344 365.609Z" fill="black"/>
<path d="M404.736 411.553C401.479 411.553 399.64 409.713 399.64 407.187C399.64 405.348 400.703 403.996 402.365 403.309C400.969 402.667 400.083 401.492 400.083 399.831C400.083 397.548 401.988 395.731 404.736 395.731C407.55 395.731 409.389 397.482 409.389 399.831C409.389 401.47 408.459 402.645 407.063 403.287C408.747 403.996 409.833 405.348 409.833 407.187C409.833 409.647 407.927 411.553 404.736 411.553ZM404.736 410.09C406.93 410.09 408.237 408.761 408.237 407.187C408.237 405.282 406.642 404.107 404.736 403.952C402.764 404.107 401.235 405.215 401.235 407.187C401.235 408.761 402.542 410.09 404.736 410.09ZM404.736 402.667C406.287 402.512 407.794 401.67 407.794 399.831C407.794 398.457 406.642 397.194 404.736 397.194C402.83 397.194 401.678 398.457 401.678 399.831C401.678 401.581 403.251 402.512 404.736 402.667ZM411.823 407.675V406.257L419.092 395.886H421.019V406.257H423.124V407.675H421.019V411.397H419.468V407.675H411.823ZM413.53 406.257H419.468V397.681L413.53 406.257ZM424.464 399.897V398.169L427.787 395.886H429.338V411.397H427.787V397.637L424.464 399.897ZM435.025 407.52L433.983 406.478L437.041 403.42L433.983 400.362L435.025 399.321L438.083 402.379L441.14 399.321L442.182 400.362L439.124 403.42L442.182 406.478L441.14 407.52L438.083 404.462L435.025 407.52ZM445.281 399.897V398.169L448.605 395.886H450.156V411.397H448.605V397.637L445.281 399.897ZM453.028 399.897V398.169L456.352 395.886H457.903V411.397H456.352V397.637L453.028 399.897ZM466.647 411.553C463.389 411.553 461.55 409.713 461.55 407.187C461.55 405.348 462.614 403.996 464.276 403.309C462.88 402.667 461.993 401.492 461.993 399.831C461.993 397.548 463.899 395.731 466.647 395.731C469.461 395.731 471.3 397.482 471.3 399.831C471.3 401.47 470.369 402.645 468.973 403.287C470.657 403.996 471.743 405.348 471.743 407.187C471.743 409.647 469.838 411.553 466.647 411.553ZM466.647 410.09C468.84 410.09 470.148 408.761 470.148 407.187C470.148 405.282 468.552 404.107 466.647 403.952C464.675 404.107 463.146 405.215 463.146 407.187C463.146 408.761 464.453 410.09 466.647 410.09ZM466.647 402.667C468.198 402.512 469.705 401.67 469.705 399.831C469.705 398.457 468.552 397.194 466.647 397.194C464.741 397.194 463.589 398.457 463.589 399.831C463.589 401.581 465.162 402.512 466.647 402.667ZM479.606 411.553C477.147 411.553 475.64 410.046 475.197 408.184H476.836C477.28 409.27 478.077 410.068 479.606 410.068C481.667 410.068 483.063 408.738 483.174 404.44C482.376 405.57 481.069 406.234 479.495 406.234C476.792 406.234 474.731 404.174 474.731 401.249V400.717C474.731 397.792 476.792 395.731 479.606 395.731C482.708 395.731 484.703 397.725 484.703 402.268V403.686C484.703 409.403 482.553 411.553 479.606 411.553ZM479.606 404.772C481.689 404.772 483.041 403.487 483.107 401.625V400.938C483.107 398.545 481.756 397.194 479.606 397.194C477.678 397.194 476.327 398.545 476.327 400.717V401.249C476.327 403.42 477.678 404.772 479.606 404.772ZM493.161 408.628L490.901 404.307L489.705 401.913V411.397H488.242V400.318H490.281L493.915 407.165L497.549 400.318H499.543V411.397H498.081V401.913L496.884 404.307L494.624 408.628H493.161ZM508.222 408.628L505.962 404.307L504.766 401.913V411.397H503.303V400.318H505.342L508.976 407.165L512.61 400.318H514.604V411.397H513.142V401.913L511.945 404.307L509.685 408.628H508.222Z" fill="black"/>
<g clip-path="url(#clip1_332_669)">
<path d="M1244 340L1244 680L720 680L720 340L1244 340Z" fill="white"/>
<path d="M958.793 513.044L972.288 508.058L972.288 487.783L958.793 482.863L958.793 478.077L1005.33 495.361L1005.33 500.679L958.793 517.963L958.793 513.044ZM989.372 494.098L976.542 489.378L976.542 506.529L989.372 501.809L1000.01 497.953L989.372 494.098ZM993.294 521.645L998.479 521.645L1005.33 531.617L1005.33 536.27L958.793 536.27L958.793 531.617L1000.07 531.617L993.294 521.645Z" fill="black"/>
<path d="M932.515 466.582L938.831 467.081L938.831 473.147L937.767 473.147L937.767 468.145L933.911 467.829C934.51 468.41 934.859 469.258 934.859 470.239C934.859 472.366 933.33 473.895 930.97 473.895C928.627 473.895 927.081 472.349 927.081 470.072C927.081 468.161 928.061 466.682 929.89 466.25L929.89 467.48C928.743 467.879 928.178 468.793 928.178 470.072C928.178 471.651 929.225 472.698 930.97 472.698C932.731 472.698 933.762 471.668 933.762 470.072C933.762 468.959 933.164 468.128 932.515 467.729L932.515 466.582ZM927.081 479.552C927.081 477.708 928.211 476.578 929.607 476.245L929.607 477.475C928.793 477.807 928.194 478.406 928.194 479.552C928.194 481.098 929.192 482.145 932.416 482.228C931.568 481.63 931.07 480.649 931.07 479.469C931.07 477.442 932.615 475.896 934.809 475.896L935.208 475.896C937.401 475.896 938.947 477.442 938.947 479.552C938.947 481.879 937.451 483.375 934.044 483.375L932.981 483.375C928.693 483.375 927.081 481.763 927.081 479.552ZM932.166 479.552C932.166 481.115 933.13 482.128 934.526 482.178L935.042 482.178C936.836 482.178 937.85 481.165 937.85 479.552C937.85 478.107 936.836 477.093 935.208 477.093L934.809 477.093C933.18 477.093 932.166 478.107 932.166 479.552ZM929.989 485.032L931.053 485.032L938.831 490.483L938.831 491.929L931.053 491.929L931.053 493.508L929.989 493.508L929.989 491.929L927.197 491.929L927.197 490.766L929.989 490.766L929.989 485.032ZM931.053 486.312L931.053 490.766L937.485 490.766L931.053 486.312ZM930.106 496.623L930.887 495.842L933.18 498.135L935.474 495.842L936.255 496.623L933.961 498.916L936.255 501.21L935.474 501.991L933.18 499.697L930.887 501.991L930.106 501.21L932.399 498.916L930.106 496.623ZM927.081 508.719C927.081 506.276 928.46 504.897 930.355 504.897C931.734 504.897 932.748 505.694 933.263 506.941C933.745 505.894 934.626 505.229 935.872 505.229C937.584 505.229 938.947 506.658 938.947 508.719C938.947 510.83 937.634 512.209 935.872 512.209C934.643 512.209 933.762 511.511 933.28 510.464C932.748 511.727 931.734 512.541 930.355 512.541C928.51 512.541 927.081 511.112 927.081 508.719ZM928.178 508.719C928.178 510.364 929.175 511.345 930.355 511.345C931.784 511.345 932.665 510.148 932.781 508.719C932.665 507.24 931.834 506.093 930.355 506.093C929.175 506.093 928.178 507.074 928.178 508.719ZM933.745 508.719C933.862 509.882 934.493 511.012 935.872 511.012C936.903 511.012 937.85 510.148 937.85 508.719C937.85 507.29 936.903 506.426 935.872 506.426C934.56 506.426 933.862 507.606 933.745 508.719ZM929.989 514.035L931.053 514.035L938.831 519.486L938.831 520.932L931.053 520.932L931.053 522.51L929.989 522.51L929.989 520.932L927.197 520.932L927.197 519.768L929.989 519.768L929.989 514.035ZM931.053 515.314L931.053 519.768L937.485 519.768L931.053 515.314ZM935.823 523.515L937.119 523.515L938.831 526.007L938.831 527.171L927.197 527.171L927.197 526.007L937.518 526.007L935.823 523.515ZM929.275 533.928L932.515 532.233L934.31 531.336L927.197 531.336L927.197 530.239L935.507 530.239L935.507 531.768L930.372 534.493L935.507 537.219L935.507 538.715L927.197 538.715L927.197 537.618L934.31 537.618L932.515 536.72L929.275 535.025L929.275 533.928ZM929.275 545.224L932.515 543.529L934.31 542.632L927.197 542.632L927.197 541.535L935.507 541.535L935.507 543.064L930.372 545.789L935.507 548.515L935.507 550.01L927.197 550.01L927.197 548.914L934.31 548.914L932.515 548.016L929.275 546.321L929.275 545.224Z" fill="black"/>
<line x1="1204.49" y1="592.497" x2="1204.49" y2="678.497" stroke="#0000FF" stroke-dasharray="3 3"/>
<path d="M1241.99 570L1242.49 569.981L1242.48 569.5H1241.99V570ZM1219.49 570V569.5H1219.23L1219.08 569.718L1219.49 570ZM1178.49 630L1178.08 629.718L1177.91 629.968L1178.05 630.236L1178.49 630ZM1204.99 679.5V680H1205.26L1205.4 679.786L1204.99 679.5ZM1243.99 623.5L1244.4 623.786L1244.5 623.648L1244.49 623.481L1243.99 623.5ZM1239.99 629.244L1240.4 629.529L1239.99 629.244ZM1108.99 623.5L1109.04 623.002L1108.76 622.979L1108.6 623.195L1108.99 623.5ZM1093.99 643L1093.6 642.695L1093.3 643.083L1093.68 643.39L1093.99 643ZM1139.49 679.5L1139.18 679.89L1139.32 680H1139.49V679.5ZM1190.99 636.997L1196.77 637.04L1193.92 632.018L1190.99 636.997ZM1241.99 570V569.5L1219.49 569.5V570V570.5L1241.99 570.5V570ZM1178.49 630L1178.05 630.236L1204.55 679.736L1204.99 679.5L1205.43 679.264L1178.93 629.764L1178.49 630ZM1243.99 623.5L1244.49 623.481L1242.49 569.981L1241.99 570L1241.49 570.019L1243.49 623.519L1243.99 623.5ZM1204.99 679.5L1205.4 679.786L1240.4 629.529L1239.99 629.244L1239.58 628.958L1204.58 679.214L1204.99 679.5ZM1239.99 629.244L1240.4 629.529L1244.4 623.786L1243.99 623.5L1243.58 623.214L1239.58 628.958L1239.99 629.244ZM1219.49 570L1219.02 570.164L1239.52 629.407L1239.99 629.244L1240.47 629.08L1219.97 569.836L1219.49 570ZM1219.49 570L1219.08 569.718L1178.6 628.961L1179.01 629.244L1179.42 629.526L1219.91 570.282L1219.49 570ZM1179.01 629.244L1178.6 628.961L1178.08 629.718L1178.49 630L1178.91 630.282L1179.42 629.526L1179.01 629.244ZM1179.01 629.244L1179.05 628.745L1109.04 623.002L1108.99 623.5L1108.95 623.998L1178.97 629.742L1179.01 629.244ZM1108.99 623.5L1108.6 623.195L1093.6 642.695L1093.99 643L1094.39 643.305L1109.39 623.805L1108.99 623.5ZM1093.99 643L1093.68 643.39L1139.18 679.89L1139.49 679.5L1139.81 679.11L1094.31 642.61L1093.99 643ZM1139.49 679.5V680L1204.99 680V679.5V679L1139.49 679V679.5ZM1228.49 636.997L1228.8 636.604C1225.56 634.053 1220.08 632.064 1213.92 631.414C1207.76 630.764 1200.84 631.451 1194.69 634.324L1194.91 634.777L1195.12 635.23C1201.06 632.45 1207.79 631.773 1213.82 632.409C1219.86 633.046 1225.13 634.993 1228.19 637.39L1228.49 636.997Z" fill="#0000FF"/>
</g>
<path d="M1244 340L1244.5 340L1244.5 339.5L1244 339.5L1244 340ZM1244 680L1244 681L1244.5 681L1244.5 680L1244 680ZM720 680L719.5 680L719.5 681L720 681L720 680ZM720 340L720 339.5L719.5 339.5L719.5 340L720 340ZM1244 340L1244 339.5L1241.48 339.5L1241.48 340L1241.48 340.5L1244 340.5L1244 340ZM1236.44 340L1236.44 339.5L1231.4 339.5L1231.4 340L1231.4 340.5L1236.44 340.5L1236.44 340ZM1226.37 340L1226.37 339.5L1221.33 339.5L1221.33 340L1221.33 340.5L1226.37 340.5L1226.37 340ZM1216.29 340L1216.29 339.5L1211.25 339.5L1211.25 340L1211.25 340.5L1216.29 340.5L1216.29 340ZM1206.21 340L1206.21 339.5L1201.17 339.5L1201.17 340L1201.17 340.5L1206.21 340.5L1206.21 340ZM1196.13 340L1196.13 339.5L1191.1 339.5L1191.1 340L1191.1 340.5L1196.13 340.5L1196.13 340ZM1186.06 340L1186.06 339.5L1181.02 339.5L1181.02 340L1181.02 340.5L1186.06 340.5L1186.06 340ZM1175.98 340L1175.98 339.5L1170.94 339.5L1170.94 340L1170.94 340.5L1175.98 340.5L1175.98 340ZM1165.9 340L1165.9 339.5L1160.87 339.5L1160.87 340L1160.87 340.5L1165.9 340.5L1165.9 340ZM1155.83 340L1155.83 339.5L1150.79 339.5L1150.79 340L1150.79 340.5L1155.83 340.5L1155.83 340ZM1145.75 340L1145.75 339.5L1140.71 339.5L1140.71 340L1140.71 340.5L1145.75 340.5L1145.75 340ZM1135.67 340L1135.67 339.5L1130.63 339.5L1130.63 340L1130.63 340.5L1135.67 340.5L1135.67 340ZM1125.6 340L1125.6 339.5L1120.56 339.5L1120.56 340L1120.56 340.5L1125.6 340.5L1125.6 340ZM1115.52 340L1115.52 339.5L1110.48 339.5L1110.48 340L1110.48 340.5L1115.52 340.5L1115.52 340ZM1105.44 340L1105.44 339.5L1100.4 339.5L1100.4 340L1100.4 340.5L1105.44 340.5L1105.44 340ZM1095.37 340L1095.37 339.5L1090.33 339.5L1090.33 340L1090.33 340.5L1095.37 340.5L1095.37 340ZM1085.29 340L1085.29 339.5L1080.25 339.5L1080.25 340L1080.25 340.5L1085.29 340.5L1085.29 340ZM1075.21 340L1075.21 339.5L1070.17 339.5L1070.17 340L1070.17 340.5L1075.21 340.5L1075.21 340ZM1065.13 340L1065.13 339.5L1060.1 339.5L1060.1 340L1060.1 340.5L1065.13 340.5L1065.13 340ZM1055.06 340L1055.06 339.5L1050.02 339.5L1050.02 340L1050.02 340.5L1055.06 340.5L1055.06 340ZM1044.98 340L1044.98 339.5L1039.94 339.5L1039.94 340L1039.94 340.5L1044.98 340.5L1044.98 340ZM1034.9 340L1034.9 339.5L1029.87 339.5L1029.87 340L1029.87 340.5L1034.9 340.5L1034.9 340ZM1024.83 340L1024.83 339.5L1019.79 339.5L1019.79 340L1019.79 340.5L1024.83 340.5L1024.83 340ZM1014.75 340L1014.75 339.5L1009.71 339.5L1009.71 340L1009.71 340.5L1014.75 340.5L1014.75 340ZM1004.67 340L1004.67 339.5L999.635 339.5L999.635 340L999.635 340.5L1004.67 340.5L1004.67 340ZM994.596 340L994.596 339.5L989.558 339.5L989.558 340L989.558 340.5L994.596 340.5L994.596 340ZM984.519 340L984.519 339.5L979.481 339.5L979.481 340L979.481 340.5L984.519 340.5L984.519 340ZM974.442 340L974.442 339.5L969.404 339.5L969.404 340L969.404 340.5L974.442 340.5L974.442 340ZM964.365 340L964.365 339.5L959.327 339.5L959.327 340L959.327 340.5L964.365 340.5L964.365 340ZM954.288 340L954.288 339.5L949.25 339.5L949.25 340L949.25 340.5L954.288 340.5L954.288 340ZM944.211 340L944.211 339.5L939.173 339.5L939.173 340L939.173 340.5L944.211 340.5L944.211 340ZM934.135 340L934.135 339.5L929.096 339.5L929.096 340L929.096 340.5L934.135 340.5L934.135 340ZM924.058 340L924.058 339.5L919.019 339.5L919.019 340L919.019 340.5L924.058 340.5L924.058 340ZM913.981 340L913.981 339.5L908.942 339.5L908.942 340L908.942 340.5L913.981 340.5L913.981 340ZM903.904 340L903.904 339.5L898.865 339.5L898.865 340L898.865 340.5L903.904 340.5L903.904 340ZM893.827 340L893.827 339.5L888.789 339.5L888.789 340L888.789 340.5L893.827 340.5L893.827 340ZM883.75 340L883.75 339.5L878.712 339.5L878.712 340L878.712 340.5L883.75 340.5L883.75 340ZM873.673 340L873.673 339.5L868.635 339.5L868.635 340L868.635 340.5L873.673 340.5L873.673 340ZM863.596 340L863.596 339.5L858.558 339.5L858.558 340L858.558 340.5L863.596 340.5L863.596 340ZM853.519 340L853.519 339.5L848.481 339.5L848.481 340L848.481 340.5L853.519 340.5L853.519 340ZM843.442 340L843.442 339.5L838.404 339.5L838.404 340L838.404 340.5L843.442 340.5L843.442 340ZM833.366 340L833.366 339.5L828.327 339.5L828.327 340L828.327 340.5L833.366 340.5L833.366 340ZM823.289 340L823.289 339.5L818.25 339.5L818.25 340L818.25 340.5L823.289 340.5L823.289 340ZM813.212 340L813.212 339.5L808.173 339.5L808.173 340L808.173 340.5L813.212 340.5L813.212 340ZM803.135 340L803.135 339.5L798.096 339.5L798.096 340L798.096 340.5L803.135 340.5L803.135 340ZM793.058 340L793.058 339.5L788.019 339.5L788.019 340L788.019 340.5L793.058 340.5L793.058 340ZM782.981 340L782.981 339.5L777.943 339.5L777.943 340L777.943 340.5L782.981 340.5L782.981 340ZM772.904 340L772.904 339.5L767.866 339.5L767.866 340L767.866 340.5L772.904 340.5L772.904 340ZM762.827 340L762.827 339.5L757.789 339.5L757.789 340L757.789 340.5L762.827 340.5L762.827 340ZM752.75 340L752.75 339.5L747.712 339.5L747.712 340L747.712 340.5L752.75 340.5L752.75 340ZM742.673 340L742.673 339.5L737.635 339.5L737.635 340L737.635 340.5L742.673 340.5L742.673 340ZM732.596 340L732.596 339.5L727.558 339.5L727.558 340L727.558 340.5L732.596 340.5L732.596 340ZM722.52 340L722.52 339.5L720 339.5L720 340L720 340.5L722.52 340.5L722.52 340ZM720 340L719.5 340L719.5 342.5L720 342.5L720.5 342.5L720.5 340L720 340ZM720 347.5L719.5 347.5L719.5 352.5L720 352.5L720.5 352.5L720.5 347.5L720 347.5ZM720 357.5L719.5 357.5L719.5 362.5L720 362.5L720.5 362.5L720.5 357.5L720 357.5ZM720 367.5L719.5 367.5L719.5 372.5L720 372.5L720.5 372.5L720.5 367.5L720 367.5ZM720 377.5L719.5 377.5L719.5 382.5L720 382.5L720.5 382.5L720.5 377.5L720 377.5ZM720 387.5L719.5 387.5L719.5 392.5L720 392.5L720.5 392.5L720.5 387.5L720 387.5ZM720 397.5L719.5 397.5L719.5 402.5L720 402.5L720.5 402.5L720.5 397.5L720 397.5ZM720 407.5L719.5 407.5L719.5 412.5L720 412.5L720.5 412.5L720.5 407.5L720 407.5ZM720 417.5L719.5 417.5L719.5 422.5L720 422.5L720.5 422.5L720.5 417.5L720 417.5ZM720 427.5L719.5 427.5L719.5 432.5L720 432.5L720.5 432.5L720.5 427.5L720 427.5ZM720 437.5L719.5 437.5L719.5 442.5L720 442.5L720.5 442.5L720.5 437.5L720 437.5ZM720 447.5L719.5 447.5L719.5 452.5L720 452.5L720.5 452.5L720.5 447.5L720 447.5ZM720 457.5L719.5 457.5L719.5 462.5L720 462.5L720.5 462.5L720.5 457.5L720 457.5ZM720 467.5L719.5 467.5L719.5 472.5L720 472.5L720.5 472.5L720.5 467.5L720 467.5ZM720 477.5L719.5 477.5L719.5 482.5L720 482.5L720.5 482.5L720.5 477.5L720 477.5ZM720 487.5L719.5 487.5L719.5 492.5L720 492.5L720.5 492.5L720.5 487.5L720 487.5ZM720 497.5L719.5 497.5L719.5 502.5L720 502.5L720.5 502.5L720.5 497.5L720 497.5ZM720 507.5L719.5 507.5L719.5 512.5L720 512.5L720.5 512.5L720.5 507.5L720 507.5ZM720 517.5L719.5 517.5L719.5 522.5L720 522.5L720.5 522.5L720.5 517.5L720 517.5ZM720 527.5L719.5 527.5L719.5 532.5L720 532.5L720.5 532.5L720.5 527.5L720 527.5ZM720 537.5L719.5 537.5L719.5 542.5L720 542.5L720.5 542.5L720.5 537.5L720 537.5ZM720 547.5L719.5 547.5L719.5 552.5L720 552.5L720.5 552.5L720.5 547.5L720 547.5ZM720 557.5L719.5 557.5L719.5 562.5L720 562.5L720.5 562.5L720.5 557.5L720 557.5ZM720 567.5L719.5 567.5L719.5 572.5L720 572.5L720.5 572.5L720.5 567.5L720 567.5ZM720 577.5L719.5 577.5L719.5 582.5L720 582.5L720.5 582.5L720.5 577.5L720 577.5ZM720 587.5L719.5 587.5L719.5 592.5L720 592.5L720.5 592.5L720.5 587.5L720 587.5ZM720 597.5L719.5 597.5L719.5 602.5L720 602.5L720.5 602.5L720.5 597.5L720 597.5ZM720 607.5L719.5 607.5L719.5 612.5L720 612.5L720.5 612.5L720.5 607.5L720 607.5ZM720 617.5L719.5 617.5L719.5 622.5L720 622.5L720.5 622.5L720.5 617.5L720 617.5ZM720 627.5L719.5 627.5L719.5 632.5L720 632.5L720.5 632.5L720.5 627.5L720 627.5ZM720 637.5L719.5 637.5L719.5 642.5L720 642.5L720.5 642.5L720.5 637.5L720 637.5ZM720 647.5L719.5 647.5L719.5 652.5L720 652.5L720.5 652.5L720.5 647.5L720 647.5ZM720 657.5L719.5 657.5L719.5 662.5L720 662.5L720.5 662.5L720.5 657.5L720 657.5ZM720 667.5L719.5 667.5L719.5 672.5L720 672.5L720.5 672.5L720.5 667.5L720 667.5ZM720 677.5L719.5 677.5L719.5 680L720 680L720.5 680L720.5 677.5L720 677.5ZM720 680L720 681L722.519 681L722.519 680L722.519 679L720 679L720 680ZM727.558 680L727.558 681L732.596 681L732.596 680L732.596 679L727.558 679L727.558 680ZM737.635 680L737.635 681L742.673 681L742.673 680L742.673 679L737.635 679L737.635 680ZM747.712 680L747.712 681L752.75 681L752.75 680L752.75 679L747.712 679L747.712 680ZM757.788 680L757.788 681L762.827 681L762.827 680L762.827 679L757.788 679L757.788 680ZM767.865 680L767.865 681L772.904 681L772.904 680L772.904 679L767.865 679L767.865 680ZM777.942 680L777.942 681L782.981 681L782.981 680L782.981 679L777.942 679L777.942 680ZM788.019 680L788.019 681L793.058 681L793.058 680L793.058 679L788.019 679L788.019 680ZM798.096 680L798.096 681L803.135 681L803.135 680L803.135 679L798.096 679L798.096 680ZM808.173 680L808.173 681L813.212 681L813.212 680L813.212 679L808.173 679L808.173 680ZM818.25 680L818.25 681L823.288 681L823.288 680L823.288 679L818.25 679L818.25 680ZM828.327 680L828.327 681L833.365 681L833.365 680L833.365 679L828.327 679L828.327 680ZM838.404 680L838.404 681L843.442 681L843.442 680L843.442 679L838.404 679L838.404 680ZM848.481 680L848.481 681L853.519 681L853.519 680L853.519 679L848.481 679L848.481 680ZM858.558 680L858.558 681L863.596 681L863.596 680L863.596 679L858.558 679L858.558 680ZM868.635 680L868.635 681L873.673 681L873.673 680L873.673 679L868.635 679L868.635 680ZM878.712 680L878.712 681L883.75 681L883.75 680L883.75 679L878.712 679L878.712 680ZM888.788 680L888.788 681L893.827 681L893.827 680L893.827 679L888.788 679L888.788 680ZM898.865 680L898.865 681L903.904 681L903.904 680L903.904 679L898.865 679L898.865 680ZM908.942 680L908.942 681L913.981 681L913.981 680L913.981 679L908.942 679L908.942 680ZM919.019 680L919.019 681L924.058 681L924.058 680L924.058 679L919.019 679L919.019 680ZM929.096 680L929.096 681L934.135 681L934.135 680L934.135 679L929.096 679L929.096 680ZM939.173 680L939.173 681L944.212 681L944.212 680L944.212 679L939.173 679L939.173 680ZM949.25 680L949.25 681L954.289 681L954.289 680L954.289 679L949.25 679L949.25 680ZM959.327 680L959.327 681L964.365 681L964.365 680L964.365 679L959.327 679L959.327 680ZM969.404 680L969.404 681L974.442 681L974.442 680L974.442 679L969.404 679L969.404 680ZM979.481 680L979.481 681L984.519 681L984.519 680L984.519 679L979.481 679L979.481 680ZM989.558 680L989.558 681L994.596 681L994.596 680L994.596 679L989.558 679L989.558 680ZM999.635 680L999.635 681L1004.67 681L1004.67 680L1004.67 679L999.635 679L999.635 680ZM1009.71 680L1009.71 681L1014.75 681L1014.75 680L1014.75 679L1009.71 679L1009.71 680ZM1019.79 680L1019.79 681L1024.83 681L1024.83 680L1024.83 679L1019.79 679L1019.79 680ZM1029.87 680L1029.87 681L1034.9 681L1034.9 680L1034.9 679L1029.87 679L1029.87 680ZM1039.94 680L1039.94 681L1044.98 681L1044.98 680L1044.98 679L1039.94 679L1039.94 680ZM1050.02 680L1050.02 681L1055.06 681L1055.06 680L1055.06 679L1050.02 679L1050.02 680ZM1060.1 680L1060.1 681L1065.13 681L1065.13 680L1065.13 679L1060.1 679L1060.1 680ZM1070.17 680L1070.17 681L1075.21 681L1075.21 680L1075.21 679L1070.17 679L1070.17 680ZM1080.25 680L1080.25 681L1085.29 681L1085.29 680L1085.29 679L1080.25 679L1080.25 680ZM1090.33 680L1090.33 681L1095.37 681L1095.37 680L1095.37 679L1090.33 679L1090.33 680ZM1100.4 680L1100.4 681L1105.44 681L1105.44 680L1105.44 679L1100.4 679L1100.4 680ZM1110.48 680L1110.48 681L1115.52 681L1115.52 680L1115.52 679L1110.48 679L1110.48 680ZM1120.56 680L1120.56 681L1125.6 681L1125.6 680L1125.6 679L1120.56 679L1120.56 680ZM1130.63 680L1130.63 681L1135.67 681L1135.67 680L1135.67 679L1130.63 679L1130.63 680ZM1140.71 680L1140.71 681L1145.75 681L1145.75 680L1145.75 679L1140.71 679L1140.71 680ZM1150.79 680L1150.79 681L1155.83 681L1155.83 680L1155.83 679L1150.79 679L1150.79 680ZM1160.87 680L1160.87 681L1165.9 681L1165.9 680L1165.9 679L1160.87 679L1160.87 680ZM1170.94 680L1170.94 681L1175.98 681L1175.98 680L1175.98 679L1170.94 679L1170.94 680ZM1181.02 680L1181.02 681L1186.06 681L1186.06 680L1186.06 679L1181.02 679L1181.02 680ZM1191.1 680L1191.1 681L1196.13 681L1196.13 680L1196.13 679L1191.1 679L1191.1 680ZM1201.17 680L1201.17 681L1206.21 681L1206.21 680L1206.21 679L1201.17 679L1201.17 680ZM1211.25 680L1211.25 681L1216.29 681L1216.29 680L1216.29 679L1211.25 679L1211.25 680ZM1221.33 680L1221.33 681L1226.37 681L1226.37 680L1226.37 679L1221.33 679L1221.33 680ZM1231.4 680L1231.4 681L1236.44 681L1236.44 680L1236.44 679L1231.4 679L1231.4 680ZM1241.48 680L1241.48 681L1244 681L1244 680L1244 679L1241.48 679L1241.48 680ZM1244 680L1244.5 680L1244.5 677.5L1244 677.5L1243.5 677.5L1243.5 680L1244 680ZM1244 672.5L1244.5 672.5L1244.5 667.5L1244 667.5L1243.5 667.5L1243.5 672.5L1244 672.5ZM1244 662.5L1244.5 662.5L1244.5 657.5L1244 657.5L1243.5 657.5L1243.5 662.5L1244 662.5ZM1244 652.5L1244.5 652.5L1244.5 647.5L1244 647.5L1243.5 647.5L1243.5 652.5L1244 652.5ZM1244 642.5L1244.5 642.5L1244.5 637.5L1244 637.5L1243.5 637.5L1243.5 642.5L1244 642.5ZM1244 632.5L1244.5 632.5L1244.5 627.5L1244 627.5L1243.5 627.5L1243.5 632.5L1244 632.5ZM1244 622.5L1244.5 622.5L1244.5 617.5L1244 617.5L1243.5 617.5L1243.5 622.5L1244 622.5ZM1244 612.5L1244.5 612.5L1244.5 607.5L1244 607.5L1243.5 607.5L1243.5 612.5L1244 612.5ZM1244 602.5L1244.5 602.5L1244.5 597.5L1244 597.5L1243.5 597.5L1243.5 602.5L1244 602.5ZM1244 592.5L1244.5 592.5L1244.5 587.5L1244 587.5L1243.5 587.5L1243.5 592.5L1244 592.5ZM1244 582.5L1244.5 582.5L1244.5 577.5L1244 577.5L1243.5 577.5L1243.5 582.5L1244 582.5ZM1244 572.5L1244.5 572.5L1244.5 567.5L1244 567.5L1243.5 567.5L1243.5 572.5L1244 572.5ZM1244 562.5L1244.5 562.5L1244.5 557.5L1244 557.5L1243.5 557.5L1243.5 562.5L1244 562.5ZM1244 552.5L1244.5 552.5L1244.5 547.5L1244 547.5L1243.5 547.5L1243.5 552.5L1244 552.5ZM1244 542.5L1244.5 542.5L1244.5 537.5L1244 537.5L1243.5 537.5L1243.5 542.5L1244 542.5ZM1244 532.5L1244.5 532.5L1244.5 527.5L1244 527.5L1243.5 527.5L1243.5 532.5L1244 532.5ZM1244 522.5L1244.5 522.5L1244.5 517.5L1244 517.5L1243.5 517.5L1243.5 522.5L1244 522.5ZM1244 512.5L1244.5 512.5L1244.5 507.5L1244 507.5L1243.5 507.5L1243.5 512.5L1244 512.5ZM1244 502.5L1244.5 502.5L1244.5 497.5L1244 497.5L1243.5 497.5L1243.5 502.5L1244 502.5ZM1244 492.5L1244.5 492.5L1244.5 487.5L1244 487.5L1243.5 487.5L1243.5 492.5L1244 492.5ZM1244 482.5L1244.5 482.5L1244.5 477.5L1244 477.5L1243.5 477.5L1243.5 482.5L1244 482.5ZM1244 472.5L1244.5 472.5L1244.5 467.5L1244 467.5L1243.5 467.5L1243.5 472.5L1244 472.5ZM1244 462.5L1244.5 462.5L1244.5 457.5L1244 457.5L1243.5 457.5L1243.5 462.5L1244 462.5ZM1244 452.5L1244.5 452.5L1244.5 447.5L1244 447.5L1243.5 447.5L1243.5 452.5L1244 452.5ZM1244 442.5L1244.5 442.5L1244.5 437.5L1244 437.5L1243.5 437.5L1243.5 442.5L1244 442.5ZM1244 432.5L1244.5 432.5L1244.5 427.5L1244 427.5L1243.5 427.5L1243.5 432.5L1244 432.5ZM1244 422.5L1244.5 422.5L1244.5 417.5L1244 417.5L1243.5 417.5L1243.5 422.5L1244 422.5ZM1244 412.5L1244.5 412.5L1244.5 407.5L1244 407.5L1243.5 407.5L1243.5 412.5L1244 412.5ZM1244 402.5L1244.5 402.5L1244.5 397.5L1244 397.5L1243.5 397.5L1243.5 402.5L1244 402.5ZM1244 392.5L1244.5 392.5L1244.5 387.5L1244 387.5L1243.5 387.5L1243.5 392.5L1244 392.5ZM1244 382.5L1244.5 382.5L1244.5 377.5L1244 377.5L1243.5 377.5L1243.5 382.5L1244 382.5ZM1244 372.5L1244.5 372.5L1244.5 367.5L1244 367.5L1243.5 367.5L1243.5 372.5L1244 372.5ZM1244 362.5L1244.5 362.5L1244.5 357.5L1244 357.5L1243.5 357.5L1243.5 362.5L1244 362.5ZM1244 352.5L1244.5 352.5L1244.5 347.5L1244 347.5L1243.5 347.5L1243.5 352.5L1244 352.5ZM1244 342.5L1244.5 342.5L1244.5 340L1244 340L1243.5 340L1243.5 342.5L1244 342.5Z" fill="#0000FF"/>
<g clip-path="url(#clip2_332_669)">
<path d="M720 0H983V340H720V0Z" fill="white"/>
<path d="M849.046 185.828L845.714 176.808H832.161L828.873 185.828H825.673L837.226 154.724H840.781L852.334 185.828H849.046ZM836.382 165.388L833.227 173.964H844.692L841.537 165.388L838.959 158.278L836.382 165.388ZM855.462 185.828V182.984L866.482 172.053C870.303 168.232 872.259 166.099 872.259 163.388C872.259 159.923 869.637 157.345 865.46 157.345C861.283 157.345 858.661 159.923 858.661 163.388H855.462C855.462 158.278 859.372 154.413 865.46 154.413C871.548 154.413 875.458 158.278 875.458 163.388C875.458 166.81 873.014 169.832 868.837 173.875L859.461 182.984H875.458V185.828H855.462Z" fill="black"/>
<path d="M821.377 203.837V203.128L825.011 197.943H825.975V203.128H827.027V203.837H825.975V205.698H825.199V203.837H821.377ZM822.23 203.128H825.199V198.84L822.23 203.128ZM827.863 205.698V204.989L830.611 202.264C831.563 201.311 832.051 200.779 832.051 200.103C832.051 199.239 831.397 198.596 830.356 198.596C829.314 198.596 828.661 199.239 828.661 200.103H827.863C827.863 198.829 828.838 197.865 830.356 197.865C831.874 197.865 832.849 198.829 832.849 200.103C832.849 200.956 832.239 201.71 831.198 202.718L828.86 204.989H832.849V205.698H827.863ZM836.835 205.776C835.284 205.776 834.287 204.79 834.287 202.175V201.466C834.287 198.873 835.295 197.865 836.835 197.865C838.386 197.865 839.383 198.851 839.383 201.466V202.175C839.383 204.768 838.375 205.776 836.835 205.776ZM836.835 205.045C837.91 205.045 838.586 204.369 838.586 202.175V201.466C838.586 199.283 837.899 198.596 836.835 198.596C835.76 198.596 835.084 199.272 835.084 201.466V202.175C835.084 204.358 835.771 205.045 836.835 205.045ZM841.958 203.759L841.437 203.239L842.966 201.71L841.437 200.181L841.958 199.66L843.487 201.189L845.016 199.66L845.536 200.181L844.007 201.71L845.536 203.239L845.016 203.759L843.487 202.23L841.958 203.759ZM847.584 202.153L847.917 197.943H851.961V198.652H848.626L848.415 201.222C848.803 200.823 849.368 200.591 850.022 200.591C851.44 200.591 852.459 201.61 852.459 203.183C852.459 204.745 851.429 205.776 849.911 205.776C848.637 205.776 847.651 205.122 847.363 203.903H848.182C848.448 204.668 849.058 205.045 849.911 205.045C850.963 205.045 851.661 204.347 851.661 203.183C851.661 202.009 850.975 201.322 849.911 201.322C849.169 201.322 848.615 201.721 848.349 202.153H847.584ZM856.231 205.776C855.001 205.776 854.248 205.022 854.026 204.092H854.846C855.068 204.635 855.466 205.033 856.231 205.033C857.261 205.033 857.959 204.369 858.015 202.219C857.616 202.784 856.962 203.117 856.176 203.117C854.824 203.117 853.793 202.086 853.793 200.624V200.358C853.793 198.895 854.824 197.865 856.231 197.865C857.782 197.865 858.779 198.862 858.779 201.134V201.843C858.779 204.701 857.704 205.776 856.231 205.776ZM856.231 202.385C857.272 202.385 857.948 201.743 857.981 200.812V200.469C857.981 199.272 857.306 198.596 856.231 198.596C855.267 198.596 854.591 199.272 854.591 200.358V200.624C854.591 201.71 855.267 202.385 856.231 202.385ZM859.884 203.837V203.128L863.518 197.943H864.482V203.128H865.535V203.837H864.482V205.698H863.707V203.837H859.884ZM860.737 203.128H863.707V198.84L860.737 203.128ZM869.273 204.313L868.143 202.153L867.545 200.956V205.698H866.814V200.159H867.833L869.65 203.582L871.467 200.159H872.464V205.698H871.733V200.956L871.134 202.153L870.004 204.313H869.273ZM876.804 204.313L875.674 202.153L875.075 200.956V205.698H874.344V200.159H875.363L877.18 203.582L878.997 200.159H879.995V205.698H879.263V200.956L878.665 202.153L877.535 204.313H876.804Z" fill="black"/>
<path d="M982.189 280.5H982.689V280.289L982.538 280.141L982.189 280.5ZM982.189 339.5V340H982.689V339.5H982.189ZM901.689 339.5L901.395 339.904L901.527 340H901.689V339.5ZM850.189 302L849.779 301.714L849.499 302.116L849.895 302.404L850.189 302ZM865.189 280.5V280H864.929L864.779 280.214L865.189 280.5ZM950.689 280.5V281H950.939L951.089 280.8L950.689 280.5ZM961.189 266.5L961.467 266.084L961.073 265.822L960.789 266.2L961.189 266.5ZM965.189 264L965.538 263.641L965.121 263.236L964.783 263.709L965.189 264ZM852.689 298.417L853.1 298.703H853.1L852.689 298.417ZM850.189 296.5L849.799 296.188L849.48 296.586L849.885 296.897L850.189 296.5ZM868.189 274L868.216 273.501L867.96 273.487L867.799 273.688L868.189 274ZM1000.69 281.997L995.01 283.036L998.749 287.435L1000.69 281.997ZM982.189 280.5H981.689V339.5H982.189H982.689V280.5H982.189ZM982.189 339.5V339H901.689V339.5V340H982.189V339.5ZM901.689 339.5L901.984 339.096L850.484 301.596L850.189 302L849.895 302.404L901.395 339.904L901.689 339.5ZM865.189 280.5V281H950.689V280.5V280H865.189V280.5ZM982.189 280.5L982.538 280.141L965.538 263.641L965.189 264L964.841 264.359L981.841 280.859L982.189 280.5ZM961.189 266.5L960.912 266.916L962.412 267.916L962.689 267.5L962.967 267.084L961.467 266.084L961.189 266.5ZM962.689 267.5L962.412 267.916L981.912 280.916L982.189 280.5L982.467 280.084L962.967 267.084L962.689 267.5ZM965.189 264L964.783 263.709L962.283 267.209L962.689 267.5L963.096 267.791L965.596 264.291L965.189 264ZM850.189 302L850.6 302.286L853.1 298.703L852.689 298.417L852.279 298.131L849.779 301.714L850.189 302ZM852.689 298.417L853.1 298.703L865.6 280.786L865.189 280.5L864.779 280.214L852.279 298.131L852.689 298.417ZM852.689 298.417L852.994 298.02L850.494 296.103L850.189 296.5L849.885 296.897L852.385 298.813L852.689 298.417ZM850.189 296.5L850.58 296.812L868.58 274.312L868.189 274L867.799 273.688L849.799 296.188L850.189 296.5ZM950.689 280.5L951.089 280.8L952.589 278.8L952.189 278.5L951.789 278.2L950.289 280.2L950.689 280.5ZM952.189 278.5L952.589 278.8L961.589 266.8L961.189 266.5L960.789 266.2L951.789 278.2L952.189 278.5ZM868.189 274L868.163 274.499L952.163 278.999L952.189 278.5L952.216 278.001L868.216 273.501L868.189 274ZM893.689 317.497L893.633 317.994C919.004 320.866 938.915 317.799 955.533 311.449C972.145 305.101 985.438 295.483 997.582 285.294L997.261 284.911L996.939 284.528C984.832 294.687 971.637 304.225 955.176 310.515C938.719 316.803 918.971 319.856 893.746 317L893.689 317.497Z" fill="#0000FF"/>
<line x1="950.632" y1="280.265" x2="981.632" y2="339.264" stroke="#0000FF" stroke-dasharray="3 3"/>
<path d="M951.387 279.642L915.3 328.851M907.386 339.643L915.3 328.851M901.69 339.497L915.3 328.851" stroke="#0000FF" stroke-width="0.5"/>
</g>
<path d="M720 0V-1H719.5V0H720ZM983 0H983.5V-1H983V0ZM983 340V340.5H983.5V340H983ZM720 340H719.5V340.5H720V340ZM720 0H719.5V2.5H720H720.5V0H720ZM720 7.5H719.5V12.5H720H720.5V7.5H720ZM720 17.5H719.5V22.5H720H720.5V17.5H720ZM720 27.5H719.5V32.5H720H720.5V27.5H720ZM720 37.5H719.5V42.5H720H720.5V37.5H720ZM720 47.5H719.5V52.5H720H720.5V47.5H720ZM720 57.5H719.5V62.5H720H720.5V57.5H720ZM720 67.5H719.5V72.5H720H720.5V67.5H720ZM720 77.5H719.5V82.5H720H720.5V77.5H720ZM720 87.5H719.5V92.5H720H720.5V87.5H720ZM720 97.5H719.5V102.5H720H720.5V97.5H720ZM720 107.5H719.5V112.5H720H720.5V107.5H720ZM720 117.5H719.5V122.5H720H720.5V117.5H720ZM720 127.5H719.5V132.5H720H720.5V127.5H720ZM720 137.5H719.5V142.5H720H720.5V137.5H720ZM720 147.5H719.5V152.5H720H720.5V147.5H720ZM720 157.5H719.5V162.5H720H720.5V157.5H720ZM720 167.5H719.5V172.5H720H720.5V167.5H720ZM720 177.5H719.5V182.5H720H720.5V177.5H720ZM720 187.5H719.5V192.5H720H720.5V187.5H720ZM720 197.5H719.5V202.5H720H720.5V197.5H720ZM720 207.5H719.5V212.5H720H720.5V207.5H720ZM720 217.5H719.5V222.5H720H720.5V217.5H720ZM720 227.5H719.5V232.5H720H720.5V227.5H720ZM720 237.5H719.5V242.5H720H720.5V237.5H720ZM720 247.5H719.5V252.5H720H720.5V247.5H720ZM720 257.5H719.5V262.5H720H720.5V257.5H720ZM720 267.5H719.5V272.5H720H720.5V267.5H720ZM720 277.5H719.5V282.5H720H720.5V277.5H720ZM720 287.5H719.5V292.5H720H720.5V287.5H720ZM720 297.5H719.5V302.5H720H720.5V297.5H720ZM720 307.5H719.5V312.5H720H720.5V307.5H720ZM720 317.5H719.5V322.5H720H720.5V317.5H720ZM720 327.5H719.5V332.5H720H720.5V327.5H720ZM720 337.5H719.5V340H720H720.5V337.5H720ZM720 340V340.5H722.529V340V339.5H720V340ZM727.587 340V340.5H732.644V340V339.5H727.587V340ZM737.702 340V340.5H742.76V340V339.5H737.702V340ZM747.817 340V340.5H752.875V340V339.5H747.817V340ZM757.933 340V340.5H762.99V340V339.5H757.933V340ZM768.048 340V340.5H773.106V340V339.5H768.048V340ZM778.163 340V340.5H783.221V340V339.5H778.163V340ZM788.279 340V340.5H793.337V340V339.5H788.279V340ZM798.394 340V340.5H803.452V340V339.5H798.394V340ZM808.51 340V340.5H813.567V340V339.5H808.51V340ZM818.625 340V340.5H823.683V340V339.5H818.625V340ZM828.74 340V340.5H833.798V340V339.5H828.74V340ZM838.856 340V340.5H843.913V340V339.5H838.856V340ZM848.971 340V340.5H854.029V340V339.5H848.971V340ZM859.087 340V340.5H864.144V340V339.5H859.087V340ZM869.202 340V340.5H874.26V340V339.5H869.202V340ZM879.317 340V340.5H884.375V340V339.5H879.317V340ZM889.433 340V340.5H894.49V340V339.5H889.433V340ZM899.548 340V340.5H904.606V340V339.5H899.548V340ZM909.663 340V340.5H914.721V340V339.5H909.663V340ZM919.779 340V340.5H924.837V340V339.5H919.779V340ZM929.894 340V340.5H934.952V340V339.5H929.894V340ZM940.01 340V340.5H945.067V340V339.5H940.01V340ZM950.125 340V340.5H955.183V340V339.5H950.125V340ZM960.24 340V340.5H965.298V340V339.5H960.24V340ZM970.356 340V340.5H975.414V340V339.5H970.356V340ZM980.471 340V340.5H983V340V339.5H980.471V340ZM983 340H983.5V337.5H983H982.5V340H983ZM983 332.5H983.5V327.5H983H982.5V332.5H983ZM983 322.5H983.5V317.5H983H982.5V322.5H983ZM983 312.5H983.5V307.5H983H982.5V312.5H983ZM983 302.5H983.5V297.5H983H982.5V302.5H983ZM983 292.5H983.5V287.5H983H982.5V292.5H983ZM983 282.5H983.5V277.5H983H982.5V282.5H983ZM983 272.5H983.5V267.5H983H982.5V272.5H983ZM983 262.5H983.5V257.5H983H982.5V262.5H983ZM983 252.5H983.5V247.5H983H982.5V252.5H983ZM983 242.5H983.5V237.5H983H982.5V242.5H983ZM983 232.5H983.5V227.5H983H982.5V232.5H983ZM983 222.5H983.5V217.5H983H982.5V222.5H983ZM983 212.5H983.5V207.5H983H982.5V212.5H983ZM983 202.5H983.5V197.5H983H982.5V202.5H983ZM983 192.5H983.5V187.5H983H982.5V192.5H983ZM983 182.5H983.5V177.5H983H982.5V182.5H983ZM983 172.5H983.5V167.5H983H982.5V172.5H983ZM983 162.5H983.5V157.5H983H982.5V162.5H983ZM983 152.5H983.5V147.5H983H982.5V152.5H983ZM983 142.5H983.5V137.5H983H982.5V142.5H983ZM983 132.5H983.5V127.5H983H982.5V132.5H983ZM983 122.5H983.5V117.5H983H982.5V122.5H983ZM983 112.5H983.5V107.5H983H982.5V112.5H983ZM983 102.5H983.5V97.5H983H982.5V102.5H983ZM983 92.5H983.5V87.5H983H982.5V92.5H983ZM983 82.5H983.5V77.5H983H982.5V82.5H983ZM983 72.5H983.5V67.5H983H982.5V72.5H983ZM983 62.5H983.5V57.5H983H982.5V62.5H983ZM983 52.5H983.5V47.5H983H982.5V52.5H983ZM983 42.5H983.5V37.5H983H982.5V42.5H983ZM983 32.5H983.5V27.5H983H982.5V32.5H983ZM983 22.5H983.5V17.5H983H982.5V22.5H983ZM983 12.5H983.5V7.50001H983H982.5V12.5H983ZM983 2.5H983.5V0H983H982.5V2.5H983ZM983 0V-1H980.471V0V1H983V0ZM975.413 0V-1H970.356V0V1H975.413V0ZM965.298 0V-1H960.24V0V1H965.298V0ZM955.183 0V-1H950.125V0V1H955.183V0ZM945.067 0V-1H940.01V0V1H945.067V0ZM934.952 0V-1H929.894V0V1H934.952V0ZM924.837 0V-1H919.779V0V1H924.837V0ZM914.721 0V-1H909.663V0V1H914.721V0ZM904.606 0V-1H899.548V0V1H904.606V0ZM894.49 0V-1H889.433V0V1H894.49V0ZM884.375 0V-1H879.317V0V1H884.375V0ZM874.26 0V-1H869.202V0V1H874.26V0ZM864.144 0V-1H859.087V0V1H864.144V0ZM854.029 0V-1H848.971V0V1H854.029V0ZM843.913 0V-1H838.856V0V1H843.913V0ZM833.798 0V-1H828.74V0V1H833.798V0ZM823.683 0V-1H818.625V0V1H823.683V0ZM813.567 0V-1H808.51V0V1H813.567V0ZM803.452 0V-1H798.394V0V1H803.452V0ZM793.337 0V-1H788.279V0V1H793.337V0ZM783.221 0V-1H778.163V0V1H783.221V0ZM773.106 0V-1H768.048V0V1H773.106V0ZM762.99 0V-1H757.933V0V1H762.99V0ZM752.875 0V-1H747.817V0V1H752.875V0ZM742.76 0V-1H737.702V0V1H742.76V0ZM732.644 0V-1H727.586V0V1H732.644V0ZM722.529 0V-1H720V0V1H722.529V0Z" fill="#0000FF"/>
<path d="M1244 0L1244 169L983 169L983 -1.14087e-05L1244 0Z" fill="white"/>
<path d="M1244 0L1244.5 2.18557e-08L1244.5 -1L1244 -1L1244 0ZM1244 169L1244 169.5L1244.5 169.5L1244.5 169L1244 169ZM983 169L982.5 169L982.5 169.5L983 169.5L983 169ZM983 -1.14087e-05L983 -1.00001L982.5 -1.00001L982.5 -1.14305e-05L983 -1.14087e-05ZM1244 0L1244 -1L1241.49 -1L1241.49 -1.09699e-07L1241.49 1L1244 1L1244 0ZM1236.47 -3.29096e-07L1236.47 -1L1231.45 -1L1231.45 -5.48494e-07L1231.45 0.999999L1236.47 1L1236.47 -3.29096e-07ZM1226.43 -7.67891e-07L1226.43 -1L1221.41 -1L1221.41 -9.87289e-07L1221.41 0.999999L1226.43 0.999999L1226.43 -7.67891e-07ZM1216.39 -1.20669e-06L1216.39 -1L1211.38 -1L1211.38 -1.42608e-06L1211.38 0.999999L1216.39 0.999999L1216.39 -1.20669e-06ZM1206.36 -1.64548e-06L1206.36 -1L1201.34 -1L1201.34 -1.86488e-06L1201.34 0.999998L1206.36 0.999998L1206.36 -1.64548e-06ZM1196.32 -2.08428e-06L1196.32 -1L1191.3 -1L1191.3 -2.30367e-06L1191.3 0.999998L1196.32 0.999998L1196.32 -2.08428e-06ZM1186.28 -2.52307e-06L1186.28 -1L1181.26 -1L1181.26 -2.74247e-06L1181.26 0.999997L1186.28 0.999997L1186.28 -2.52307e-06ZM1176.24 -2.96187e-06L1176.24 -1L1171.22 -1L1171.22 -3.18126e-06L1171.22 0.999997L1176.24 0.999997L1176.24 -2.96187e-06ZM1166.2 -3.40066e-06L1166.2 -1L1161.18 -1L1161.18 -3.62006e-06L1161.18 0.999996L1166.2 0.999997L1166.2 -3.40066e-06ZM1156.16 -3.83946e-06L1156.16 -1L1151.14 -1L1151.14 -4.05885e-06L1151.14 0.999996L1156.16 0.999996L1156.16 -3.83946e-06ZM1146.12 -4.27825e-06L1146.12 -1L1141.11 -1L1141.11 -4.49765e-06L1141.11 0.999996L1146.12 0.999996L1146.12 -4.27825e-06ZM1136.09 -4.71705e-06L1136.09 -1L1131.07 -1L1131.07 -4.93645e-06L1131.07 0.999995L1136.09 0.999995L1136.09 -4.71705e-06ZM1126.05 -5.15584e-06L1126.05 -1.00001L1121.03 -1.00001L1121.03 -5.37524e-06L1121.03 0.999995L1126.05 0.999995L1126.05 -5.15584e-06ZM1116.01 -5.59464e-06L1116.01 -1.00001L1110.99 -1.00001L1110.99 -5.81404e-06L1110.99 0.999994L1116.01 0.999994L1116.01 -5.59464e-06ZM1105.97 -6.03343e-06L1105.97 -1.00001L1100.95 -1.00001L1100.95 -6.25283e-06L1100.95 0.999994L1105.97 0.999994L1105.97 -6.03343e-06ZM1095.93 -6.47223e-06L1095.93 -1.00001L1090.91 -1.00001L1090.91 -6.69163e-06L1090.91 0.999993L1095.93 0.999994L1095.93 -6.47223e-06ZM1085.89 -6.91102e-06L1085.89 -1.00001L1080.88 -1.00001L1080.88 -7.13042e-06L1080.87 0.999993L1085.89 0.999993L1085.89 -6.91102e-06ZM1075.86 -7.34982e-06L1075.86 -1.00001L1070.84 -1.00001L1070.84 -7.56921e-06L1070.84 0.999992L1075.86 0.999993L1075.86 -7.34982e-06ZM1065.82 -7.78861e-06L1065.82 -1.00001L1060.8 -1.00001L1060.8 -8.00801e-06L1060.8 0.999992L1065.82 0.999992L1065.82 -7.78861e-06ZM1055.78 -8.22741e-06L1055.78 -1.00001L1050.76 -1.00001L1050.76 -8.4468e-06L1050.76 0.999992L1055.78 0.999992L1055.78 -8.22741e-06ZM1045.74 -8.6662e-06L1045.74 -1.00001L1040.72 -1.00001L1040.72 -8.8856e-06L1040.72 0.999991L1045.74 0.999991L1045.74 -8.6662e-06ZM1035.7 -9.105e-06L1035.7 -1.00001L1030.68 -1.00001L1030.68 -9.32439e-06L1030.68 0.999991L1035.7 0.999991L1035.7 -9.105e-06ZM1025.66 -9.54379e-06L1025.66 -1.00001L1020.64 -1.00001L1020.64 -9.76319e-06L1020.64 0.99999L1025.66 0.99999L1025.66 -9.54379e-06ZM1015.63 -9.98259e-06L1015.63 -1.00001L1010.61 -1.00001L1010.61 -1.0202e-05L1010.61 0.99999L1015.63 0.99999L1015.63 -9.98259e-06ZM1005.59 -1.04214e-05L1005.59 -1.00001L1000.57 -1.00001L1000.57 -1.06408e-05L1000.57 0.999989L1005.59 0.99999L1005.59 -1.04214e-05ZM995.548 -1.08602e-05L995.548 -1.00001L990.529 -1.00001L990.529 -1.10796e-05L990.529 0.999989L995.548 0.999989L995.548 -1.08602e-05ZM985.51 -1.1299e-05L985.51 -1.00001L983 -1.00001L983 -1.14087e-05L983 0.999989L985.51 0.999989L985.51 -1.1299e-05ZM983 -1.14087e-05L982.5 -1.14305e-05L982.5 2.48528L983 2.48528L983.5 2.48528L983.5 -1.13868e-05L983 -1.14087e-05ZM983 7.45587L982.5 7.45587L982.5 12.4265L983 12.4265L983.5 12.4265L983.5 7.45587L983 7.45587ZM983 17.397L982.5 17.397L982.5 22.3676L983 22.3676L983.5 22.3676L983.5 17.397L983 17.397ZM983 27.3382L982.5 27.3382L982.5 32.3088L983 32.3088L983.5 32.3088L983.5 27.3382L983 27.3382ZM983 37.2794L982.5 37.2794L982.5 42.25L983 42.25L983.5 42.25L983.5 37.2794L983 37.2794ZM983 47.2206L982.5 47.2206L982.5 52.1912L983 52.1912L983.5 52.1912L983.5 47.2206L983 47.2206ZM983 57.1618L982.5 57.1618L982.5 62.1323L983 62.1323L983.5 62.1323L983.5 57.1618L983 57.1618ZM983 67.1029L982.5 67.1029L982.5 72.0735L983 72.0735L983.5 72.0735L983.5 67.1029L983 67.1029ZM983 77.0441L982.5 77.0441L982.5 82.0147L983 82.0147L983.5 82.0147L983.5 77.0441L983 77.0441ZM983 86.9853L982.5 86.9853L982.5 91.9559L983 91.9559L983.5 91.9559L983.5 86.9853L983 86.9853ZM983 96.9265L982.5 96.9265L982.5 101.897L983 101.897L983.5 101.897L983.5 96.9265L983 96.9265ZM983 106.868L982.5 106.868L982.5 111.838L983 111.838L983.5 111.838L983.5 106.868L983 106.868ZM983 116.809L982.5 116.809L982.5 121.779L983 121.779L983.5 121.779L983.5 116.809L983 116.809ZM983 126.75L982.5 126.75L982.5 131.721L983 131.721L983.5 131.721L983.5 126.75L983 126.75ZM983 136.691L982.5 136.691L982.5 141.662L983 141.662L983.5 141.662L983.5 136.691L983 136.691ZM983 146.632L982.5 146.632L982.5 151.603L983 151.603L983.5 151.603L983.5 146.632L983 146.632ZM983 156.574L982.5 156.574L982.5 161.544L983 161.544L983.5 161.544L983.5 156.574L983 156.574ZM983 166.515L982.5 166.515L982.5 169L983 169L983.5 169L983.5 166.515L983 166.515ZM983 169L983 169.5L985.51 169.5L985.51 169L985.51 168.5L983 168.5L983 169ZM990.529 169L990.529 169.5L995.548 169.5L995.548 169L995.548 168.5L990.529 168.5L990.529 169ZM1000.57 169L1000.57 169.5L1005.59 169.5L1005.59 169L1005.59 168.5L1000.57 168.5L1000.57 169ZM1010.61 169L1010.61 169.5L1015.62 169.5L1015.62 169L1015.62 168.5L1010.61 168.5L1010.61 169ZM1020.64 169L1020.64 169.5L1025.66 169.5L1025.66 169L1025.66 168.5L1020.64 168.5L1020.64 169ZM1030.68 169L1030.68 169.5L1035.7 169.5L1035.7 169L1035.7 168.5L1030.68 168.5L1030.68 169ZM1040.72 169L1040.72 169.5L1045.74 169.5L1045.74 169L1045.74 168.5L1040.72 168.5L1040.72 169ZM1050.76 169L1050.76 169.5L1055.78 169.5L1055.78 169L1055.78 168.5L1050.76 168.5L1050.76 169ZM1060.8 169L1060.8 169.5L1065.82 169.5L1065.82 169L1065.82 168.5L1060.8 168.5L1060.8 169ZM1070.84 169L1070.84 169.5L1075.86 169.5L1075.86 169L1075.86 168.5L1070.84 168.5L1070.84 169ZM1080.88 169L1080.88 169.5L1085.89 169.5L1085.89 169L1085.89 168.5L1080.88 168.5L1080.88 169ZM1090.91 169L1090.91 169.5L1095.93 169.5L1095.93 169L1095.93 168.5L1090.91 168.5L1090.91 169ZM1100.95 169L1100.95 169.5L1105.97 169.5L1105.97 169L1105.97 168.5L1100.95 168.5L1100.95 169ZM1110.99 169L1110.99 169.5L1116.01 169.5L1116.01 169L1116.01 168.5L1110.99 168.5L1110.99 169ZM1121.03 169L1121.03 169.5L1126.05 169.5L1126.05 169L1126.05 168.5L1121.03 168.5L1121.03 169ZM1131.07 169L1131.07 169.5L1136.09 169.5L1136.09 169L1136.09 168.5L1131.07 168.5L1131.07 169ZM1141.11 169L1141.11 169.5L1146.12 169.5L1146.12 169L1146.12 168.5L1141.11 168.5L1141.11 169ZM1151.14 169L1151.14 169.5L1156.16 169.5L1156.16 169L1156.16 168.5L1151.14 168.5L1151.14 169ZM1161.18 169L1161.18 169.5L1166.2 169.5L1166.2 169L1166.2 168.5L1161.18 168.5L1161.18 169ZM1171.22 169L1171.22 169.5L1176.24 169.5L1176.24 169L1176.24 168.5L1171.22 168.5L1171.22 169ZM1181.26 169L1181.26 169.5L1186.28 169.5L1186.28 169L1186.28 168.5L1181.26 168.5L1181.26 169ZM1191.3 169L1191.3 169.5L1196.32 169.5L1196.32 169L1196.32 168.5L1191.3 168.5L1191.3 169ZM1201.34 169L1201.34 169.5L1206.36 169.5L1206.36 169L1206.36 168.5L1201.34 168.5L1201.34 169ZM1211.37 169L1211.37 169.5L1216.39 169.5L1216.39 169L1216.39 168.5L1211.37 168.5L1211.37 169ZM1221.41 169L1221.41 169.5L1226.43 169.5L1226.43 169L1226.43 168.5L1221.41 168.5L1221.41 169ZM1231.45 169L1231.45 169.5L1236.47 169.5L1236.47 169L1236.47 168.5L1231.45 168.5L1231.45 169ZM1241.49 169L1241.49 169.5L1244 169.5L1244 169L1244 168.5L1241.49 168.5L1241.49 169ZM1244 169L1244.5 169L1244.5 166.515L1244 166.515L1243.5 166.515L1243.5 169L1244 169ZM1244 161.544L1244.5 161.544L1244.5 156.574L1244 156.574L1243.5 156.574L1243.5 161.544L1244 161.544ZM1244 151.603L1244.5 151.603L1244.5 146.632L1244 146.632L1243.5 146.632L1243.5 151.603L1244 151.603ZM1244 141.662L1244.5 141.662L1244.5 136.691L1244 136.691L1243.5 136.691L1243.5 141.662L1244 141.662ZM1244 131.721L1244.5 131.721L1244.5 126.75L1244 126.75L1243.5 126.75L1243.5 131.721L1244 131.721ZM1244 121.779L1244.5 121.779L1244.5 116.809L1244 116.809L1243.5 116.809L1243.5 121.779L1244 121.779ZM1244 111.838L1244.5 111.838L1244.5 106.868L1244 106.868L1243.5 106.868L1243.5 111.838L1244 111.838ZM1244 101.897L1244.5 101.897L1244.5 96.9265L1244 96.9265L1243.5 96.9265L1243.5 101.897L1244 101.897ZM1244 91.9559L1244.5 91.9559L1244.5 86.9853L1244 86.9853L1243.5 86.9853L1243.5 91.9559L1244 91.9559ZM1244 82.0147L1244.5 82.0147L1244.5 77.0441L1244 77.0441L1243.5 77.0441L1243.5 82.0147L1244 82.0147ZM1244 72.0735L1244.5 72.0735L1244.5 67.1029L1244 67.1029L1243.5 67.1029L1243.5 72.0735L1244 72.0735ZM1244 62.1324L1244.5 62.1324L1244.5 57.1618L1244 57.1618L1243.5 57.1618L1243.5 62.1324L1244 62.1324ZM1244 52.1912L1244.5 52.1912L1244.5 47.2206L1244 47.2206L1243.5 47.2206L1243.5 52.1912L1244 52.1912ZM1244 42.25L1244.5 42.25L1244.5 37.2794L1244 37.2794L1243.5 37.2794L1243.5 42.25L1244 42.25ZM1244 32.3088L1244.5 32.3088L1244.5 27.3382L1244 27.3382L1243.5 27.3382L1243.5 32.3088L1244 32.3088ZM1244 22.3677L1244.5 22.3677L1244.5 17.3971L1244 17.3971L1243.5 17.3971L1243.5 22.3677L1244 22.3677ZM1244 12.4265L1244.5 12.4265L1244.5 7.45592L1244 7.45592L1243.5 7.45592L1243.5 12.4265L1244 12.4265ZM1244 2.48534L1244.5 2.48534L1244.5 2.18557e-08L1244 0L1243.5 -2.18557e-08L1243.5 2.48534L1244 2.48534Z" fill="#0000FF"/>
<path d="M1101.9 81.7137L1108.64 79.2208L1108.64 69.0832L1101.9 66.6235L1101.9 64.2304L1125.16 72.8723L1125.16 75.5314L1101.9 84.1733L1101.9 81.7137ZM1117.19 72.2408L1110.77 69.8809L1110.77 78.4564L1117.19 76.0964L1122.5 74.1686L1117.19 72.2408ZM1101.66 94.4902C1101.66 89.8368 1104.46 87.0448 1109.04 86.8454L1109.04 89.2385C1105.72 89.438 1103.86 91.2661 1103.86 94.4902C1103.86 97.9137 1105.69 99.7418 1108.38 99.7418C1110.97 99.7418 1112.8 97.9137 1112.8 94.7893L1112.8 91.6649L1114.93 91.6649L1114.93 94.7893C1114.93 97.5481 1116.62 99.2433 1119.05 99.2433C1121.54 99.2433 1123.2 97.5814 1123.2 94.4902C1123.2 91.7314 1121.47 90.0363 1118.68 89.7371L1118.68 87.344C1122.74 87.5434 1125.4 90.2025 1125.4 94.4902C1125.4 99.0438 1122.8 101.636 1119.05 101.636C1116.79 101.636 1114.89 100.506 1113.9 98.4788C1112.9 100.839 1110.84 102.135 1108.38 102.135C1104.42 102.135 1101.66 99.3762 1101.66 94.4902Z" fill="black"/>
<path d="M1085.8 61.034L1086.38 61.034L1088.59 63.2665C1089.37 64.0407 1089.8 64.4368 1090.35 64.4368C1091.05 64.4368 1091.57 63.9056 1091.57 63.0595C1091.57 62.2133 1091.05 61.6821 1090.35 61.6821L1090.35 61.034C1091.38 61.034 1092.17 61.8262 1092.17 63.0595C1092.17 64.2927 1091.38 65.0849 1090.35 65.0849C1089.65 65.0849 1089.04 64.5898 1088.22 63.7436L1086.38 61.8442L1086.38 65.0849L1085.8 65.0849L1085.8 61.034ZM1085.74 68.1889C1085.74 67.1896 1086.35 66.5775 1087.11 66.3975L1087.11 67.0636C1086.66 67.2436 1086.34 67.5677 1086.34 68.1889C1086.34 69.026 1086.88 69.5932 1088.63 69.6382C1088.17 69.3141 1087.9 68.783 1087.9 68.1438C1087.9 67.0456 1088.74 66.2084 1089.92 66.2084L1090.14 66.2084C1091.33 66.2084 1092.17 67.0456 1092.17 68.1889C1092.17 69.4491 1091.36 70.2593 1089.51 70.2593L1088.93 70.2593C1086.61 70.2593 1085.74 69.3861 1085.74 68.1889ZM1088.49 68.1889C1088.49 69.0351 1089.01 69.5842 1089.77 69.6112L1090.05 69.6112C1091.02 69.6112 1091.57 69.0621 1091.57 68.1889C1091.57 67.4057 1091.02 66.8566 1090.14 66.8566L1089.92 66.8566C1089.04 66.8566 1088.49 67.4057 1088.49 68.1889ZM1091.53 71.1121L1092.1 71.1121L1092.1 75.073L1091.53 75.073L1085.8 72.7234L1085.8 72.0573L1091.53 74.4158L1091.53 71.1121ZM1087.38 76.6705L1087.8 76.2474L1089.04 77.4897L1090.28 76.2474L1090.71 76.6705L1089.46 77.9128L1090.71 79.1551L1090.28 79.5782L1089.04 78.3359L1087.8 79.5782L1087.38 79.1551L1088.62 77.9128L1087.38 76.6705ZM1087.31 80.7921L1087.89 80.7921L1092.1 83.7447L1092.1 84.5279L1087.89 84.5279L1087.89 85.3831L1087.31 85.3831L1087.31 84.5279L1085.8 84.5279L1085.8 83.8978L1087.31 83.8978L1087.31 80.7921ZM1087.89 81.4852L1087.89 83.8978L1091.37 83.8978L1087.89 81.4852ZM1085.8 86.0621L1086.38 86.0621L1088.59 88.2946C1089.37 89.0688 1089.8 89.4649 1090.35 89.4649C1091.05 89.4649 1091.57 88.9338 1091.57 88.0876C1091.57 87.2414 1091.05 86.7103 1090.35 86.7103L1090.35 86.0621C1091.38 86.0621 1092.17 86.8543 1092.17 88.0876C1092.17 89.3209 1091.38 90.113 1090.35 90.113C1089.65 90.113 1089.04 89.6179 1088.22 88.7717L1086.38 86.8723L1086.38 90.113L1085.8 90.113L1085.8 86.0621ZM1085.74 93.352C1085.74 92.0917 1086.54 91.2815 1088.66 91.2815L1089.24 91.2815C1091.35 91.2815 1092.17 92.1007 1092.17 93.352C1092.17 94.6123 1091.36 95.4225 1089.24 95.4225L1088.66 95.4225C1086.56 95.4225 1085.74 94.6033 1085.74 93.352ZM1086.33 93.352C1086.33 94.2252 1086.88 94.7743 1088.66 94.7743L1089.24 94.7743C1091.01 94.7743 1091.57 94.2162 1091.57 93.352C1091.57 92.4788 1091.02 91.9297 1089.24 91.9297L1088.66 91.9297C1086.89 91.9297 1086.33 92.4878 1086.33 93.352ZM1086.93 98.8644L1088.68 97.9462L1089.65 97.4601L1085.8 97.4601L1085.8 96.866L1090.3 96.866L1090.3 97.6942L1087.52 99.1705L1090.3 100.647L1090.3 101.457L1085.8 101.457L1085.8 100.863L1089.65 100.863L1088.68 100.377L1086.93 99.4586L1086.93 98.8644ZM1086.93 104.983L1088.68 104.065L1089.65 103.579L1085.8 103.579L1085.8 102.985L1090.3 102.985L1090.3 103.813L1087.52 105.289L1090.3 106.765L1090.3 107.576L1085.8 107.576L1085.8 106.981L1089.65 106.981L1088.68 106.495L1086.93 105.577L1086.93 104.983Z" fill="black"/>
<rect x="983" y="169" width="129" height="171" fill="white"/>
<rect x="983" y="169" width="129" height="171" stroke="#0000FF" stroke-dasharray="5 5"/>
<path d="M1047.14 263.053L1045.48 258.554H1038.72L1037.08 263.053H1035.49L1041.25 247.542H1043.02L1048.78 263.053H1047.14ZM1040.83 252.86L1039.25 257.136H1044.97L1043.4 252.86L1042.11 249.314L1040.83 252.86ZM1049.9 259.33V257.912L1057.17 247.542H1059.1V257.912H1061.2V259.33H1059.1V263.053H1057.54V259.33H1049.9ZM1051.61 257.912H1057.54V249.336L1051.61 257.912Z" fill="black"/>
<path d="M1031.09 273.431V272.987L1032.81 271.284C1033.4 270.689 1033.71 270.356 1033.71 269.934C1033.71 269.394 1033.3 268.992 1032.65 268.992C1032 268.992 1031.59 269.394 1031.59 269.934H1031.09C1031.09 269.137 1031.7 268.535 1032.65 268.535C1033.6 268.535 1034.21 269.137 1034.21 269.934C1034.21 270.467 1033.83 270.938 1033.18 271.568L1031.71 272.987H1034.21V273.431H1031.09ZM1034.79 269.837V269.297L1035.83 268.583H1036.32V273.431H1035.83V269.13L1034.79 269.837ZM1039.12 273.479C1038.15 273.479 1037.53 272.863 1037.53 271.229V270.785C1037.53 269.165 1038.16 268.535 1039.12 268.535C1040.09 268.535 1040.71 269.151 1040.71 270.785V271.229C1040.71 272.849 1040.08 273.479 1039.12 273.479ZM1039.12 273.022C1039.79 273.022 1040.21 272.6 1040.21 271.229V270.785C1040.21 269.421 1039.78 268.992 1039.12 268.992C1038.45 268.992 1038.03 269.414 1038.03 270.785V271.229C1038.03 272.593 1038.45 273.022 1039.12 273.022ZM1042.32 272.219L1042 271.893L1042.95 270.938L1042 269.982L1042.32 269.657L1043.28 270.612L1044.23 269.657L1044.56 269.982L1043.6 270.938L1044.56 271.893L1044.23 272.219L1043.28 271.263L1042.32 272.219ZM1045.63 273.431V272.987L1047.35 271.284C1047.94 270.689 1048.25 270.356 1048.25 269.934C1048.25 269.394 1047.84 268.992 1047.19 268.992C1046.54 268.992 1046.13 269.394 1046.13 269.934H1045.63C1045.63 269.137 1046.24 268.535 1047.19 268.535C1048.14 268.535 1048.75 269.137 1048.75 269.934C1048.75 270.467 1048.37 270.938 1047.71 271.568L1046.25 272.987H1048.75V273.431H1045.63ZM1051.13 273.479C1050.37 273.479 1049.89 273.008 1049.76 272.427H1050.27C1050.41 272.766 1050.66 273.015 1051.13 273.015C1051.78 273.015 1052.21 272.6 1052.25 271.256C1052 271.609 1051.59 271.817 1051.1 271.817C1050.25 271.817 1049.61 271.173 1049.61 270.259V270.093C1049.61 269.179 1050.25 268.535 1051.13 268.535C1052.1 268.535 1052.73 269.158 1052.73 270.578V271.021C1052.73 272.807 1052.05 273.479 1051.13 273.479ZM1051.13 271.36C1051.78 271.36 1052.21 270.959 1052.23 270.377V270.162C1052.23 269.414 1051.81 268.992 1051.13 268.992C1050.53 268.992 1050.11 269.414 1050.11 270.093V270.259C1050.11 270.938 1050.53 271.36 1051.13 271.36ZM1053.38 269.027V268.583H1056.43V269.027L1054.62 273.431H1054.11L1055.92 269.027H1053.38ZM1058.7 272.565L1057.99 271.215L1057.62 270.467V273.431H1057.16V269.968H1057.8L1058.93 272.108L1060.07 269.968H1060.69V273.431H1060.23V270.467L1059.86 271.215L1059.15 272.565H1058.7ZM1063.4 272.565L1062.7 271.215L1062.32 270.467V273.431H1061.87V269.968H1062.5L1063.64 272.108L1064.77 269.968H1065.4V273.431H1064.94V270.467L1064.57 271.215L1063.86 272.565H1063.4Z" fill="black"/>
<rect x="1244" y="169" width="86" height="132" transform="rotate(90 1244 169)" fill="white"/>
<rect x="1244" y="169" width="86" height="132" transform="rotate(90 1244 169)" stroke="#0000FF" stroke-dasharray="5 5"/>
<path d="M1171.76 210.011L1175.13 208.764L1175.13 203.695L1171.76 202.466L1171.76 201.269L1183.39 205.59L1183.39 206.92L1171.76 211.24L1171.76 210.011ZM1179.4 205.274L1176.19 204.094L1176.19 208.382L1179.4 207.202L1182.06 206.238L1179.4 205.274ZM1177.07 212.909L1183.39 213.407L1183.39 219.473L1182.33 219.473L1182.33 214.471L1178.47 214.155C1179.07 214.737 1179.42 215.585 1179.42 216.565C1179.42 218.692 1177.89 220.221 1175.53 220.221C1173.19 220.221 1171.64 218.676 1171.64 216.399C1171.64 214.488 1172.62 213.009 1174.45 212.577L1174.45 213.806C1173.3 214.205 1172.74 215.119 1172.74 216.399C1172.74 217.978 1173.78 219.025 1175.53 219.025C1177.29 219.025 1178.32 217.994 1178.32 216.399C1178.32 215.285 1177.72 214.454 1177.07 214.056L1177.07 212.909Z" fill="black"/>
<path d="M1166.37 197.557L1166.81 197.557L1167.38 198.388L1167.38 198.776L1163.5 198.776L1163.5 198.388L1166.94 198.388L1166.37 197.557ZM1164.43 199.466L1164.78 199.466L1167.38 201.283L1167.38 201.765L1164.78 201.765L1164.78 202.291L1164.43 202.291L1164.43 201.765L1163.5 201.765L1163.5 201.377L1164.43 201.377L1164.43 199.466ZM1164.78 199.892L1164.78 201.377L1166.93 201.377L1164.78 199.892ZM1163.46 204.094C1163.46 203.28 1163.92 202.82 1164.55 202.82C1165.01 202.82 1165.35 203.086 1165.52 203.501C1165.68 203.152 1165.97 202.931 1166.39 202.931C1166.96 202.931 1167.41 203.407 1167.41 204.094C1167.41 204.797 1166.98 205.257 1166.39 205.257C1165.98 205.257 1165.69 205.025 1165.53 204.676C1165.35 205.097 1165.01 205.368 1164.55 205.368C1163.94 205.368 1163.46 204.892 1163.46 204.094ZM1163.82 204.094C1163.82 204.642 1164.16 204.969 1164.55 204.969C1165.03 204.969 1165.32 204.57 1165.36 204.094C1165.32 203.601 1165.04 203.219 1164.55 203.219C1164.16 203.219 1163.82 203.545 1163.82 204.094ZM1165.68 204.094C1165.72 204.482 1165.93 204.858 1166.39 204.858C1166.73 204.858 1167.05 204.57 1167.05 204.094C1167.05 203.617 1166.73 203.329 1166.39 203.329C1165.95 203.329 1165.72 203.723 1165.68 204.094ZM1164.47 206.597L1164.73 206.337L1165.49 207.101L1166.26 206.337L1166.52 206.597L1165.75 207.361L1166.52 208.126L1166.26 208.386L1165.49 207.622L1164.73 208.386L1164.47 208.126L1165.23 207.361L1164.47 206.597ZM1163.5 209.244L1163.85 209.244L1165.22 210.618C1165.69 211.094 1165.96 211.338 1166.3 211.338C1166.73 211.338 1167.05 211.011 1167.05 210.491C1167.05 209.97 1166.73 209.643 1166.3 209.643L1166.3 209.244C1166.93 209.244 1167.41 209.732 1167.41 210.491C1167.41 211.249 1166.93 211.737 1166.3 211.737C1165.87 211.737 1165.49 211.432 1164.99 210.912L1163.85 209.743L1163.85 211.737L1163.5 211.737L1163.5 209.244ZM1166.37 212.207L1166.81 212.207L1167.38 213.038L1167.38 213.426L1163.5 213.426L1163.5 213.038L1166.94 213.038L1166.37 212.207ZM1163.46 215.667C1163.46 214.891 1163.95 214.393 1165.26 214.393L1165.61 214.393C1166.91 214.393 1167.41 214.897 1167.41 215.667C1167.41 216.442 1166.92 216.941 1165.61 216.941L1165.26 216.941C1163.96 216.941 1163.46 216.437 1163.46 215.667ZM1163.82 215.667C1163.82 216.204 1164.16 216.542 1165.26 216.542L1165.61 216.542C1166.71 216.542 1167.05 216.199 1167.05 215.667C1167.05 215.13 1166.71 214.792 1165.61 214.792L1165.26 214.792C1164.17 214.792 1163.82 215.135 1163.82 215.667ZM1164.19 219.059L1165.27 218.494L1165.87 218.195L1163.5 218.195L1163.5 217.829L1166.27 217.829L1166.27 218.339L1164.56 219.248L1166.27 220.156L1166.27 220.655L1163.5 220.655L1163.5 220.289L1165.87 220.289L1165.27 219.99L1164.19 219.425L1164.19 219.059ZM1164.19 222.824L1165.27 222.259L1165.87 221.96L1163.5 221.96L1163.5 221.595L1166.27 221.595L1166.27 222.104L1164.56 223.013L1166.27 223.921L1166.27 224.42L1163.5 224.42L1163.5 224.054L1165.87 224.054L1165.27 223.755L1164.19 223.19L1164.19 222.824Z" fill="black"/>
<rect x="1112" y="255" width="66" height="85" fill="white"/>
<rect x="1112" y="255" width="66" height="85" stroke="#0000FF" stroke-dasharray="5 5"/>
<path d="M1144.42 302.471L1143.59 300.222H1140.21L1139.39 302.471H1138.59L1141.47 294.715H1142.36L1145.24 302.471H1144.42ZM1141.26 297.374L1140.47 299.512H1143.33L1142.55 297.374L1141.9 295.601L1141.26 297.374ZM1148.9 302.548C1147.35 302.548 1146.35 301.551 1146.35 299.28V298.571C1146.35 295.712 1147.43 294.638 1148.96 294.638C1150.13 294.638 1150.88 295.391 1151.1 296.322H1150.28C1150.06 295.779 1149.66 295.38 1148.96 295.38C1147.87 295.38 1147.16 296.045 1147.1 298.205C1147.5 297.629 1148.16 297.297 1148.96 297.297C1150.31 297.297 1151.34 298.327 1151.34 299.789V300.055C1151.34 301.518 1150.31 302.548 1148.9 302.548ZM1148.9 298.028C1147.85 298.028 1147.18 298.67 1147.15 299.612V299.945C1147.15 301.141 1147.82 301.817 1148.9 301.817C1149.86 301.817 1150.54 301.141 1150.54 300.055V299.789C1150.54 298.704 1149.86 298.028 1148.9 298.028Z" fill="black"/>
<path d="M1130.86 305.55V305.118L1131.69 304.547H1132.08V308.425H1131.69V304.985L1130.86 305.55ZM1134.32 308.464C1133.55 308.464 1133.05 307.971 1133.05 306.663V306.309C1133.05 305.012 1133.55 304.508 1134.32 304.508C1135.1 304.508 1135.6 305.001 1135.6 306.309V306.663C1135.6 307.959 1135.09 308.464 1134.32 308.464ZM1134.32 308.098C1134.86 308.098 1135.2 307.76 1135.2 306.663V306.309C1135.2 305.217 1134.86 304.874 1134.32 304.874C1133.79 304.874 1133.45 305.212 1133.45 306.309V306.663C1133.45 307.754 1133.79 308.098 1134.32 308.098ZM1136.43 306.652L1136.6 304.547H1138.62V304.902H1136.95L1136.85 306.187C1137.04 305.987 1137.32 305.871 1137.65 305.871C1138.36 305.871 1138.87 306.381 1138.87 307.167C1138.87 307.948 1138.35 308.464 1137.59 308.464C1136.96 308.464 1136.46 308.137 1136.32 307.527H1136.73C1136.86 307.91 1137.17 308.098 1137.59 308.098C1138.12 308.098 1138.47 307.749 1138.47 307.167C1138.47 306.58 1138.13 306.237 1137.59 306.237C1137.22 306.237 1136.95 306.436 1136.81 306.652H1136.43ZM1140.02 307.455L1139.76 307.195L1140.52 306.431L1139.76 305.666L1140.02 305.406L1140.78 306.17L1141.55 305.406L1141.81 305.666L1141.04 306.431L1141.81 307.195L1141.55 307.455L1140.78 306.691L1140.02 307.455ZM1142.58 305.55V305.118L1143.41 304.547H1143.8V308.425H1143.41V304.985L1142.58 305.55ZM1144.49 307.494V307.14L1146.31 304.547H1146.79V307.14H1147.32V307.494H1146.79V308.425H1146.4V307.494H1144.49ZM1144.92 307.14H1146.4V304.996L1144.92 307.14ZM1149.12 308.464C1148.3 308.464 1147.84 308.004 1147.84 307.372C1147.84 306.912 1148.11 306.575 1148.53 306.403C1148.18 306.242 1147.95 305.949 1147.95 305.533C1147.95 304.962 1148.43 304.508 1149.12 304.508C1149.82 304.508 1150.28 304.946 1150.28 305.533C1150.28 305.943 1150.05 306.237 1149.7 306.397C1150.12 306.575 1150.39 306.912 1150.39 307.372C1150.39 307.987 1149.92 308.464 1149.12 308.464ZM1149.12 308.098C1149.67 308.098 1149.99 307.766 1149.99 307.372C1149.99 306.896 1149.59 306.602 1149.12 306.563C1148.63 306.602 1148.24 306.879 1148.24 307.372C1148.24 307.766 1148.57 308.098 1149.12 308.098ZM1149.12 306.242C1149.51 306.203 1149.88 305.993 1149.88 305.533C1149.88 305.19 1149.59 304.874 1149.12 304.874C1148.64 304.874 1148.35 305.19 1148.35 305.533C1148.35 305.971 1148.75 306.203 1149.12 306.242ZM1152.45 307.732L1151.89 306.652L1151.59 306.054V308.425H1151.22V305.655H1151.73L1152.64 307.367L1153.55 305.655H1154.05V308.425H1153.68V306.054L1153.38 306.652L1152.82 307.732H1152.45ZM1156.22 307.732L1155.65 306.652L1155.35 306.054V308.425H1154.99V305.655H1155.5L1156.41 307.367L1157.31 305.655H1157.81V308.425H1157.45V306.054L1157.15 306.652L1156.58 307.732H1156.22Z" fill="black"/>
<rect x="1178" y="255" width="66" height="85" fill="white"/>
<rect x="1178" y="255" width="66" height="85" stroke="#0000FF" stroke-dasharray="5 5"/>
<path d="M1210.42 302.471L1209.59 300.222H1206.21L1205.39 302.471H1204.59L1207.47 294.715H1208.36L1211.24 302.471H1210.42ZM1207.26 297.374L1206.47 299.512H1209.33L1208.55 297.374L1207.9 295.601L1207.26 297.374ZM1214.9 302.548C1213.35 302.548 1212.35 301.551 1212.35 299.28V298.571C1212.35 295.712 1213.43 294.638 1214.96 294.638C1216.13 294.638 1216.88 295.391 1217.1 296.322H1216.28C1216.06 295.779 1215.66 295.38 1214.96 295.38C1213.87 295.38 1213.16 296.045 1213.1 298.205C1213.5 297.629 1214.16 297.297 1214.96 297.297C1216.31 297.297 1217.34 298.327 1217.34 299.789V300.055C1217.34 301.518 1216.31 302.548 1214.9 302.548ZM1214.9 298.028C1213.85 298.028 1213.18 298.67 1213.15 299.612V299.945C1213.15 301.141 1213.82 301.817 1214.9 301.817C1215.86 301.817 1216.54 301.141 1216.54 300.055V299.789C1216.54 298.704 1215.86 298.028 1214.9 298.028Z" fill="black"/>
<path d="M1196.86 305.55V305.118L1197.69 304.547H1198.08V308.425H1197.69V304.985L1196.86 305.55ZM1200.32 308.464C1199.55 308.464 1199.05 307.971 1199.05 306.663V306.309C1199.05 305.012 1199.55 304.508 1200.32 304.508C1201.1 304.508 1201.6 305.001 1201.6 306.309V306.663C1201.6 307.959 1201.09 308.464 1200.32 308.464ZM1200.32 308.098C1200.86 308.098 1201.2 307.76 1201.2 306.663V306.309C1201.2 305.217 1200.86 304.874 1200.32 304.874C1199.79 304.874 1199.45 305.212 1199.45 306.309V306.663C1199.45 307.754 1199.79 308.098 1200.32 308.098ZM1202.43 306.652L1202.6 304.547H1204.62V304.902H1202.95L1202.85 306.187C1203.04 305.987 1203.32 305.871 1203.65 305.871C1204.36 305.871 1204.87 306.381 1204.87 307.167C1204.87 307.948 1204.35 308.464 1203.59 308.464C1202.96 308.464 1202.46 308.137 1202.32 307.527H1202.73C1202.86 307.91 1203.17 308.098 1203.59 308.098C1204.12 308.098 1204.47 307.749 1204.47 307.167C1204.47 306.58 1204.13 306.237 1203.59 306.237C1203.22 306.237 1202.95 306.436 1202.81 306.652H1202.43ZM1206.02 307.455L1205.76 307.195L1206.52 306.431L1205.76 305.666L1206.02 305.406L1206.78 306.17L1207.55 305.406L1207.81 305.666L1207.04 306.431L1207.81 307.195L1207.55 307.455L1206.78 306.691L1206.02 307.455ZM1208.58 305.55V305.118L1209.41 304.547H1209.8V308.425H1209.41V304.985L1208.58 305.55ZM1210.49 307.494V307.14L1212.31 304.547H1212.79V307.14H1213.32V307.494H1212.79V308.425H1212.4V307.494H1210.49ZM1210.92 307.14H1212.4V304.996L1210.92 307.14ZM1215.12 308.464C1214.3 308.464 1213.84 308.004 1213.84 307.372C1213.84 306.912 1214.11 306.575 1214.53 306.403C1214.18 306.242 1213.95 305.949 1213.95 305.533C1213.95 304.962 1214.43 304.508 1215.12 304.508C1215.82 304.508 1216.28 304.946 1216.28 305.533C1216.28 305.943 1216.05 306.237 1215.7 306.397C1216.12 306.575 1216.39 306.912 1216.39 307.372C1216.39 307.987 1215.92 308.464 1215.12 308.464ZM1215.12 308.098C1215.67 308.098 1215.99 307.766 1215.99 307.372C1215.99 306.896 1215.59 306.602 1215.12 306.563C1214.63 306.602 1214.24 306.879 1214.24 307.372C1214.24 307.766 1214.57 308.098 1215.12 308.098ZM1215.12 306.242C1215.51 306.203 1215.88 305.993 1215.88 305.533C1215.88 305.19 1215.59 304.874 1215.12 304.874C1214.64 304.874 1214.35 305.19 1214.35 305.533C1214.35 305.971 1214.75 306.203 1215.12 306.242ZM1218.45 307.732L1217.89 306.652L1217.59 306.054V308.425H1217.22V305.655H1217.73L1218.64 307.367L1219.55 305.655H1220.05V308.425H1219.68V306.054L1219.38 306.652L1218.82 307.732H1218.45ZM1222.22 307.732L1221.65 306.652L1221.35 306.054V308.425H1220.99V305.655H1221.5L1222.41 307.367L1223.31 305.655H1223.81V308.425H1223.45V306.054L1223.15 306.652L1222.58 307.732H1222.22Z" fill="black"/>
<path d="M271.728 74V58.784H254.352V74H249.84V40.4H254.352V54.656H271.728V40.4H276.24V74H271.728ZM289.678 74.384C284.686 74.384 281.998 71.696 281.998 67.28C281.998 62.384 284.926 59.456 292.558 59.456H297.358V57.68C297.358 54.992 295.822 53.456 292.558 53.456C289.342 53.456 287.998 54.8 287.758 56.72H282.958C283.198 52.64 286.222 49.616 292.558 49.616C298.558 49.616 301.678 52.736 301.678 57.68V74H298.318L297.79 70.064C296.062 72.8 293.182 74.384 289.678 74.384ZM290.158 70.544C294.334 70.544 297.358 67.52 297.358 63.968V63.104H292.558C288.142 63.104 286.51 64.736 286.51 67.184C286.51 69.2 287.854 70.544 290.158 70.544ZM322.056 74V65.792C320.664 66.08 318.888 66.368 316.776 66.368C310.056 66.368 307.176 63.488 307.176 57.2V50H311.496V57.2C311.496 61.136 312.792 62.432 316.776 62.432C318.84 62.432 320.712 62.144 322.056 61.856V50H326.376V74H322.056ZM342.913 74.384C336.481 74.384 332.113 70.016 332.113 62.912V61.088C332.113 54.08 336.577 49.616 342.913 49.616C349.297 49.616 353.713 54.032 353.713 61.088V63.392H336.625C336.769 68.048 339.313 70.448 342.913 70.448C346.705 70.448 348.097 69.056 349.057 66.56H353.473C352.513 71.264 349.393 74.384 342.913 74.384ZM342.913 53.552C339.505 53.552 337.105 55.568 336.673 59.648H349.105C348.721 55.424 346.513 53.552 342.913 53.552ZM371.091 74.384C367.971 74.384 365.475 73.328 363.795 71.264V83.6H359.475V50H362.835L363.267 53.456C364.947 50.912 367.683 49.616 371.139 49.616C376.563 49.616 380.595 53.648 380.595 61.088V62.912C380.595 70.304 376.515 74.384 371.091 74.384ZM369.939 70.256C373.779 70.256 376.083 67.952 376.083 62.912V61.088C376.083 56.144 373.731 53.744 369.939 53.744C366.483 53.744 363.891 56.192 363.795 60.752V62.912C363.795 67.616 366.387 70.256 369.939 70.256ZM382.757 53.936V50H402.437V53.936H394.757V74H390.437V53.936H382.757ZM412.538 74.384C407.546 74.384 404.858 71.696 404.858 67.28C404.858 62.384 407.786 59.456 415.418 59.456H420.218V57.68C420.218 54.992 418.682 53.456 415.418 53.456C412.202 53.456 410.858 54.8 410.618 56.72H405.818C406.058 52.64 409.082 49.616 415.418 49.616C421.418 49.616 424.538 52.736 424.538 57.68V74H421.178L420.65 70.064C418.922 72.8 416.042 74.384 412.538 74.384ZM413.018 70.544C417.194 70.544 420.218 67.52 420.218 63.968V63.104H415.418C411.002 63.104 409.37 64.736 409.37 67.184C409.37 69.2 410.714 70.544 413.018 70.544ZM447.795 74V63.728H435.795V74H431.475V50H435.795V59.792H447.795V50H452.115V74H447.795ZM475.639 74V55.136L472.999 60.08L464.887 74H459.319V50H463.639V68.864L466.279 63.92L474.391 50H479.959V74H475.639ZM485.723 57.872C485.723 52.832 488.555 50 496.043 50H504.443V74H500.123V65.648H496.043C495.323 65.648 494.651 65.648 494.027 65.6L489.562 74H484.763L489.947 64.736C486.923 63.488 485.723 61.136 485.723 57.872ZM490.235 57.872C490.235 60.368 491.579 61.712 496.043 61.712H500.123V53.936H496.043C491.579 53.936 490.235 55.28 490.235 57.872Z" fill="black"/>
<path d="M248 104H248.92V117.16H255.7V118H248V104ZM258.413 108H259.293V118H258.413V108ZM258.853 106C258.653 106 258.486 105.933 258.353 105.8C258.22 105.667 258.153 105.5 258.153 105.3C258.153 105.1 258.22 104.933 258.353 104.8C258.486 104.667 258.653 104.6 258.853 104.6C259.053 104.6 259.22 104.667 259.353 104.8C259.486 104.933 259.553 105.1 259.553 105.3C259.553 105.5 259.486 105.667 259.353 105.8C259.22 105.933 259.053 106 258.853 106ZM266.59 117.72C266.017 117.72 265.49 117.627 265.01 117.44C264.543 117.24 264.137 116.953 263.79 116.58C263.457 116.193 263.19 115.727 262.99 115.18C262.803 114.633 262.71 114.007 262.71 113.3V112.3C262.71 111.593 262.803 110.967 262.99 110.42C263.19 109.873 263.457 109.413 263.79 109.04C264.137 108.653 264.55 108.367 265.03 108.18C265.51 107.98 266.043 107.88 266.63 107.88C267.35 107.88 267.99 108.047 268.55 108.38C269.11 108.7 269.557 109.18 269.89 109.82L269.99 108H270.71V118C270.71 119.307 270.37 120.32 269.69 121.04C269.023 121.76 268.083 122.12 266.87 122.12C265.697 122.12 264.817 121.853 264.23 121.32C263.657 120.8 263.317 120.093 263.21 119.2H264.09C264.197 119.853 264.463 120.36 264.89 120.72C265.33 121.093 265.99 121.28 266.87 121.28C267.843 121.28 268.577 121 269.07 120.44C269.577 119.893 269.83 119.08 269.83 118V115.9C269.483 116.5 269.03 116.953 268.47 117.26C267.923 117.567 267.297 117.72 266.59 117.72ZM266.73 116.88C267.157 116.88 267.55 116.8 267.91 116.64C268.283 116.48 268.61 116.253 268.89 115.96C269.17 115.667 269.39 115.313 269.55 114.9C269.71 114.473 269.803 113.993 269.83 113.46V112.3C269.83 111.74 269.75 111.24 269.59 110.8C269.43 110.36 269.21 109.987 268.93 109.68C268.65 109.373 268.317 109.14 267.93 108.98C267.557 108.807 267.15 108.72 266.71 108.72C265.803 108.72 265.063 109.027 264.49 109.64C263.917 110.253 263.63 111.14 263.63 112.3V113.3C263.63 114.46 263.917 115.347 264.49 115.96C265.063 116.573 265.81 116.88 266.73 116.88ZM274.502 104H275.382V109.66C275.715 109.1 276.168 108.667 276.742 108.36C277.315 108.04 277.982 107.88 278.742 107.88C279.835 107.88 280.702 108.22 281.342 108.9C281.982 109.567 282.302 110.567 282.302 111.9V118H281.422V111.9C281.422 110.833 281.168 110.04 280.662 109.52C280.168 108.987 279.482 108.72 278.602 108.72C278.135 108.72 277.708 108.793 277.322 108.94C276.935 109.087 276.602 109.3 276.322 109.58C276.042 109.847 275.815 110.167 275.642 110.54C275.482 110.913 275.395 111.32 275.382 111.76V118H274.502V104ZM284.61 108H286.41V105.2H287.29V108H290.01V108.8H287.29V115.52C287.29 116.12 287.417 116.553 287.67 116.82C287.923 117.073 288.33 117.2 288.89 117.2H290.21V118H288.81C287.21 118 286.41 117.207 286.41 115.62V108.8H284.61V108Z" fill="black"/>
<path d="M246 120H262.391V121H246V120ZM271.359 120H291.11V121H271.359V120Z" fill="black"/>
<path d="M256.04 157L253.02 151.24C252.76 151.26 252.48 151.28 252.2 151.28H249.2V157H247.8V143H252.2C255.62 143 257.2 144.58 257.2 147.14C257.2 149.04 256.28 150.42 254.4 151L257.6 157H256.04ZM252.2 144.28H249.2V150H252.2C254.66 150 255.76 148.9 255.76 147.14C255.76 145.38 254.66 144.28 252.2 144.28ZM263.802 157.14C261.182 157.14 259.502 155.46 259.502 152.44V151.56C259.502 148.56 261.202 146.86 263.802 146.86C266.402 146.86 268.102 148.56 268.102 151.56V152.38H260.862V152.44C260.862 154.74 262.022 155.9 263.802 155.9C265.462 155.9 266.242 155.12 266.642 154.08H268.002C267.602 155.8 266.262 157.14 263.802 157.14ZM263.802 148.1C262.082 148.1 260.982 149.22 260.862 151.22H266.722C266.622 149.14 265.482 148.1 263.802 148.1ZM274.223 156.74C271.903 156.74 270.303 155.14 270.303 152.24V151.36C270.303 148.5 271.943 146.86 274.223 146.86C275.683 146.86 276.863 147.46 277.523 148.64L277.683 147H278.703V157C278.703 159.66 277.223 161.14 274.663 161.14C272.183 161.14 271.003 159.96 270.803 158.1H272.123C272.323 159.24 272.983 159.9 274.663 159.9C276.483 159.9 277.383 159 277.383 157V155.18C276.703 156.22 275.603 156.74 274.223 156.74ZM274.523 155.5C276.163 155.5 277.323 154.32 277.383 152.4V151.22C277.323 149.24 276.163 148.1 274.523 148.1C272.803 148.1 271.663 149.24 271.663 151.36V152.24C271.663 154.34 272.823 155.5 274.523 155.5ZM285.595 157.14C283.415 157.14 281.995 155.72 281.995 153V147H283.315V153C283.315 154.94 284.275 155.9 285.795 155.9C287.495 155.9 288.675 154.72 288.675 153V147H289.995V157H288.975L288.815 155.36C288.155 156.5 286.995 157.14 285.595 157.14ZM296.003 157C294.323 157 293.403 156.08 293.403 154.36V143H294.723V154.2C294.723 155.3 295.203 155.8 296.163 155.8H296.803V157H296.003ZM301.702 157.14C299.702 157.14 298.602 156.04 298.602 154.24C298.602 152.3 299.802 151.1 302.802 151.1H305.082V150.2C305.082 148.76 304.422 148.1 302.802 148.1C301.342 148.1 300.622 148.72 300.522 149.7H299.102C299.202 148.06 300.402 146.86 302.802 146.86C305.162 146.86 306.402 148.1 306.402 150.2V157H305.382L305.182 155.12C304.482 156.38 303.202 157.14 301.702 157.14ZM301.802 155.9C303.642 155.9 305.082 154.46 305.082 152.76V152.3H302.802C300.742 152.3 299.962 153.08 299.962 154.24C299.962 155.26 300.602 155.9 301.802 155.9ZM309.692 157V147H310.712L310.872 148.64C311.512 147.5 312.672 146.86 314.092 146.86H315.092V148.1H314.092C312.232 148.1 311.072 149.22 311.012 150.88V157H309.692Z" fill="black"/>
<path d="M246 159H270V160H246V159ZM279.344 159H315.592V160H279.344V159Z" fill="black"/>
<path d="M253.16 192.1L250.36 186.2L249.48 184.1V196H247.6V182H250.28L254.14 190.1L257.96 182H260.6V196H258.72V184.08L257.82 186.2L255.04 192.1H253.16ZM267.591 196.16C264.911 196.16 263.091 194.34 263.091 191.38V190.62C263.091 187.7 264.951 185.84 267.591 185.84C270.251 185.84 272.091 187.68 272.091 190.62V191.58H264.971C265.031 193.52 266.091 194.52 267.591 194.52C269.171 194.52 269.751 193.94 270.151 192.9H271.991C271.591 194.86 270.291 196.16 267.591 196.16ZM267.591 187.48C266.171 187.48 265.171 188.32 264.991 190.02H270.171C270.011 188.26 269.091 187.48 267.591 187.48ZM277.832 196.16C275.552 196.16 273.892 194.5 273.892 191.38V190.62C273.892 187.52 275.572 185.84 277.852 185.84C279.132 185.84 280.172 186.28 280.892 187.16V182H282.692V196H281.292L281.092 194.58C280.392 195.64 279.252 196.16 277.832 196.16ZM278.332 194.44C279.772 194.44 280.832 193.42 280.892 191.54V190.48C280.832 188.58 279.772 187.56 278.332 187.56C276.752 187.56 275.772 188.54 275.772 190.62V191.38C275.772 193.42 276.772 194.44 278.332 194.44ZM285.844 196V186H287.644V196H285.844ZM286.744 184.48C286.064 184.48 285.544 183.96 285.544 183.28C285.544 182.6 286.064 182.08 286.744 182.08C287.424 182.08 287.944 182.6 287.944 183.28C287.944 183.96 287.424 184.48 286.744 184.48ZM294.401 196.16C292.201 196.16 290.701 194.66 290.701 191.9V186H292.501V191.9C292.501 193.6 293.341 194.44 294.701 194.44C296.221 194.44 297.241 193.46 297.301 192.02V186H299.101V196H297.701L297.521 194.62C296.821 195.6 295.721 196.16 294.401 196.16ZM302.109 196V186H303.509L303.689 187.36C304.369 186.38 305.429 185.84 306.709 185.84C308.069 185.84 309.169 186.48 309.789 187.66C310.469 186.52 311.669 185.84 313.109 185.84C315.209 185.84 316.709 187.34 316.709 190.1V196H314.909V190.1C314.909 188.4 314.069 187.56 312.709 187.56C311.369 187.56 310.349 188.56 310.309 190V196H308.509V190.1C308.509 188.4 307.669 187.56 306.309 187.56C304.969 187.56 303.949 188.52 303.909 190V196H302.109Z" fill="black"/>
<path d="M246 198H318.109V199H246V198Z" fill="black"/>
<path d="M247.4 235V221H252.1C255.8 221 257.2 222.4 257.2 224.8C257.2 226.02 256.62 227.08 255.4 227.72C256.9 228.34 257.6 229.52 257.6 230.96C257.6 233.6 256.2 235 252.5 235H247.4ZM252.5 228.78H249.8V232.96H252.5C254.4 232.96 255.08 232.28 255.08 230.86C255.08 229.46 254.4 228.78 252.5 228.78ZM252.1 223.04H249.8V226.82H252.1C254 226.82 254.68 226.14 254.68 224.92C254.68 223.72 254 223.04 252.1 223.04ZM263.902 235.18C260.902 235.18 259.102 233.38 259.102 230.32V229.68C259.102 226.66 260.942 224.82 263.902 224.82C266.902 224.82 268.702 226.62 268.702 229.68V230.32C268.702 233.34 266.862 235.18 263.902 235.18ZM263.902 233.02C265.402 233.02 266.262 232.16 266.262 230.32V229.68C266.262 227.88 265.362 226.98 263.902 226.98C262.402 226.98 261.542 227.84 261.542 229.68V230.32C261.542 232.12 262.442 233.02 263.902 233.02ZM273.978 235C271.878 235 270.698 233.82 270.698 231.7V221H273.018V231.46C273.018 232.5 273.478 232.96 274.398 232.96H274.898V235H273.978ZM279.762 235.18C277.442 235.18 275.802 233.56 275.802 230.32V229.68C275.802 226.5 277.482 224.82 279.762 224.82C280.982 224.82 281.982 225.22 282.682 226V221H285.002V235H283.182L282.962 233.66C282.262 234.68 281.142 235.18 279.762 235.18ZM280.462 233.02C281.702 233.02 282.622 232.14 282.682 230.46V229.68C282.682 227.92 281.742 226.98 280.462 226.98C279.062 226.98 278.242 227.78 278.242 229.68V230.32C278.242 232.16 279.102 233.02 280.462 233.02Z" fill="black"/>
<path d="M246 237H286.302V238H246V237Z" fill="black"/>
<path d="M436 104H444V104.86H436.92V109.92H440.4C441.893 109.92 443.033 110.293 443.82 111.04C444.607 111.773 445 112.747 445 113.96C445 115.213 444.613 116.2 443.84 116.92C443.067 117.64 441.92 118 440.4 118H436V104ZM436.92 110.76V117.16H440.4C441.613 117.16 442.52 116.88 443.12 116.32C443.733 115.747 444.04 114.96 444.04 113.96C444.04 112.987 443.733 112.213 443.12 111.64C442.507 111.053 441.6 110.76 440.4 110.76H436.92ZM451.716 113.98L446.616 104H447.696L452.216 112.94L456.176 104H457.216L450.956 118H449.916L451.716 113.98ZM461.943 107L460.943 105.18V118H460.023V104H461.303L466.143 112.7L470.983 104H472.223V118H471.303V105.18L470.303 107L466.583 113.7H465.663L461.943 107ZM483.935 113.72H477.455L475.875 118H474.915L480.115 104H481.315L486.515 118H485.515L483.935 113.72ZM477.755 112.88H483.615L480.695 104.94L479.395 108.48L477.755 112.88ZM489.223 104H496.923V104.84H490.143V118H489.223V104ZM505.243 113.72H498.763L497.183 118H496.223L501.423 104H502.623L507.823 118H506.823L505.243 113.72ZM499.063 112.88H504.923L502.003 104.94L500.703 108.48L499.063 112.88Z" fill="black"/>
<path d="M435.8 157V143H444.2V144.28H437.2V148.72H440.4C443.58 148.72 445.2 150.34 445.2 152.86C445.2 155.42 443.62 157 440.4 157H435.8ZM440.4 150H437.2V155.72H440.4C442.7 155.72 443.76 154.66 443.76 152.86C443.76 151.08 442.66 150 440.4 150ZM449.716 157L451.476 153L446.416 143H447.976L452.216 151.5L455.896 143H457.416L451.236 157H449.716ZM465.423 152.9L462.123 146.6L461.223 144.66V157H459.823V143H461.703L466.143 151.48L470.583 143H472.423V157H471.023V144.66L470.123 146.6L466.823 152.9H465.423ZM485.235 157L483.735 152.94H477.635L476.155 157H474.715L479.915 143H481.515L486.715 157H485.235ZM479.535 147.8L478.115 151.66H483.275L481.855 147.8L480.695 144.6L479.535 147.8ZM489.023 157V143H497.023V144.28H490.423V157H489.023ZM506.543 157L505.043 152.94H498.943L497.463 157H496.023L501.223 143H502.823L508.023 157H506.543ZM500.843 147.8L499.423 151.66H504.583L503.163 147.8L502.003 144.6L500.843 147.8Z" fill="black"/>
<path d="M435.6 196V182H444.4V183.72H437.48V187.44H440.38C443.7 187.44 445.4 189.14 445.4 191.74C445.4 194.38 443.78 196 440.38 196H435.6ZM440.38 189.16H437.48V194.28H440.38C442.54 194.28 443.46 193.36 443.46 191.74C443.46 190.12 442.5 189.16 440.38 189.16ZM449.516 196L451.236 192.06L446.216 182H448.336L452.236 190L455.576 182H457.616L451.556 196H449.516ZM465.183 192.1L462.383 186.2L461.503 184.1V196H459.623V182H462.303L466.163 190.1L469.983 182H472.623V196H470.743V184.08L469.843 186.2L467.063 192.1H465.183ZM484.875 196L483.515 192.16H477.835L476.475 196H474.515L479.615 182H481.815L486.915 196H484.875ZM479.655 187.08L478.455 190.44H482.895L481.715 187.08L480.695 184.1L479.655 187.08ZM488.823 196V182H497.123V183.72H490.703V196H488.823ZM506.183 196L504.823 192.16H499.143L497.783 196H495.823L500.923 182H503.123L508.223 196H506.183ZM500.963 187.08L499.763 190.44H504.203L503.023 187.08L502.003 184.1L500.963 187.08Z" fill="black"/>
<path d="M435.4 235V221H444.6V223.12H437.8V226.16H440.4C443.78 226.16 445.6 227.98 445.6 230.58C445.6 233.36 443.96 235 440.4 235H435.4ZM440.4 228.28H437.8V232.88H440.4C442.18 232.88 443.08 231.98 443.08 230.58C443.08 229.26 442.1 228.28 440.4 228.28ZM449.216 235L450.916 231.06L446.016 221H448.736L452.216 228.44L455.216 221H457.816L451.816 235H449.216ZM464.923 231.3L462.643 225.8L461.823 223.68V235H459.423V221H463.023L466.143 228.58L469.263 221H472.823V235H470.423V223.66L469.583 225.8L467.323 231.3H464.923ZM484.475 235L483.295 231.46H477.995L476.835 235H474.315L479.315 221H482.115L487.115 235H484.475ZM479.715 226.28L478.695 229.34H482.595L481.595 226.28L480.655 223.4L479.715 226.28ZM488.623 235V221H497.223V223.12H491.023V235H488.623ZM505.783 235L504.603 231.46H499.303L498.143 235H495.623L500.623 221H503.423L508.423 235H505.783ZM501.023 226.28L500.003 229.34H503.903L502.903 226.28L501.963 223.4L501.023 226.28Z" fill="black"/>
</g>
<defs>
<clipPath id="clip0_332_669">
<rect width="1440" height="680" fill="white"/>
</clipPath>
<clipPath id="clip1_332_669">
<path d="M1244 340L1244 680L720 680L720 340L1244 340Z" fill="white"/>
</clipPath>
<clipPath id="clip2_332_669">
<path d="M720 0H983V340H720V0Z" fill="white"/>
</clipPath>
</defs>
</svg>
