<svg width="1440" height="680" viewBox="0 0 1440 680" fill="none" xmlns="http://www.w3.org/2000/svg">
<g clip-path="url(#clip0_332_669)">
<rect width="1440" height="680" fill="white"/>
<rect x="196.5" y="0.5" width="522.503" height="679" fill="white"/>
<rect x="196.5" y="0.5" width="522.503" height="679" stroke="#0000FF" stroke-dasharray="3.46 3.46"/>
<path d="M450.5 370.839L443.853 352.846H416.819L410.26 370.839H403.878L426.923 308.794H434.014L457.059 370.839H450.5ZM425.239 330.067L418.946 347.173H441.814L435.521 330.067L430.38 315.885L425.239 330.067ZM486.344 371.459C473.935 371.459 465.957 363.571 465.957 342.653V336.98C465.957 316.239 474.023 308.174 486.344 308.174C498.753 308.174 506.73 316.062 506.73 336.98V342.653C506.73 363.393 498.664 371.459 486.344 371.459ZM486.344 365.609C494.941 365.609 500.348 360.203 500.348 342.653V336.98C500.348 319.519 494.853 314.024 486.344 314.024C477.746 314.024 472.339 319.43 472.339 336.98V342.653C472.339 360.114 477.835 365.609 486.344 365.609Z" fill="black"/>
<path d="M404.736 411.553C401.479 411.553 399.64 409.713 399.64 407.187C399.64 405.348 400.703 403.996 402.365 403.309C400.969 402.667 400.083 401.492 400.083 399.831C400.083 397.548 401.988 395.731 404.736 395.731C407.55 395.731 409.389 397.482 409.389 399.831C409.389 401.47 408.459 402.645 407.063 403.287C408.747 403.996 409.833 405.348 409.833 407.187C409.833 409.647 407.927 411.553 404.736 411.553ZM404.736 410.09C406.93 410.09 408.237 408.761 408.237 407.187C408.237 405.282 406.642 404.107 404.736 403.952C402.764 404.107 401.235 405.215 401.235 407.187C401.235 408.761 402.542 410.09 404.736 410.09ZM404.736 402.667C406.287 402.512 407.794 401.67 407.794 399.831C407.794 398.457 406.642 397.194 404.736 397.194C402.83 397.194 401.678 398.457 401.678 399.831C401.678 401.581 403.251 402.512 404.736 402.667ZM411.823 407.675V406.257L419.092 395.886H421.019V406.257H423.124V407.675H421.019V411.397H419.468V407.675H411.823ZM413.53 406.257H419.468V397.681L413.53 406.257ZM424.464 399.897V398.169L427.787 395.886H429.338V411.397H427.787V397.637L424.464 399.897ZM435.025 407.52L433.983 406.478L437.041 403.42L433.983 400.362L435.025 399.321L438.083 402.379L441.14 399.321L442.182 400.362L439.124 403.42L442.182 406.478L441.14 407.52L438.083 404.462L435.025 407.52ZM445.281 399.897V398.169L448.605 395.886H450.156V411.397H448.605V397.637L445.281 399.897ZM453.028 399.897V398.169L456.352 395.886H457.903V411.397H456.352V397.637L453.028 399.897ZM466.647 411.553C463.389 411.553 461.55 409.713 461.55 407.187C461.55 405.348 462.614 403.996 464.276 403.309C462.88 402.667 461.993 401.492 461.993 399.831C461.993 397.548 463.899 395.731 466.647 395.731C469.461 395.731 471.3 397.482 471.3 399.831C471.3 401.47 470.369 402.645 468.973 403.287C470.657 403.996 471.743 405.348 471.743 407.187C471.743 409.647 469.838 411.553 466.647 411.553ZM466.647 410.09C468.84 410.09 470.148 408.761 470.148 407.187C470.148 405.282 468.552 404.107 466.647 403.952C464.675 404.107 463.146 405.215 463.146 407.187C463.146 408.761 464.453 410.09 466.647 410.09ZM466.647 402.667C468.198 402.512 469.705 401.67 469.705 399.831C469.705 398.457 468.552 397.194 466.647 397.194C464.741 397.194 463.589 398.457 463.589 399.831C463.589 401.581 465.162 402.512 466.647 402.667ZM479.606 411.553C477.147 411.553 475.64 410.046 475.197 408.184H476.836C477.28 409.27 478.077 410.068 479.606 410.068C481.667 410.068 483.063 408.738 483.174 404.44C482.376 405.57 481.069 406.234 479.495 406.234C476.792 406.234 474.731 404.174 474.731 401.249V400.717C474.731 397.792 476.792 395.731 479.606 395.731C482.708 395.731 484.703 397.725 484.703 402.268V403.686C484.703 409.403 482.553 411.553 479.606 411.553ZM479.606 404.772C481.689 404.772 483.041 403.487 483.107 401.625V400.938C483.107 398.545 481.756 397.194 479.606 397.194C477.678 397.194 476.327 398.545 476.327 400.717V401.249C476.327 403.42 477.678 404.772 479.606 404.772ZM493.161 408.628L490.901 404.307L489.705 401.913V411.397H488.242V400.318H490.281L493.915 407.165L497.549 400.318H499.543V411.397H498.081V401.913L496.884 404.307L494.624 408.628H493.161ZM508.222 408.628L505.962 404.307L504.766 401.913V411.397H503.303V400.318H505.342L508.976 407.165L512.61 400.318H514.604V411.397H513.142V401.913L511.945 404.307L509.685 408.628H508.222Z" fill="black"/>
<g clip-path="url(#clip1_332_669)">
<rect x="1243.01" y="340" width="340" height="524.195" transform="rotate(90 1243.01 340)" fill="white"/>
<path d="M957.799 513.044L971.294 508.058L971.294 487.783L957.799 482.863L957.799 478.077L1004.33 495.361L1004.33 500.679L957.799 517.963L957.799 513.044ZM988.378 494.098L975.548 489.378L975.548 506.529L988.378 501.809L999.014 497.953L988.378 494.098ZM992.3 521.645L997.485 521.645L1004.33 531.617L1004.33 536.27L957.799 536.27L957.799 531.617L999.081 531.617L992.3 521.645Z" fill="black"/>
<path d="M931.521 466.582L937.837 467.081L937.837 473.147L936.773 473.147L936.773 468.145L932.917 467.829C933.516 468.41 933.865 469.258 933.865 470.239C933.865 472.366 932.336 473.895 929.976 473.895C927.632 473.895 926.087 472.349 926.087 470.072C926.087 468.161 927.067 466.682 928.895 466.25L928.895 467.48C927.749 467.879 927.184 468.793 927.184 470.072C927.184 471.651 928.231 472.698 929.976 472.698C931.737 472.698 932.768 471.668 932.768 470.072C932.768 468.959 932.169 468.128 931.521 467.729L931.521 466.582ZM926.087 479.552C926.087 477.708 927.217 476.578 928.613 476.245L928.613 477.475C927.799 477.807 927.2 478.406 927.2 479.552C927.2 481.098 928.197 482.145 931.422 482.228C930.574 481.63 930.075 480.649 930.075 479.469C930.075 477.442 931.621 475.896 933.815 475.896L934.214 475.896C936.407 475.896 937.953 477.442 937.953 479.552C937.953 481.879 936.457 483.375 933.05 483.375L931.987 483.375C927.699 483.375 926.087 481.763 926.087 479.552ZM931.172 479.552C931.172 481.115 932.136 482.128 933.532 482.178L934.047 482.178C935.842 482.178 936.856 481.165 936.856 479.552C936.856 478.107 935.842 477.093 934.214 477.093L933.815 477.093C932.186 477.093 931.172 478.107 931.172 479.552ZM928.995 485.032L930.059 485.032L937.837 490.483L937.837 491.929L930.059 491.929L930.059 493.508L928.995 493.508L928.995 491.929L926.203 491.929L926.203 490.766L928.995 490.766L928.995 485.032ZM930.059 486.312L930.059 490.766L936.49 490.766L930.059 486.312ZM929.111 496.623L929.893 495.842L932.186 498.135L934.479 495.842L935.261 496.623L932.967 498.916L935.261 501.21L934.479 501.991L932.186 499.697L929.893 501.991L929.111 501.21L931.405 498.916L929.111 496.623ZM926.087 508.719C926.087 506.276 927.466 504.897 929.361 504.897C930.74 504.897 931.754 505.694 932.269 506.941C932.751 505.894 933.632 505.229 934.878 505.229C936.59 505.229 937.953 506.658 937.953 508.719C937.953 510.83 936.64 512.209 934.878 512.209C933.648 512.209 932.768 511.511 932.286 510.464C931.754 511.727 930.74 512.541 929.361 512.541C927.516 512.541 926.087 511.112 926.087 508.719ZM927.184 508.719C927.184 510.364 928.181 511.345 929.361 511.345C930.79 511.345 931.671 510.148 931.787 508.719C931.671 507.24 930.84 506.093 929.361 506.093C928.181 506.093 927.184 507.074 927.184 508.719ZM932.751 508.719C932.867 509.882 933.499 511.012 934.878 511.012C935.909 511.012 936.856 510.148 936.856 508.719C936.856 507.29 935.909 506.426 934.878 506.426C933.565 506.426 932.867 507.606 932.751 508.719ZM928.995 514.035L930.059 514.035L937.837 519.486L937.837 520.932L930.059 520.932L930.059 522.51L928.995 522.51L928.995 520.932L926.203 520.932L926.203 519.768L928.995 519.768L928.995 514.035ZM930.059 515.314L930.059 519.768L936.49 519.768L930.059 515.314ZM934.828 523.515L936.125 523.515L937.837 526.007L937.837 527.171L926.203 527.171L926.203 526.007L936.524 526.007L934.828 523.515ZM928.281 533.928L931.521 532.233L933.316 531.336L926.203 531.336L926.203 530.239L934.513 530.239L934.513 531.768L929.377 534.493L934.513 537.219L934.513 538.715L926.203 538.715L926.203 537.618L933.316 537.618L931.521 536.72L928.281 535.025L928.281 533.928ZM928.281 545.224L931.521 543.529L933.316 542.632L926.203 542.632L926.203 541.535L934.513 541.535L934.513 543.064L929.377 545.789L934.513 548.515L934.513 550.01L926.203 550.01L926.203 548.914L933.316 548.914L931.521 548.016L928.281 546.321L928.281 545.224Z" fill="black"/>
<line x1="1203.5" y1="592.497" x2="1203.5" y2="678.497" stroke="#0000FF" stroke-dasharray="3 3"/>
<path d="M1241 570L1241.5 569.981L1241.48 569.5H1241V570ZM1218.5 570V569.5H1218.24L1218.09 569.718L1218.5 570ZM1177.5 630L1177.09 629.718L1176.92 629.968L1177.06 630.236L1177.5 630ZM1204 679.5V680H1204.26L1204.41 679.786L1204 679.5ZM1243 623.5L1243.41 623.786L1243.51 623.648L1243.5 623.481L1243 623.5ZM1239 629.244L1239.41 629.529L1239 629.244ZM1108 623.5L1108.04 623.002L1107.77 622.979L1107.6 623.195L1108 623.5ZM1093 643L1092.6 642.695L1092.3 643.083L1092.69 643.39L1093 643ZM1138.5 679.5L1138.19 679.89L1138.32 680H1138.5V679.5ZM1190 636.997L1195.77 637.04L1192.92 632.018L1190 636.997ZM1241 570V569.5H1218.5V570V570.5H1241V570ZM1177.5 630L1177.06 630.236L1203.56 679.736L1204 679.5L1204.44 679.264L1177.94 629.764L1177.5 630ZM1243 623.5L1243.5 623.481L1241.5 569.981L1241 570L1240.5 570.019L1242.5 623.519L1243 623.5ZM1204 679.5L1204.41 679.786L1239.41 629.529L1239 629.244L1238.59 628.958L1203.59 679.214L1204 679.5ZM1239 629.244L1239.41 629.529L1243.41 623.786L1243 623.5L1242.59 623.214L1238.59 628.958L1239 629.244ZM1218.5 570L1218.03 570.164L1238.53 629.407L1239 629.244L1239.47 629.08L1218.97 569.836L1218.5 570ZM1218.5 570L1218.09 569.718L1177.6 628.961L1178.02 629.244L1178.43 629.526L1218.91 570.282L1218.5 570ZM1178.02 629.244L1177.6 628.961L1177.09 629.718L1177.5 630L1177.91 630.282L1178.43 629.526L1178.02 629.244ZM1178.02 629.244L1178.06 628.745L1108.04 623.002L1108 623.5L1107.96 623.998L1177.98 629.742L1178.02 629.244ZM1108 623.5L1107.6 623.195L1092.6 642.695L1093 643L1093.4 643.305L1108.4 623.805L1108 623.5ZM1093 643L1092.69 643.39L1138.19 679.89L1138.5 679.5L1138.81 679.11L1093.31 642.61L1093 643ZM1138.5 679.5V680H1204V679.5V679H1138.5V679.5ZM1227.5 636.997L1227.81 636.604C1224.56 634.053 1219.09 632.064 1212.93 631.414C1206.76 630.764 1199.85 631.451 1193.7 634.324L1193.91 634.777L1194.12 635.23C1200.07 632.45 1206.8 631.773 1212.83 632.409C1218.87 633.046 1224.14 634.993 1227.19 637.39L1227.5 636.997Z" fill="#0000FF"/>
</g>
<rect x="1242.51" y="340.5" width="339" height="523.195" transform="rotate(90 1242.51 340.5)" stroke="#0000FF" stroke-dasharray="3.46 3.46"/>
<rect x="1242.51" y="0.5" width="170.039" height="260.752" transform="rotate(90 1242.51 0.5)" fill="white"/>
<rect x="1242.51" y="0.5" width="170.039" height="260.752" transform="rotate(90 1242.51 0.5)" stroke="#0000FF" stroke-dasharray="3.46 3.46"/>
<path d="M1100.9 82.7137L1107.65 80.2208L1107.65 70.0832L1100.9 67.6235L1100.9 65.2304L1124.17 73.8723L1124.17 76.5314L1100.9 85.1733L1100.9 82.7137ZM1116.19 73.2408L1109.78 70.8809L1109.78 79.4564L1116.19 77.0964L1121.51 75.1686L1116.19 73.2408ZM1100.67 95.4902C1100.67 90.8368 1103.46 88.0448 1108.05 87.8454L1108.05 90.2385C1104.72 90.438 1102.86 92.2661 1102.86 95.4902C1102.86 98.9137 1104.69 100.742 1107.38 100.742C1109.98 100.742 1111.8 98.9137 1111.8 95.7893L1111.8 92.6649L1113.93 92.6649L1113.93 95.7893C1113.93 98.5481 1115.63 100.243 1118.05 100.243C1120.55 100.243 1122.21 98.5814 1122.21 95.4902C1122.21 92.7314 1120.48 91.0363 1117.69 90.7371L1117.69 88.344C1121.74 88.5434 1124.4 91.2025 1124.4 95.4902C1124.4 100.044 1121.81 102.636 1118.05 102.636C1115.79 102.636 1113.9 101.506 1112.9 99.4788C1111.9 101.839 1109.84 103.135 1107.38 103.135C1103.43 103.135 1100.67 100.376 1100.67 95.4902Z" fill="black"/>
<path d="M1084.81 62.034L1085.38 62.034L1087.6 64.2665C1088.37 65.0407 1088.8 65.4368 1089.35 65.4368C1090.05 65.4368 1090.58 64.9056 1090.58 64.0595C1090.58 63.2133 1090.05 62.6821 1089.35 62.6821L1089.35 62.034C1090.39 62.034 1091.17 62.8262 1091.17 64.0595C1091.17 65.2927 1090.39 66.0849 1089.35 66.0849C1088.66 66.0849 1088.05 65.5898 1087.23 64.7436L1085.38 62.8442L1085.38 66.0849L1084.81 66.0849L1084.81 62.034ZM1084.74 69.1889C1084.74 68.1896 1085.36 67.5775 1086.11 67.3975L1086.11 68.0636C1085.67 68.2436 1085.35 68.5677 1085.35 69.1889C1085.35 70.026 1085.89 70.5932 1087.63 70.6382C1087.17 70.3141 1086.9 69.783 1086.9 69.1438C1086.9 68.0456 1087.74 67.2084 1088.93 67.2084L1089.15 67.2084C1090.33 67.2084 1091.17 68.0456 1091.17 69.1889C1091.17 70.4491 1090.36 71.2593 1088.52 71.2593L1087.94 71.2593C1085.62 71.2593 1084.74 70.3861 1084.74 69.1889ZM1087.5 69.1889C1087.5 70.0351 1088.02 70.5842 1088.78 70.6112L1089.06 70.6112C1090.03 70.6112 1090.58 70.0621 1090.58 69.1889C1090.58 68.4057 1090.03 67.8566 1089.15 67.8566L1088.93 67.8566C1088.05 67.8566 1087.5 68.4057 1087.5 69.1889ZM1090.53 72.1121L1091.11 72.1121L1091.11 76.073L1090.53 76.073L1084.81 73.7234L1084.81 73.0573L1090.53 75.4158L1090.53 72.1121ZM1086.38 77.6705L1086.81 77.2474L1088.05 78.4897L1089.29 77.2474L1089.71 77.6705L1088.47 78.9128L1089.71 80.1551L1089.29 80.5782L1088.05 79.3359L1086.81 80.5782L1086.38 80.1551L1087.62 78.9128L1086.38 77.6705ZM1086.32 81.7921L1086.9 81.7921L1091.11 84.7447L1091.11 85.5279L1086.9 85.5279L1086.9 86.3831L1086.32 86.3831L1086.32 85.5279L1084.81 85.5279L1084.81 84.8978L1086.32 84.8978L1086.32 81.7921ZM1086.9 82.4852L1086.9 84.8978L1090.38 84.8978L1086.9 82.4852ZM1084.81 87.0621L1085.38 87.0621L1087.6 89.2946C1088.37 90.0688 1088.8 90.4649 1089.35 90.4649C1090.05 90.4649 1090.58 89.9338 1090.58 89.0876C1090.58 88.2414 1090.05 87.7103 1089.35 87.7103L1089.35 87.0621C1090.39 87.0621 1091.17 87.8543 1091.17 89.0876C1091.17 90.3209 1090.39 91.113 1089.35 91.113C1088.66 91.113 1088.05 90.6179 1087.23 89.7717L1085.38 87.8723L1085.38 91.113L1084.81 91.113L1084.81 87.0621ZM1084.74 94.352C1084.74 93.0917 1085.54 92.2815 1087.67 92.2815L1088.25 92.2815C1090.35 92.2815 1091.17 93.1007 1091.17 94.352C1091.17 95.6123 1090.37 96.4225 1088.25 96.4225L1087.67 96.4225C1085.56 96.4225 1084.74 95.6033 1084.74 94.352ZM1085.34 94.352C1085.34 95.2252 1085.89 95.7743 1087.67 95.7743L1088.25 95.7743C1090.02 95.7743 1090.58 95.2162 1090.58 94.352C1090.58 93.4788 1090.03 92.9297 1088.25 92.9297L1087.67 92.9297C1085.9 92.9297 1085.34 93.4878 1085.34 94.352ZM1085.93 99.8644L1087.69 98.9462L1088.66 98.4601L1084.81 98.4601L1084.81 97.866L1089.31 97.866L1089.31 98.6942L1086.53 100.17L1089.31 101.647L1089.31 102.457L1084.81 102.457L1084.81 101.863L1088.66 101.863L1087.69 101.377L1085.93 100.459L1085.93 99.8644ZM1085.93 105.983L1087.69 105.065L1088.66 104.579L1084.81 104.579L1084.81 103.985L1089.31 103.985L1089.31 104.813L1086.53 106.289L1089.31 107.765L1089.31 108.576L1084.81 108.576L1084.81 107.981L1088.66 107.981L1087.69 107.495L1085.93 106.577L1085.93 105.983Z" fill="black"/>
<rect x="981.754" y="170.846" width="129.876" height="169.346" fill="white"/>
<rect x="981.754" y="170.846" width="129.876" height="169.346" stroke="#0000FF" stroke-dasharray="3.46 3.46"/>
<path d="M1045.4 263.398L1043.74 258.9H1036.98L1035.34 263.398H1033.74L1039.5 247.887H1041.28L1047.04 263.398H1045.4ZM1039.08 253.205L1037.51 257.482H1043.23L1041.65 253.205L1040.37 249.66L1039.08 253.205ZM1048.15 259.676V258.258L1055.42 247.887H1057.35V258.258H1059.45V259.676H1057.35V263.398H1055.8V259.676H1048.15ZM1049.86 258.258H1055.8V249.682L1049.86 258.258Z" fill="black"/>
<path d="M1029.34 274.396V273.953L1031.06 272.25C1031.66 271.654 1031.96 271.322 1031.96 270.9C1031.96 270.359 1031.55 269.958 1030.9 269.958C1030.25 269.958 1029.84 270.359 1029.84 270.9H1029.34C1029.34 270.103 1029.95 269.501 1030.9 269.501C1031.85 269.501 1032.46 270.103 1032.46 270.9C1032.46 271.433 1032.08 271.904 1031.43 272.534L1029.97 273.953H1032.46V274.396H1029.34ZM1033.05 270.803V270.262L1034.09 269.549H1034.57V274.396H1034.09V270.096L1033.05 270.803ZM1037.37 274.445C1036.4 274.445 1035.78 273.829 1035.78 272.194V271.751C1035.78 270.131 1036.41 269.501 1037.37 269.501C1038.34 269.501 1038.97 270.117 1038.97 271.751V272.194C1038.97 273.815 1038.34 274.445 1037.37 274.445ZM1037.37 273.988C1038.05 273.988 1038.47 273.566 1038.47 272.194V271.751C1038.47 270.387 1038.04 269.958 1037.37 269.958C1036.7 269.958 1036.28 270.38 1036.28 271.751V272.194C1036.28 273.559 1036.71 273.988 1037.37 273.988ZM1040.57 273.185L1040.25 272.859L1041.21 271.904L1040.25 270.948L1040.57 270.623L1041.53 271.578L1042.49 270.623L1042.81 270.948L1041.86 271.904L1042.81 272.859L1042.49 273.185L1041.53 272.229L1040.57 273.185ZM1043.88 274.396V273.953L1045.6 272.25C1046.2 271.654 1046.5 271.322 1046.5 270.9C1046.5 270.359 1046.09 269.958 1045.44 269.958C1044.79 269.958 1044.38 270.359 1044.38 270.9H1043.88C1043.88 270.103 1044.49 269.501 1045.44 269.501C1046.39 269.501 1047 270.103 1047 270.9C1047 271.433 1046.62 271.904 1045.97 272.534L1044.51 273.953H1047V274.396H1043.88ZM1049.39 274.445C1048.62 274.445 1048.15 273.974 1048.01 273.392H1048.52C1048.66 273.732 1048.91 273.981 1049.39 273.981C1050.03 273.981 1050.47 273.566 1050.5 272.222C1050.25 272.575 1049.84 272.783 1049.35 272.783C1048.51 272.783 1047.86 272.139 1047.86 271.225V271.059C1047.86 270.145 1048.51 269.501 1049.39 269.501C1050.36 269.501 1050.98 270.124 1050.98 271.544V271.987C1050.98 273.773 1050.31 274.445 1049.39 274.445ZM1049.39 272.326C1050.04 272.326 1050.46 271.924 1050.48 271.343V271.128C1050.48 270.38 1050.06 269.958 1049.39 269.958C1048.79 269.958 1048.36 270.38 1048.36 271.059V271.225C1048.36 271.904 1048.79 272.326 1049.39 272.326ZM1051.64 269.992V269.549H1054.68V269.992L1052.88 274.396H1052.36L1054.18 269.992H1051.64ZM1056.95 273.531L1056.24 272.181L1055.87 271.433V274.396H1055.41V270.934H1056.05L1057.19 273.074L1058.32 270.934H1058.94V274.396H1058.49V271.433L1058.11 272.181L1057.41 273.531H1056.95ZM1061.66 273.531L1060.95 272.181L1060.58 271.433V274.396H1060.12V270.934H1060.76L1061.89 273.074L1063.03 270.934H1063.65V274.396H1063.19V271.433L1062.82 272.181L1062.11 273.531H1061.66Z" fill="black"/>
<rect x="1242.51" y="170.846" width="84.1731" height="130.568" transform="rotate(90 1242.51 170.846)" fill="white"/>
<rect x="1242.51" y="170.846" width="84.1731" height="130.568" transform="rotate(90 1242.51 170.846)" stroke="#0000FF" stroke-dasharray="3.46 3.46"/>
<path d="M1170.76 211.356L1174.14 210.11L1174.14 205.041L1170.76 203.811L1170.76 202.615L1182.4 206.936L1182.4 208.265L1170.76 212.586L1170.76 211.356ZM1178.41 206.62L1175.2 205.44L1175.2 209.728L1178.41 208.548L1181.07 207.584L1178.41 206.62ZM1176.08 214.255L1182.4 214.753L1182.4 220.819L1181.33 220.819L1181.33 215.817L1177.48 215.501C1178.07 216.083 1178.42 216.93 1178.42 217.911C1178.42 220.038 1176.89 221.567 1174.53 221.567C1172.19 221.567 1170.65 220.021 1170.65 217.745C1170.65 215.833 1171.63 214.354 1173.45 213.922L1173.45 215.152C1172.31 215.551 1171.74 216.465 1171.74 217.745C1171.74 219.323 1172.79 220.37 1174.53 220.37C1176.3 220.37 1177.33 219.34 1177.33 217.745C1177.33 216.631 1176.73 215.8 1176.08 215.401L1176.08 214.255Z" fill="black"/>
<path d="M1165.38 198.903L1165.81 198.903L1166.38 199.733L1166.38 200.121L1162.5 200.121L1162.5 199.733L1165.94 199.733L1165.38 198.903ZM1163.43 200.812L1163.79 200.812L1166.38 202.629L1166.38 203.111L1163.79 203.111L1163.79 203.637L1163.43 203.637L1163.43 203.111L1162.5 203.111L1162.5 202.723L1163.43 202.723L1163.43 200.812ZM1163.79 201.238L1163.79 202.723L1165.93 202.723L1163.79 201.238ZM1162.47 205.44C1162.47 204.625 1162.92 204.165 1163.56 204.165C1164.02 204.165 1164.35 204.431 1164.53 204.847C1164.69 204.498 1164.98 204.276 1165.4 204.276C1165.97 204.276 1166.42 204.753 1166.42 205.44C1166.42 206.143 1165.98 206.603 1165.4 206.603C1164.99 206.603 1164.69 206.37 1164.53 206.021C1164.35 206.442 1164.02 206.714 1163.56 206.714C1162.94 206.714 1162.47 206.237 1162.47 205.44ZM1162.83 205.44C1162.83 205.988 1163.16 206.315 1163.56 206.315C1164.03 206.315 1164.33 205.916 1164.37 205.44C1164.33 204.947 1164.05 204.564 1163.56 204.564C1163.16 204.564 1162.83 204.891 1162.83 205.44ZM1164.69 205.44C1164.73 205.827 1164.94 206.204 1165.4 206.204C1165.74 206.204 1166.05 205.916 1166.05 205.44C1166.05 204.963 1165.74 204.675 1165.4 204.675C1164.96 204.675 1164.73 205.068 1164.69 205.44ZM1163.47 207.943L1163.73 207.682L1164.5 208.447L1165.26 207.682L1165.52 207.943L1164.76 208.707L1165.52 209.472L1165.26 209.732L1164.5 208.968L1163.73 209.732L1163.47 209.472L1164.24 208.707L1163.47 207.943ZM1162.5 210.59L1162.86 210.59L1164.22 211.964C1164.7 212.44 1164.96 212.684 1165.3 212.684C1165.73 212.684 1166.05 212.357 1166.05 211.836C1166.05 211.316 1165.73 210.989 1165.3 210.989L1165.3 210.59C1165.94 210.59 1166.42 211.077 1166.42 211.836C1166.42 212.595 1165.94 213.083 1165.3 213.083C1164.87 213.083 1164.5 212.778 1163.99 212.257L1162.86 211.088L1162.86 213.083L1162.5 213.083L1162.5 210.59ZM1165.38 213.552L1165.81 213.552L1166.38 214.383L1166.38 214.771L1162.5 214.771L1162.5 214.383L1165.94 214.383L1165.38 213.552ZM1162.47 217.013C1162.47 216.237 1162.96 215.738 1164.27 215.738L1164.62 215.738C1165.92 215.738 1166.42 216.243 1166.42 217.013C1166.42 217.788 1165.93 218.287 1164.62 218.287L1164.27 218.287C1162.97 218.287 1162.47 217.783 1162.47 217.013ZM1162.83 217.013C1162.83 217.55 1163.17 217.888 1164.27 217.888L1164.62 217.888C1165.71 217.888 1166.05 217.544 1166.05 217.013C1166.05 216.475 1165.72 216.137 1164.62 216.137L1164.27 216.137C1163.17 216.137 1162.83 216.481 1162.83 217.013ZM1163.2 220.405L1164.28 219.84L1164.87 219.541L1162.5 219.541L1162.5 219.175L1165.27 219.175L1165.27 219.685L1163.56 220.593L1165.27 221.502L1165.27 222L1162.5 222L1162.5 221.635L1164.87 221.635L1164.28 221.336L1163.2 220.771L1163.2 220.405ZM1163.2 224.17L1164.28 223.605L1164.87 223.306L1162.5 223.306L1162.5 222.94L1165.27 222.94L1165.27 223.45L1163.56 224.359L1165.27 225.267L1165.27 225.766L1162.5 225.766L1162.5 225.4L1164.87 225.4L1164.28 225.101L1163.2 224.536L1163.2 224.17Z" fill="black"/>
<rect x="1111.94" y="255.326" width="64.7841" height="84.8656" fill="white"/>
<rect x="1111.94" y="255.326" width="64.7841" height="84.8656" stroke="#0000FF" stroke-dasharray="3.46 3.46"/>
<path d="M1143.86 302.297L1143.03 300.048H1139.65L1138.83 302.297H1138.03L1140.91 294.541H1141.8L1144.68 302.297H1143.86ZM1140.7 297.2L1139.91 299.339H1142.77L1141.98 297.2L1141.34 295.428L1140.7 297.2ZM1148.34 302.374C1146.79 302.374 1145.79 301.377 1145.79 299.106V298.397C1145.79 295.538 1146.86 294.464 1148.39 294.464C1149.57 294.464 1150.32 295.217 1150.54 296.148H1149.72C1149.5 295.605 1149.1 295.206 1148.39 295.206C1147.31 295.206 1146.6 295.871 1146.54 298.031C1146.94 297.455 1147.59 297.123 1148.39 297.123C1149.74 297.123 1150.77 298.153 1150.77 299.616V299.882C1150.77 301.344 1149.74 302.374 1148.34 302.374ZM1148.34 297.854C1147.28 297.854 1146.62 298.497 1146.59 299.438V299.771C1146.59 300.967 1147.26 301.643 1148.34 301.643C1149.3 301.643 1149.98 300.967 1149.98 299.882V299.616C1149.98 298.53 1149.3 297.854 1148.34 297.854Z" fill="black"/>
<path d="M1130.3 305.879V305.447L1131.13 304.876H1131.52V308.754H1131.13V305.314L1130.3 305.879ZM1133.76 308.793C1132.99 308.793 1132.49 308.3 1132.49 306.992V306.638C1132.49 305.341 1132.99 304.837 1133.76 304.837C1134.54 304.837 1135.04 305.33 1135.04 306.638V306.992C1135.04 308.289 1134.53 308.793 1133.76 308.793ZM1133.76 308.427C1134.3 308.427 1134.64 308.089 1134.64 306.992V306.638C1134.64 305.546 1134.29 305.203 1133.76 305.203C1133.22 305.203 1132.89 305.541 1132.89 306.638V306.992C1132.89 308.084 1133.23 308.427 1133.76 308.427ZM1135.87 306.981L1136.03 304.876H1138.06V305.231H1136.39L1136.28 306.516C1136.48 306.316 1136.76 306.2 1137.09 306.2C1137.8 306.2 1138.31 306.71 1138.31 307.496C1138.31 308.277 1137.79 308.793 1137.03 308.793C1136.39 308.793 1135.9 308.466 1135.76 307.856H1136.17C1136.3 308.239 1136.6 308.427 1137.03 308.427C1137.56 308.427 1137.91 308.078 1137.91 307.496C1137.91 306.909 1137.56 306.566 1137.03 306.566C1136.66 306.566 1136.38 306.765 1136.25 306.981H1135.87ZM1139.45 307.784L1139.19 307.524L1139.96 306.76L1139.19 305.995L1139.45 305.735L1140.22 306.499L1140.98 305.735L1141.24 305.995L1140.48 306.76L1141.24 307.524L1140.98 307.784L1140.22 307.02L1139.45 307.784ZM1142.02 305.879V305.447L1142.85 304.876H1143.24V308.754H1142.85V305.314L1142.02 305.879ZM1143.93 307.823V307.469L1145.74 304.876H1146.23V307.469H1146.75V307.823H1146.23V308.754H1145.84V307.823H1143.93ZM1144.35 307.469H1145.84V305.325L1144.35 307.469ZM1148.56 308.793C1147.74 308.793 1147.28 308.333 1147.28 307.701C1147.28 307.242 1147.55 306.904 1147.96 306.732C1147.61 306.571 1147.39 306.278 1147.39 305.862C1147.39 305.292 1147.87 304.837 1148.56 304.837C1149.26 304.837 1149.72 305.275 1149.72 305.862C1149.72 306.272 1149.49 306.566 1149.14 306.726C1149.56 306.904 1149.83 307.242 1149.83 307.701C1149.83 308.316 1149.35 308.793 1148.56 308.793ZM1148.56 308.427C1149.1 308.427 1149.43 308.095 1149.43 307.701C1149.43 307.225 1149.03 306.931 1148.56 306.893C1148.06 306.931 1147.68 307.208 1147.68 307.701C1147.68 308.095 1148.01 308.427 1148.56 308.427ZM1148.56 306.571C1148.94 306.532 1149.32 306.322 1149.32 305.862C1149.32 305.519 1149.03 305.203 1148.56 305.203C1148.08 305.203 1147.79 305.519 1147.79 305.862C1147.79 306.3 1148.18 306.532 1148.56 306.571ZM1151.89 308.061L1151.32 306.981L1151.03 306.383V308.754H1150.66V305.984H1151.17L1152.08 307.696L1152.99 305.984H1153.49V308.754H1153.12V306.383L1152.82 306.981L1152.26 308.061H1151.89ZM1155.66 308.061L1155.09 306.981L1154.79 306.383V308.754H1154.43V305.984H1154.93L1155.84 307.696L1156.75 305.984H1157.25V308.754H1156.88V306.383L1156.59 306.981L1156.02 308.061H1155.66Z" fill="black"/>
<rect x="1177.03" y="255.326" width="65.4766" height="84.8656" fill="white"/>
<rect x="1177.03" y="255.326" width="65.4766" height="84.8656" stroke="#0000FF" stroke-dasharray="3.46 3.46"/>
<path d="M1208.95 302.297L1208.12 300.048H1204.74L1203.92 302.297H1203.12L1206 294.541H1206.89L1209.77 302.297H1208.95ZM1205.79 297.2L1205 299.339H1207.86L1207.08 297.2L1206.43 295.428L1205.79 297.2ZM1213.43 302.374C1211.88 302.374 1210.88 301.377 1210.88 299.106V298.397C1210.88 295.538 1211.96 294.464 1213.48 294.464C1214.66 294.464 1215.41 295.217 1215.63 296.148H1214.81C1214.59 295.605 1214.19 295.206 1213.48 295.206C1212.4 295.206 1211.69 295.871 1211.63 298.031C1212.03 297.455 1212.69 297.123 1213.48 297.123C1214.84 297.123 1215.87 298.153 1215.87 299.616V299.882C1215.87 301.344 1214.84 302.374 1213.43 302.374ZM1213.43 297.854C1212.38 297.854 1211.71 298.497 1211.68 299.438V299.771C1211.68 300.967 1212.35 301.643 1213.43 301.643C1214.39 301.643 1215.07 300.967 1215.07 299.882V299.616C1215.07 298.53 1214.39 297.854 1213.43 297.854Z" fill="black"/>
<path d="M1196.08 305.879V305.447L1196.92 304.876H1197.3V308.754H1196.92V305.314L1196.08 305.879ZM1199.54 308.793C1198.77 308.793 1198.27 308.3 1198.27 306.992V306.638C1198.27 305.341 1198.77 304.837 1199.54 304.837C1200.32 304.837 1200.82 305.33 1200.82 306.638V306.992C1200.82 308.289 1200.31 308.793 1199.54 308.793ZM1199.54 308.427C1200.08 308.427 1200.42 308.089 1200.42 306.992V306.638C1200.42 305.546 1200.08 305.203 1199.54 305.203C1199.01 305.203 1198.67 305.541 1198.67 306.638V306.992C1198.67 308.084 1199.01 308.427 1199.54 308.427ZM1201.65 306.981L1201.82 304.876H1203.84V305.231H1202.17L1202.07 306.516C1202.26 306.316 1202.54 306.2 1202.87 306.2C1203.58 306.2 1204.09 306.71 1204.09 307.496C1204.09 308.277 1203.57 308.793 1202.81 308.793C1202.18 308.793 1201.68 308.466 1201.54 307.856H1201.95C1202.08 308.239 1202.39 308.427 1202.81 308.427C1203.34 308.427 1203.69 308.078 1203.69 307.496C1203.69 306.909 1203.35 306.566 1202.81 306.566C1202.44 306.566 1202.17 306.765 1202.03 306.981H1201.65ZM1205.24 307.784L1204.98 307.524L1205.74 306.76L1204.98 305.995L1205.24 305.735L1206 306.499L1206.77 305.735L1207.03 305.995L1206.26 306.76L1207.03 307.524L1206.77 307.784L1206 307.02L1205.24 307.784ZM1207.8 305.879V305.447L1208.63 304.876H1209.02V308.754H1208.63V305.314L1207.8 305.879ZM1209.71 307.823V307.469L1211.53 304.876H1212.01V307.469H1212.54V307.823H1212.01V308.754H1211.62V307.823H1209.71ZM1210.14 307.469H1211.62V305.325L1210.14 307.469ZM1214.34 308.793C1213.52 308.793 1213.06 308.333 1213.06 307.701C1213.06 307.242 1213.33 306.904 1213.75 306.732C1213.4 306.571 1213.18 306.278 1213.18 305.862C1213.18 305.292 1213.65 304.837 1214.34 304.837C1215.04 304.837 1215.5 305.275 1215.5 305.862C1215.5 306.272 1215.27 306.566 1214.92 306.726C1215.34 306.904 1215.61 307.242 1215.61 307.701C1215.61 308.316 1215.14 308.793 1214.34 308.793ZM1214.34 308.427C1214.89 308.427 1215.21 308.095 1215.21 307.701C1215.21 307.225 1214.82 306.931 1214.34 306.893C1213.85 306.931 1213.46 307.208 1213.46 307.701C1213.46 308.095 1213.79 308.427 1214.34 308.427ZM1214.34 306.571C1214.73 306.532 1215.1 306.322 1215.1 305.862C1215.1 305.519 1214.82 305.203 1214.34 305.203C1213.86 305.203 1213.57 305.519 1213.57 305.862C1213.57 306.3 1213.97 306.532 1214.34 306.571ZM1217.67 308.061L1217.11 306.981L1216.81 306.383V308.754H1216.44V305.984H1216.95L1217.86 307.696L1218.77 305.984H1219.27V308.754H1218.9V306.383L1218.6 306.981L1218.04 308.061H1217.67ZM1221.44 308.061L1220.87 306.981L1220.57 306.383V308.754H1220.21V305.984H1220.72L1221.63 307.696L1222.54 305.984H1223.03V308.754H1222.67V306.383L1222.37 306.981L1221.8 308.061H1221.44Z" fill="black"/>
<g clip-path="url(#clip2_332_669)">
<rect x="718.811" width="263.136" height="340.692" fill="white"/>
<path d="M847.857 185.828L844.524 176.808H830.971L827.683 185.828H824.484L836.037 154.724H839.592L851.145 185.828H847.857ZM835.193 165.388L832.038 173.964H843.502L840.347 165.388L837.77 158.278L835.193 165.388ZM854.273 185.828V182.984L865.293 172.053C869.114 168.232 871.069 166.099 871.069 163.388C871.069 159.923 868.447 157.345 864.271 157.345C860.094 157.345 857.472 159.923 857.472 163.388H854.273C854.273 158.278 858.183 154.413 864.271 154.413C870.358 154.413 874.268 158.278 874.268 163.388C874.268 166.81 871.825 169.832 867.648 173.875L858.272 182.984H874.268V185.828H854.273Z" fill="black"/>
<path d="M820.187 204.24V203.531L823.821 198.346H824.785V203.531H825.838V204.24H824.785V206.102H824.01V204.24H820.187ZM821.04 203.531H824.01V199.243L821.04 203.531ZM826.673 206.102V205.392L829.421 202.667C830.374 201.714 830.861 201.182 830.861 200.506C830.861 199.642 830.208 199 829.166 199C828.125 199 827.471 199.642 827.471 200.506H826.673C826.673 199.232 827.648 198.268 829.166 198.268C830.684 198.268 831.659 199.232 831.659 200.506C831.659 201.36 831.05 202.113 830.008 203.121L827.671 205.392H831.659V206.102H826.673ZM835.646 206.179C834.094 206.179 833.097 205.193 833.097 202.578V201.869C833.097 199.277 834.106 198.268 835.646 198.268C837.197 198.268 838.194 199.254 838.194 201.869V202.578C838.194 205.171 837.186 206.179 835.646 206.179ZM835.646 205.448C836.72 205.448 837.396 204.772 837.396 202.578V201.869C837.396 199.687 836.709 199 835.646 199C834.571 199 833.895 199.675 833.895 201.869V202.578C833.895 204.761 834.582 205.448 835.646 205.448ZM840.768 204.163L840.247 203.642L841.776 202.113L840.247 200.584L840.768 200.063L842.297 201.592L843.826 200.063L844.347 200.584L842.818 202.113L844.347 203.642L843.826 204.163L842.297 202.634L840.768 204.163ZM846.395 202.556L846.727 198.346H850.771V199.055H847.436L847.226 201.625C847.613 201.227 848.179 200.994 848.832 200.994C850.25 200.994 851.27 202.013 851.27 203.587C851.27 205.149 850.239 206.179 848.721 206.179C847.447 206.179 846.461 205.525 846.173 204.307H846.993C847.259 205.071 847.868 205.448 848.721 205.448C849.774 205.448 850.472 204.75 850.472 203.587C850.472 202.412 849.785 201.725 848.721 201.725C847.979 201.725 847.425 202.124 847.159 202.556H846.395ZM855.041 206.179C853.812 206.179 853.058 205.426 852.837 204.495H853.657C853.878 205.038 854.277 205.437 855.041 205.437C856.072 205.437 856.77 204.772 856.825 202.623C856.426 203.188 855.773 203.52 854.986 203.52C853.634 203.52 852.604 202.49 852.604 201.027V200.761C852.604 199.299 853.634 198.268 855.041 198.268C856.593 198.268 857.59 199.266 857.59 201.537V202.246C857.59 205.104 856.515 206.179 855.041 206.179ZM855.041 202.789C856.083 202.789 856.759 202.146 856.792 201.216V200.872C856.792 199.675 856.116 199 855.041 199C854.078 199 853.402 199.675 853.402 200.761V201.027C853.402 202.113 854.078 202.789 855.041 202.789ZM858.695 204.24V203.531L862.329 198.346H863.293V203.531H864.345V204.24H863.293V206.102H862.517V204.24H858.695ZM859.548 203.531H862.517V199.243L859.548 203.531ZM868.084 204.717L866.954 202.556L866.355 201.36V206.102H865.624V200.562H866.643L868.46 203.985L870.277 200.562H871.275V206.102H870.543V201.36L869.945 202.556L868.815 204.717H868.084ZM875.614 204.717L874.484 202.556L873.886 201.36V206.102H873.155V200.562H874.174L875.991 203.985L877.808 200.562H878.805V206.102H878.074V201.36L877.476 202.556L876.345 204.717H875.614Z" fill="black"/>
<path d="M981 280.5H981.5V280.289L981.348 280.141L981 280.5ZM981 339.5V340H981.5V339.5H981ZM900.5 339.5L900.206 339.904L900.337 340H900.5V339.5ZM849 302L848.59 301.714L848.31 302.116L848.706 302.404L849 302ZM864 280.5V280H863.739L863.59 280.214L864 280.5ZM949.5 280.5V281H949.75L949.9 280.8L949.5 280.5ZM960 266.5L960.277 266.084L959.884 265.822L959.6 266.2L960 266.5ZM964 264L964.348 263.641L963.931 263.236L963.593 263.709L964 264ZM851.5 298.417L851.91 298.703H851.91L851.5 298.417ZM849 296.5L848.61 296.188L848.291 296.586L848.696 296.897L849 296.5ZM867 274L867.027 273.501L866.77 273.487L866.61 273.688L867 274ZM999.5 281.997L993.821 283.036L997.56 287.435L999.5 281.997ZM981 280.5H980.5V339.5H981H981.5V280.5H981ZM981 339.5V339H900.5V339.5V340H981V339.5ZM900.5 339.5L900.794 339.096L849.294 301.596L849 302L848.706 302.404L900.206 339.904L900.5 339.5ZM864 280.5V281H949.5V280.5V280H864V280.5ZM981 280.5L981.348 280.141L964.348 263.641L964 264L963.652 264.359L980.652 280.859L981 280.5ZM960 266.5L959.723 266.916L961.223 267.916L961.5 267.5L961.777 267.084L960.277 266.084L960 266.5ZM961.5 267.5L961.223 267.916L980.723 280.916L981 280.5L981.277 280.084L961.777 267.084L961.5 267.5ZM964 264L963.593 263.709L961.093 267.209L961.5 267.5L961.907 267.791L964.407 264.291L964 264ZM849 302L849.41 302.286L851.91 298.703L851.5 298.417L851.09 298.131L848.59 301.714L849 302ZM851.5 298.417L851.91 298.703L864.41 280.786L864 280.5L863.59 280.214L851.09 298.131L851.5 298.417ZM851.5 298.417L851.804 298.02L849.304 296.103L849 296.5L848.696 296.897L851.196 298.813L851.5 298.417ZM849 296.5L849.39 296.812L867.39 274.312L867 274L866.61 273.688L848.61 296.188L849 296.5ZM949.5 280.5L949.9 280.8L951.4 278.8L951 278.5L950.6 278.2L949.1 280.2L949.5 280.5ZM951 278.5L951.4 278.8L960.4 266.8L960 266.5L959.6 266.2L950.6 278.2L951 278.5ZM867 274L866.973 274.499L950.973 278.999L951 278.5L951.027 278.001L867.027 273.501L867 274ZM892.5 317.497L892.444 317.994C917.815 320.866 937.726 317.799 954.343 311.449C970.955 305.101 984.249 295.483 996.393 285.294L996.071 284.911L995.75 284.528C983.642 294.687 970.448 304.225 953.986 310.515C937.53 316.803 917.781 319.856 892.556 317L892.5 317.497Z" fill="#0000FF"/>
<line x1="949.443" y1="280.265" x2="980.443" y2="339.264" stroke="#0000FF" stroke-dasharray="3 3"/>
<path d="M950.195 279.642L914.108 328.851M906.194 339.643L914.108 328.851M900.499 339.497L914.108 328.851" stroke="#0000FF" stroke-width="0.5"/>
</g>
<rect x="719.311" y="0.5" width="262.136" height="339.692" stroke="#0000FF" stroke-dasharray="3.46 3.46"/>
<path d="M271.728 74V58.784H254.352V74H249.84V40.4H254.352V54.656H271.728V40.4H276.24V74H271.728ZM289.678 74.384C284.686 74.384 281.998 71.696 281.998 67.28C281.998 62.384 284.926 59.456 292.558 59.456H297.358V57.68C297.358 54.992 295.822 53.456 292.558 53.456C289.342 53.456 287.998 54.8 287.758 56.72H282.958C283.198 52.64 286.222 49.616 292.558 49.616C298.558 49.616 301.678 52.736 301.678 57.68V74H298.318L297.79 70.064C296.062 72.8 293.182 74.384 289.678 74.384ZM290.158 70.544C294.334 70.544 297.358 67.52 297.358 63.968V63.104H292.558C288.142 63.104 286.51 64.736 286.51 67.184C286.51 69.2 287.854 70.544 290.158 70.544ZM322.056 74V65.792C320.664 66.08 318.888 66.368 316.776 66.368C310.056 66.368 307.176 63.488 307.176 57.2V50H311.496V57.2C311.496 61.136 312.792 62.432 316.776 62.432C318.84 62.432 320.712 62.144 322.056 61.856V50H326.376V74H322.056ZM342.913 74.384C336.481 74.384 332.113 70.016 332.113 62.912V61.088C332.113 54.08 336.577 49.616 342.913 49.616C349.297 49.616 353.713 54.032 353.713 61.088V63.392H336.625C336.769 68.048 339.313 70.448 342.913 70.448C346.705 70.448 348.097 69.056 349.057 66.56H353.473C352.513 71.264 349.393 74.384 342.913 74.384ZM342.913 53.552C339.505 53.552 337.105 55.568 336.673 59.648H349.105C348.721 55.424 346.513 53.552 342.913 53.552ZM371.091 74.384C367.971 74.384 365.475 73.328 363.795 71.264V83.6H359.475V50H362.835L363.267 53.456C364.947 50.912 367.683 49.616 371.139 49.616C376.563 49.616 380.595 53.648 380.595 61.088V62.912C380.595 70.304 376.515 74.384 371.091 74.384ZM369.939 70.256C373.779 70.256 376.083 67.952 376.083 62.912V61.088C376.083 56.144 373.731 53.744 369.939 53.744C366.483 53.744 363.891 56.192 363.795 60.752V62.912C363.795 67.616 366.387 70.256 369.939 70.256ZM382.757 53.936V50H402.437V53.936H394.757V74H390.437V53.936H382.757ZM412.538 74.384C407.546 74.384 404.858 71.696 404.858 67.28C404.858 62.384 407.786 59.456 415.418 59.456H420.218V57.68C420.218 54.992 418.682 53.456 415.418 53.456C412.202 53.456 410.858 54.8 410.618 56.72H405.818C406.058 52.64 409.082 49.616 415.418 49.616C421.418 49.616 424.538 52.736 424.538 57.68V74H421.178L420.65 70.064C418.922 72.8 416.042 74.384 412.538 74.384ZM413.018 70.544C417.194 70.544 420.218 67.52 420.218 63.968V63.104H415.418C411.002 63.104 409.37 64.736 409.37 67.184C409.37 69.2 410.714 70.544 413.018 70.544ZM447.795 74V63.728H435.795V74H431.475V50H435.795V59.792H447.795V50H452.115V74H447.795ZM475.639 74V55.136L472.999 60.08L464.887 74H459.319V50H463.639V68.864L466.279 63.92L474.391 50H479.959V74H475.639ZM485.723 57.872C485.723 52.832 488.555 50 496.043 50H504.443V74H500.123V65.648H496.043C495.323 65.648 494.651 65.648 494.027 65.6L489.562 74H484.763L489.947 64.736C486.923 63.488 485.723 61.136 485.723 57.872ZM490.235 57.872C490.235 60.368 491.579 61.712 496.043 61.712H500.123V53.936H496.043C491.579 53.936 490.235 55.28 490.235 57.872Z" fill="black"/>
<path d="M248 104H248.92V117.16H255.7V118H248V104ZM258.413 108H259.293V118H258.413V108ZM258.853 106C258.653 106 258.486 105.933 258.353 105.8C258.22 105.667 258.153 105.5 258.153 105.3C258.153 105.1 258.22 104.933 258.353 104.8C258.486 104.667 258.653 104.6 258.853 104.6C259.053 104.6 259.22 104.667 259.353 104.8C259.486 104.933 259.553 105.1 259.553 105.3C259.553 105.5 259.486 105.667 259.353 105.8C259.22 105.933 259.053 106 258.853 106ZM266.59 117.72C266.017 117.72 265.49 117.627 265.01 117.44C264.543 117.24 264.137 116.953 263.79 116.58C263.457 116.193 263.19 115.727 262.99 115.18C262.803 114.633 262.71 114.007 262.71 113.3V112.3C262.71 111.593 262.803 110.967 262.99 110.42C263.19 109.873 263.457 109.413 263.79 109.04C264.137 108.653 264.55 108.367 265.03 108.18C265.51 107.98 266.043 107.88 266.63 107.88C267.35 107.88 267.99 108.047 268.55 108.38C269.11 108.7 269.557 109.18 269.89 109.82L269.99 108H270.71V118C270.71 119.307 270.37 120.32 269.69 121.04C269.023 121.76 268.083 122.12 266.87 122.12C265.697 122.12 264.817 121.853 264.23 121.32C263.657 120.8 263.317 120.093 263.21 119.2H264.09C264.197 119.853 264.463 120.36 264.89 120.72C265.33 121.093 265.99 121.28 266.87 121.28C267.843 121.28 268.577 121 269.07 120.44C269.577 119.893 269.83 119.08 269.83 118V115.9C269.483 116.5 269.03 116.953 268.47 117.26C267.923 117.567 267.297 117.72 266.59 117.72ZM266.73 116.88C267.157 116.88 267.55 116.8 267.91 116.64C268.283 116.48 268.61 116.253 268.89 115.96C269.17 115.667 269.39 115.313 269.55 114.9C269.71 114.473 269.803 113.993 269.83 113.46V112.3C269.83 111.74 269.75 111.24 269.59 110.8C269.43 110.36 269.21 109.987 268.93 109.68C268.65 109.373 268.317 109.14 267.93 108.98C267.557 108.807 267.15 108.72 266.71 108.72C265.803 108.72 265.063 109.027 264.49 109.64C263.917 110.253 263.63 111.14 263.63 112.3V113.3C263.63 114.46 263.917 115.347 264.49 115.96C265.063 116.573 265.81 116.88 266.73 116.88ZM274.502 104H275.382V109.66C275.715 109.1 276.168 108.667 276.742 108.36C277.315 108.04 277.982 107.88 278.742 107.88C279.835 107.88 280.702 108.22 281.342 108.9C281.982 109.567 282.302 110.567 282.302 111.9V118H281.422V111.9C281.422 110.833 281.168 110.04 280.662 109.52C280.168 108.987 279.482 108.72 278.602 108.72C278.135 108.72 277.708 108.793 277.322 108.94C276.935 109.087 276.602 109.3 276.322 109.58C276.042 109.847 275.815 110.167 275.642 110.54C275.482 110.913 275.395 111.32 275.382 111.76V118H274.502V104ZM284.61 108H286.41V105.2H287.29V108H290.01V108.8H287.29V115.52C287.29 116.12 287.417 116.553 287.67 116.82C287.923 117.073 288.33 117.2 288.89 117.2H290.21V118H288.81C287.21 118 286.41 117.207 286.41 115.62V108.8H284.61V108Z" fill="black"/>
<path d="M246 120H262.391V121H246V120ZM271.359 120H291.11V121H271.359V120Z" fill="black"/>
<path d="M256.04 157L253.02 151.24C252.76 151.26 252.48 151.28 252.2 151.28H249.2V157H247.8V143H252.2C255.62 143 257.2 144.58 257.2 147.14C257.2 149.04 256.28 150.42 254.4 151L257.6 157H256.04ZM252.2 144.28H249.2V150H252.2C254.66 150 255.76 148.9 255.76 147.14C255.76 145.38 254.66 144.28 252.2 144.28ZM263.802 157.14C261.182 157.14 259.502 155.46 259.502 152.44V151.56C259.502 148.56 261.202 146.86 263.802 146.86C266.402 146.86 268.102 148.56 268.102 151.56V152.38H260.862V152.44C260.862 154.74 262.022 155.9 263.802 155.9C265.462 155.9 266.242 155.12 266.642 154.08H268.002C267.602 155.8 266.262 157.14 263.802 157.14ZM263.802 148.1C262.082 148.1 260.982 149.22 260.862 151.22H266.722C266.622 149.14 265.482 148.1 263.802 148.1ZM274.223 156.74C271.903 156.74 270.303 155.14 270.303 152.24V151.36C270.303 148.5 271.943 146.86 274.223 146.86C275.683 146.86 276.863 147.46 277.523 148.64L277.683 147H278.703V157C278.703 159.66 277.223 161.14 274.663 161.14C272.183 161.14 271.003 159.96 270.803 158.1H272.123C272.323 159.24 272.983 159.9 274.663 159.9C276.483 159.9 277.383 159 277.383 157V155.18C276.703 156.22 275.603 156.74 274.223 156.74ZM274.523 155.5C276.163 155.5 277.323 154.32 277.383 152.4V151.22C277.323 149.24 276.163 148.1 274.523 148.1C272.803 148.1 271.663 149.24 271.663 151.36V152.24C271.663 154.34 272.823 155.5 274.523 155.5ZM285.595 157.14C283.415 157.14 281.995 155.72 281.995 153V147H283.315V153C283.315 154.94 284.275 155.9 285.795 155.9C287.495 155.9 288.675 154.72 288.675 153V147H289.995V157H288.975L288.815 155.36C288.155 156.5 286.995 157.14 285.595 157.14ZM296.003 157C294.323 157 293.403 156.08 293.403 154.36V143H294.723V154.2C294.723 155.3 295.203 155.8 296.163 155.8H296.803V157H296.003ZM301.702 157.14C299.702 157.14 298.602 156.04 298.602 154.24C298.602 152.3 299.802 151.1 302.802 151.1H305.082V150.2C305.082 148.76 304.422 148.1 302.802 148.1C301.342 148.1 300.622 148.72 300.522 149.7H299.102C299.202 148.06 300.402 146.86 302.802 146.86C305.162 146.86 306.402 148.1 306.402 150.2V157H305.382L305.182 155.12C304.482 156.38 303.202 157.14 301.702 157.14ZM301.802 155.9C303.642 155.9 305.082 154.46 305.082 152.76V152.3H302.802C300.742 152.3 299.962 153.08 299.962 154.24C299.962 155.26 300.602 155.9 301.802 155.9ZM309.692 157V147H310.712L310.872 148.64C311.512 147.5 312.672 146.86 314.092 146.86H315.092V148.1H314.092C312.232 148.1 311.072 149.22 311.012 150.88V157H309.692Z" fill="black"/>
<path d="M246 159H270V160H246V159ZM279.344 159H315.592V160H279.344V159Z" fill="black"/>
<path d="M253.16 192.1L250.36 186.2L249.48 184.1V196H247.6V182H250.28L254.14 190.1L257.96 182H260.6V196H258.72V184.08L257.82 186.2L255.04 192.1H253.16ZM267.591 196.16C264.911 196.16 263.091 194.34 263.091 191.38V190.62C263.091 187.7 264.951 185.84 267.591 185.84C270.251 185.84 272.091 187.68 272.091 190.62V191.58H264.971C265.031 193.52 266.091 194.52 267.591 194.52C269.171 194.52 269.751 193.94 270.151 192.9H271.991C271.591 194.86 270.291 196.16 267.591 196.16ZM267.591 187.48C266.171 187.48 265.171 188.32 264.991 190.02H270.171C270.011 188.26 269.091 187.48 267.591 187.48ZM277.832 196.16C275.552 196.16 273.892 194.5 273.892 191.38V190.62C273.892 187.52 275.572 185.84 277.852 185.84C279.132 185.84 280.172 186.28 280.892 187.16V182H282.692V196H281.292L281.092 194.58C280.392 195.64 279.252 196.16 277.832 196.16ZM278.332 194.44C279.772 194.44 280.832 193.42 280.892 191.54V190.48C280.832 188.58 279.772 187.56 278.332 187.56C276.752 187.56 275.772 188.54 275.772 190.62V191.38C275.772 193.42 276.772 194.44 278.332 194.44ZM285.844 196V186H287.644V196H285.844ZM286.744 184.48C286.064 184.48 285.544 183.96 285.544 183.28C285.544 182.6 286.064 182.08 286.744 182.08C287.424 182.08 287.944 182.6 287.944 183.28C287.944 183.96 287.424 184.48 286.744 184.48ZM294.401 196.16C292.201 196.16 290.701 194.66 290.701 191.9V186H292.501V191.9C292.501 193.6 293.341 194.44 294.701 194.44C296.221 194.44 297.241 193.46 297.301 192.02V186H299.101V196H297.701L297.521 194.62C296.821 195.6 295.721 196.16 294.401 196.16ZM302.109 196V186H303.509L303.689 187.36C304.369 186.38 305.429 185.84 306.709 185.84C308.069 185.84 309.169 186.48 309.789 187.66C310.469 186.52 311.669 185.84 313.109 185.84C315.209 185.84 316.709 187.34 316.709 190.1V196H314.909V190.1C314.909 188.4 314.069 187.56 312.709 187.56C311.369 187.56 310.349 188.56 310.309 190V196H308.509V190.1C308.509 188.4 307.669 187.56 306.309 187.56C304.969 187.56 303.949 188.52 303.909 190V196H302.109Z" fill="black"/>
<path d="M246 198H318.109V199H246V198Z" fill="black"/>
<path d="M247.4 235V221H252.1C255.8 221 257.2 222.4 257.2 224.8C257.2 226.02 256.62 227.08 255.4 227.72C256.9 228.34 257.6 229.52 257.6 230.96C257.6 233.6 256.2 235 252.5 235H247.4ZM252.5 228.78H249.8V232.96H252.5C254.4 232.96 255.08 232.28 255.08 230.86C255.08 229.46 254.4 228.78 252.5 228.78ZM252.1 223.04H249.8V226.82H252.1C254 226.82 254.68 226.14 254.68 224.92C254.68 223.72 254 223.04 252.1 223.04ZM263.902 235.18C260.902 235.18 259.102 233.38 259.102 230.32V229.68C259.102 226.66 260.942 224.82 263.902 224.82C266.902 224.82 268.702 226.62 268.702 229.68V230.32C268.702 233.34 266.862 235.18 263.902 235.18ZM263.902 233.02C265.402 233.02 266.262 232.16 266.262 230.32V229.68C266.262 227.88 265.362 226.98 263.902 226.98C262.402 226.98 261.542 227.84 261.542 229.68V230.32C261.542 232.12 262.442 233.02 263.902 233.02ZM273.978 235C271.878 235 270.698 233.82 270.698 231.7V221H273.018V231.46C273.018 232.5 273.478 232.96 274.398 232.96H274.898V235H273.978ZM279.762 235.18C277.442 235.18 275.802 233.56 275.802 230.32V229.68C275.802 226.5 277.482 224.82 279.762 224.82C280.982 224.82 281.982 225.22 282.682 226V221H285.002V235H283.182L282.962 233.66C282.262 234.68 281.142 235.18 279.762 235.18ZM280.462 233.02C281.702 233.02 282.622 232.14 282.682 230.46V229.68C282.682 227.92 281.742 226.98 280.462 226.98C279.062 226.98 278.242 227.78 278.242 229.68V230.32C278.242 232.16 279.102 233.02 280.462 233.02Z" fill="black"/>
<path d="M246 237H286.302V238H246V237Z" fill="black"/>
<path d="M436 104H444V104.86H436.92V109.92H440.4C441.893 109.92 443.033 110.293 443.82 111.04C444.607 111.773 445 112.747 445 113.96C445 115.213 444.613 116.2 443.84 116.92C443.067 117.64 441.92 118 440.4 118H436V104ZM436.92 110.76V117.16H440.4C441.613 117.16 442.52 116.88 443.12 116.32C443.733 115.747 444.04 114.96 444.04 113.96C444.04 112.987 443.733 112.213 443.12 111.64C442.507 111.053 441.6 110.76 440.4 110.76H436.92ZM451.716 113.98L446.616 104H447.696L452.216 112.94L456.176 104H457.216L450.956 118H449.916L451.716 113.98ZM461.943 107L460.943 105.18V118H460.023V104H461.303L466.143 112.7L470.983 104H472.223V118H471.303V105.18L470.303 107L466.583 113.7H465.663L461.943 107ZM483.935 113.72H477.455L475.875 118H474.915L480.115 104H481.315L486.515 118H485.515L483.935 113.72ZM477.755 112.88H483.615L480.695 104.94L479.395 108.48L477.755 112.88ZM489.223 104H496.923V104.84H490.143V118H489.223V104ZM505.243 113.72H498.763L497.183 118H496.223L501.423 104H502.623L507.823 118H506.823L505.243 113.72ZM499.063 112.88H504.923L502.003 104.94L500.703 108.48L499.063 112.88Z" fill="black"/>
<path d="M435.8 157V143H444.2V144.28H437.2V148.72H440.4C443.58 148.72 445.2 150.34 445.2 152.86C445.2 155.42 443.62 157 440.4 157H435.8ZM440.4 150H437.2V155.72H440.4C442.7 155.72 443.76 154.66 443.76 152.86C443.76 151.08 442.66 150 440.4 150ZM449.716 157L451.476 153L446.416 143H447.976L452.216 151.5L455.896 143H457.416L451.236 157H449.716ZM465.423 152.9L462.123 146.6L461.223 144.66V157H459.823V143H461.703L466.143 151.48L470.583 143H472.423V157H471.023V144.66L470.123 146.6L466.823 152.9H465.423ZM485.235 157L483.735 152.94H477.635L476.155 157H474.715L479.915 143H481.515L486.715 157H485.235ZM479.535 147.8L478.115 151.66H483.275L481.855 147.8L480.695 144.6L479.535 147.8ZM489.023 157V143H497.023V144.28H490.423V157H489.023ZM506.543 157L505.043 152.94H498.943L497.463 157H496.023L501.223 143H502.823L508.023 157H506.543ZM500.843 147.8L499.423 151.66H504.583L503.163 147.8L502.003 144.6L500.843 147.8Z" fill="black"/>
<path d="M435.6 196V182H444.4V183.72H437.48V187.44H440.38C443.7 187.44 445.4 189.14 445.4 191.74C445.4 194.38 443.78 196 440.38 196H435.6ZM440.38 189.16H437.48V194.28H440.38C442.54 194.28 443.46 193.36 443.46 191.74C443.46 190.12 442.5 189.16 440.38 189.16ZM449.516 196L451.236 192.06L446.216 182H448.336L452.236 190L455.576 182H457.616L451.556 196H449.516ZM465.183 192.1L462.383 186.2L461.503 184.1V196H459.623V182H462.303L466.163 190.1L469.983 182H472.623V196H470.743V184.08L469.843 186.2L467.063 192.1H465.183ZM484.875 196L483.515 192.16H477.835L476.475 196H474.515L479.615 182H481.815L486.915 196H484.875ZM479.655 187.08L478.455 190.44H482.895L481.715 187.08L480.695 184.1L479.655 187.08ZM488.823 196V182H497.123V183.72H490.703V196H488.823ZM506.183 196L504.823 192.16H499.143L497.783 196H495.823L500.923 182H503.123L508.223 196H506.183ZM500.963 187.08L499.763 190.44H504.203L503.023 187.08L502.003 184.1L500.963 187.08Z" fill="black"/>
<path d="M435.4 235V221H444.6V223.12H437.8V226.16H440.4C443.78 226.16 445.6 227.98 445.6 230.58C445.6 233.36 443.96 235 440.4 235H435.4ZM440.4 228.28H437.8V232.88H440.4C442.18 232.88 443.08 231.98 443.08 230.58C443.08 229.26 442.1 228.28 440.4 228.28ZM449.216 235L450.916 231.06L446.016 221H448.736L452.216 228.44L455.216 221H457.816L451.816 235H449.216ZM464.923 231.3L462.643 225.8L461.823 223.68V235H459.423V221H463.023L466.143 228.58L469.263 221H472.823V235H470.423V223.66L469.583 225.8L467.323 231.3H464.923ZM484.475 235L483.295 231.46H477.995L476.835 235H474.315L479.315 221H482.115L487.115 235H484.475ZM479.715 226.28L478.695 229.34H482.595L481.595 226.28L480.655 223.4L479.715 226.28ZM488.623 235V221H497.223V223.12H491.023V235H488.623ZM505.783 235L504.603 231.46H499.303L498.143 235H495.623L500.623 221H503.423L508.423 235H505.783ZM501.023 226.28L500.003 229.34H503.903L502.903 226.28L501.963 223.4L501.023 226.28Z" fill="black"/>
</g>
<defs>
<clipPath id="clip0_332_669">
<rect width="1440" height="680" fill="white"/>
</clipPath>
<clipPath id="clip1_332_669">
<rect x="1243.01" y="340" width="340" height="524.195" transform="rotate(90 1243.01 340)" fill="white"/>
</clipPath>
<clipPath id="clip2_332_669">
<rect x="718.811" width="263.136" height="340.692" fill="white"/>
</clipPath>
</defs>
</svg>
