<svg width="295" height="123" viewBox="0 0 295 123" fill="none" xmlns="http://www.w3.org/2000/svg">
<path d="M28.3897 40.3833H23.7804V59.9732H17.0234V15.3984H23.7804V33.2598H28.3897V15.3984H35.1467V60.0256H28.3897V40.3833Z" fill="black"/>
<path d="M46.7749 60.4971H45.4654C40.0703 60.4971 37.1895 57.5638 37.1895 52.064V43.1072H43.894V50.9117C43.894 52.9545 44.5749 54.0544 46.0939 54.0544C47.7177 54.0544 48.2939 52.9545 48.2939 50.2307V49.2355C48.2939 46.0404 47.9796 44.9404 45.5178 41.7453L41.275 36.1407C38.3942 32.4218 37.5561 29.5409 37.5561 25.0887V23.6744C37.5561 17.7556 40.5417 14.9795 45.8844 14.9795H47.1415C52.6937 14.9795 54.8936 17.4413 54.8936 22.7316V30.0647H48.3462V23.6221C48.3462 22.1031 48.032 21.0031 46.4082 21.0031C44.7844 21.0031 44.4178 21.9983 44.4178 24.1459V24.9839C44.4178 27.4981 44.8892 28.86 47.1939 31.8456L51.489 37.3978C54.527 41.3786 55.5222 43.631 55.5222 48.6594V50.0736C55.5222 56.621 52.6937 60.4971 46.7749 60.4971Z" fill="black"/>
<path d="M72.8604 15.3984V21.8935H64.2179V33.574H70.9748V40.331H64.2179V53.2163H73.2271V59.9732H57.4609V15.3984H72.8604Z" fill="black"/>
<path d="M91.5073 51.5921H86.5836L85.6932 59.9728H79.6172L85.0646 15.3457H93.0787L98.8928 59.9728H92.3453L91.5073 51.5921ZM90.774 44.94L88.9931 28.4405L87.2646 44.94H90.774Z" fill="black"/>
<path d="M106.8 60.0256H100.043V15.3984H111.043C115.547 15.3984 117.8 17.3365 117.8 22.3125V30.2218C117.8 33.9407 116.071 35.3549 114.866 35.9311C116.385 36.612 117.8 37.8168 117.8 40.8024V56.4638C117.8 58.2447 118.166 59.0827 118.48 59.7637V60.0779H111.776C111.462 59.6065 111.095 58.8208 111.095 56.4114V42.8976C111.095 40.9071 110.728 40.0691 108.581 40.0691H106.852V60.0256H106.8ZM106.8 33.7312H108.581C110.466 33.7312 111.043 32.5265 111.043 30.536V24.3029C111.043 22.3649 110.624 21.4221 108.581 21.4221H106.8V33.7312Z" fill="black"/>
<path d="M131.471 21.8411V59.9732H124.766V21.8411H119.057V15.3984H137.18V21.8935H131.471V21.8411Z" fill="black"/>
<path d="M155.304 51.5921H150.381L149.49 59.9728H143.414L148.862 15.3457H156.876L162.69 59.9728H156.142L155.304 51.5921ZM154.571 44.94L152.79 28.4405L151.061 44.94H154.571Z" fill="black"/>
<path d="M169.917 15.3984L175.732 39.3358V15.3984H181.912V60.0256H176.412L169.917 34.3597V60.0256H163.789V15.3984H169.917Z" fill="black"/>
<path d="M184.428 15.3984H194.851C200.665 15.3984 202.446 18.6983 202.446 23.9886V51.1735C202.446 56.6209 200.403 60.0256 194.851 60.0256H184.48V15.3984H184.428ZM191.237 53.5305H192.861C194.904 53.5305 195.48 52.4306 195.48 50.0735V24.9315C195.48 22.3649 194.799 21.4744 193.123 21.4744H191.185V53.5305H191.237Z" fill="black"/>
<path d="M17.0234 62.3301H27.3945C33.2086 62.3301 34.9895 65.63 34.9895 70.9203V98.1051C34.9895 103.553 32.9467 106.957 27.3945 106.957H17.0234V62.3301ZM23.7804 100.515H25.4041C27.4469 100.515 28.0231 99.4146 28.0231 97.0575V71.9155C28.0231 69.3489 27.3422 68.4584 25.666 68.4584H23.728V100.515H23.7804Z" fill="black"/>
<path d="M52.8503 62.3301V68.8251H44.2077V80.5057H50.9647V87.2626H44.2077V100.148H53.217V106.905H37.3984V62.3301H52.8503Z" fill="black"/>
<path d="M64.0073 107.428H62.6978C57.3027 107.428 54.4219 104.495 54.4219 98.9954V90.0385H61.1264V97.843C61.1264 99.8858 61.8074 100.986 63.3263 100.986C64.9501 100.986 65.5263 99.8858 65.5263 97.1621V96.1669C65.5263 92.9718 65.212 91.8718 62.7502 88.6767L58.4551 83.1768C55.5742 79.4579 54.7361 76.5771 54.7361 72.1248V70.7106C54.7361 64.7917 57.7218 62.0156 63.0645 62.0156H64.3216C69.9261 62.0156 72.0737 64.4774 72.0737 69.7678V77.1008H65.5263V70.6582C65.5263 69.1392 65.212 68.0392 63.5882 68.0392C61.9645 68.0392 61.5978 69.0344 61.5978 71.182V72.0201C61.5978 74.5343 62.0692 75.8961 64.3739 78.8817L68.669 84.4339C71.707 88.4148 72.7022 90.6671 72.7022 95.6955V97.1097C72.7546 103.552 69.9261 107.428 64.0073 107.428Z" fill="black"/>
<path d="M81.4483 106.957H74.6914V62.3301H81.4483V106.957Z" fill="black"/>
<path d="M90.2509 107.585C86.2701 107.585 83.7559 104.023 83.7559 99.4137V71.4956C83.7559 66.5195 85.6939 61.9102 92.0842 61.9102H93.3936C100.674 61.9102 101.512 66.6243 101.512 71.9146V76.4716H94.9126V71.4432C94.9126 69.4528 94.4412 68.4052 92.7651 68.4052C91.3509 68.4052 90.6699 69.5051 90.6699 71.4432V97.5281C90.6699 99.6232 91.508 100.723 92.8699 100.723C94.5984 100.723 95.3841 99.5185 95.3841 97.8423V86.6855H92.3461V79.8239H101.827V106.956H98.003C97.9506 106.694 97.4268 104.494 96.8507 102.556C96.3793 104.075 94.0746 107.532 90.6699 107.532H90.2509V107.585Z" fill="black"/>
<path d="M110.312 62.3301L116.126 86.2674V62.3301H122.307V106.957H116.807L110.312 81.2914V106.957H104.184V62.3301H110.312Z" fill="black"/>
<path d="M140.011 107.428H138.702C133.307 107.428 130.426 104.495 130.426 98.9954V90.0385H137.13V97.843C137.13 99.8858 137.811 100.986 139.33 100.986C140.954 100.986 141.53 99.8858 141.53 97.1621V96.1669C141.53 92.9718 141.216 91.8718 138.754 88.6767L134.459 83.1768C131.578 79.4579 130.74 76.5771 130.74 72.1248V70.7106C130.74 64.7917 133.726 62.0156 139.068 62.0156H140.325C145.878 62.0156 148.078 64.4774 148.078 69.7678V77.1008H141.53V70.6582C141.53 69.1392 141.216 68.0392 139.592 68.0392C137.968 68.0392 137.602 69.0344 137.602 71.182V72.0201C137.602 74.5343 138.073 75.8961 140.378 78.8817L144.673 84.4339C147.711 88.4148 148.706 90.6671 148.706 95.6955V97.1097C148.759 103.552 145.93 107.428 140.011 107.428Z" fill="black"/>
<path d="M161.748 97.8963V87.5252H168.4V97.8439C168.4 102.663 166.828 107.482 160.281 107.482H158.762C151.9 107.482 150.434 102.558 150.434 98.0534V70.8162C150.434 66.2592 152.424 61.8594 158.552 61.8594H160.124C167.562 61.8594 168.4 66.783 168.4 71.1305V79.0922H161.748V71.2353C161.748 69.2972 161.171 68.302 159.443 68.302C157.767 68.302 157.348 69.2449 157.348 71.2353V97.7392C157.348 99.7296 158.029 100.777 159.495 100.777C161.171 100.934 161.748 99.7296 161.748 97.8963Z" fill="black"/>
<path d="M181.966 87.3674H177.357V106.957H170.6V62.3301H177.357V80.1914H181.966V62.3301H188.723V106.957H181.966V87.3674Z" fill="black"/>
<path d="M209.62 97.0043C209.62 103.237 207.525 107.48 200.978 107.48H199.825C193.33 107.48 191.078 103.237 191.078 97.0043V72.1765C191.078 65.9957 193.435 61.9102 199.773 61.9102H200.925C207.525 61.9102 209.62 65.9957 209.62 72.1241V97.0043ZM202.706 71.8098C202.706 69.4528 201.921 68.4052 200.349 68.4052C198.621 68.4052 197.94 69.5575 197.94 71.8098V97.4757C197.94 99.4137 198.464 100.88 200.402 100.88C202.183 100.88 202.706 99.3613 202.706 97.4757V71.8098Z" fill="black"/>
<path d="M230.312 97.0043C230.312 103.237 228.217 107.48 221.669 107.48H220.517C214.022 107.48 211.77 103.237 211.77 97.0043V72.1765C211.77 65.9957 214.127 61.9102 220.464 61.9102H221.617C228.217 61.9102 230.312 65.9957 230.312 72.1241V97.0043ZM223.398 71.8098C223.398 69.4528 222.612 68.4052 221.041 68.4052C219.312 68.4052 218.631 69.5575 218.631 71.8098V97.4757C218.631 99.4137 219.155 100.88 221.093 100.88C222.874 100.88 223.398 99.3613 223.398 97.4757V71.8098Z" fill="black"/>
<path d="M239.425 62.3301V100.043H247.701V106.957H232.668V62.3301H239.425Z" fill="black"/>
<path fill-rule="evenodd" clip-rule="evenodd" d="M257.182 61.8594C252.154 61.8594 248.016 65.945 248.016 71.0257C248.016 76.0542 252.101 80.1921 257.182 80.1921C262.263 80.1921 266.348 76.1065 266.348 71.0257C266.296 65.945 262.21 61.8594 257.182 61.8594Z" fill="#002D6E"/>
<path fill-rule="evenodd" clip-rule="evenodd" d="M258.702 70.1863C259.278 69.9244 259.645 69.5578 259.906 69.2959C260.378 68.7721 260.535 68.1436 260.535 67.515C260.535 67.0436 260.378 66.0484 259.54 65.3675C258.964 64.896 258.44 64.6865 257.183 64.6865H256.554H256.502H253.883V76.9433H261.268V74.5862C261.321 72.3339 260.587 70.8149 258.702 70.1863ZM259.645 76.2623H258.283V72.1768H256.764V76.2623H255.611V65.2627H256.816C257.287 65.2627 257.968 65.3675 258.44 65.9436C258.702 66.2579 258.859 66.6769 258.911 67.0436H256.764V67.6721H258.911C258.911 68.0388 258.806 68.5102 258.44 68.9816C258.126 69.4007 257.549 69.7673 256.764 69.7673V70.3959C258.859 70.3959 259.645 71.7577 259.645 74.3243V76.2623Z" fill="white"/>
</svg>
