<svg width="546" height="470" viewBox="0 0 546 470" fill="none" xmlns="http://www.w3.org/2000/svg">
<g clip-path="url(#clip0_333_75)">
<rect x="93.3652" y="469.717" width="360.733" height="468.571" transform="rotate(-105 93.3652 469.717)" fill="white"/>
<path d="M433.134 35.3299L431.483 32.927L427.556 33.9792L427.327 36.8859L425.972 37.249L426.904 26.6253L428.425 26.2178L434.545 34.952L433.134 35.3299ZM427.873 30.13L427.666 32.6752L430.735 31.8527L429.297 29.7484L428.04 27.8771L427.873 30.13ZM435.311 34.7467L434.992 33.5576L437.441 29.4781C438.319 27.998 438.656 27.211 438.467 26.5059C438.208 25.538 437.307 25.0531 436.201 25.3495C435.095 25.6459 434.557 26.5161 434.832 27.5393L433.477 27.9023C433.013 26.174 433.946 24.62 435.868 24.1051C437.803 23.5864 439.374 24.4697 439.822 26.1428C440.096 27.166 439.62 28.3754 438.606 30.0106L436.706 33.0982L441.352 31.8533L441.671 33.0425L435.311 34.7467Z" fill="black"/>
<path d="M32.6574 142.638L29.7304 139.346C29.5682 139.405 29.4023 139.449 29.2364 139.494L27.3559 139.997L28.371 143.786L27.0713 144.134L24.4778 134.455L27.6581 133.603C30.1331 132.94 31.5532 133.76 32.0423 135.585C32.3905 136.885 32.0516 137.998 30.922 138.76L34.1231 142.245L32.6574 142.638ZM27.9767 134.792L26.0962 135.296L27.0373 138.808L28.9177 138.304C30.494 137.882 30.9799 137.041 30.6872 135.948C30.3945 134.856 29.553 134.37 27.9767 134.792ZM39.0694 141.038C36.788 141.649 34.9471 140.587 34.2691 138.056L32.713 132.249L34.0128 131.901L35.5689 137.708C36.0431 139.478 37.2565 140.19 38.736 139.794C40.2155 139.397 40.9139 138.187 40.436 136.404L38.8799 130.596L40.1796 130.248L41.7357 136.055C42.41 138.572 41.3371 140.43 39.0694 141.038Z" fill="black"/>
<path d="M472.708 348.292L470.114 338.613L476.198 336.983L476.517 338.172L471.733 339.454L472.422 342.026L474.427 341.489C476.722 340.873 478.212 341.734 478.694 343.531C479.183 345.357 478.363 346.777 476.013 347.406L472.708 348.292ZM474.745 342.678L472.741 343.215L473.689 346.755L475.694 346.217C477.187 345.817 477.653 345.011 477.353 343.891C477.053 342.771 476.211 342.285 474.745 342.678ZM482.329 345.714L482.788 342.671L477.454 336.646L478.92 336.254L483.098 341.062L483.925 334.912L485.335 334.535L483.739 345.336L482.329 345.714ZM492.438 340.115L489.409 336.555L488.412 335.266L490.616 343.493L489.317 343.842L486.723 334.163L488.576 333.666L492.745 338.551L493.885 332.244L495.711 331.755L498.304 341.433L497.004 341.782L494.796 333.541L494.567 335.173L493.738 339.767L492.438 340.115ZM506.774 339.164L505.123 336.761L501.196 337.813L500.967 340.72L499.612 341.083L500.544 330.459L502.065 330.052L508.184 338.786L506.774 339.164ZM501.513 333.964L501.306 336.509L504.375 335.687L502.937 333.582L501.68 331.711L501.513 333.964ZM509.503 338.433L506.91 328.754L512.648 327.216L512.967 328.405L508.528 329.595L510.803 338.084L509.503 338.433ZM521.506 335.217L519.854 332.814L515.927 333.866L515.699 336.773L514.343 337.136L515.276 326.512L516.797 326.105L522.916 334.839L521.506 335.217ZM516.245 330.017L516.037 332.562L519.107 331.739L517.669 329.635L516.412 327.764L516.245 330.017Z" fill="black"/>
</g>
<rect x="93.702" y="469.134" width="359.781" height="467.619" transform="rotate(-105 93.702 469.134)" stroke="black" stroke-opacity="0.5" stroke-width="0.952381" stroke-dasharray="2.86 2.86"/>
<path d="M315.032 430L487.746 280.382L545.064 148.702L487.746 130.382L430.429 173.702L346.994 277.753L330.733 247.978L315.032 260.899V282.809V297.416V312.022V430Z" fill="#0000FF"/>
<path d="M315.032 260.899L299.331 247.978L283.069 277.753M315.032 260.899V282.809M315.032 260.899L330.733 247.978L346.994 277.753M315.032 260.899L330.068 285.461M315.032 430L142.698 280L85 148.856L142.508 130L199.826 173.702M315.032 430L199.826 173.702M315.032 430L283.069 277.753M315.032 430V312.022M315.032 430L487.746 280.382M315.032 430L430.429 173.702M315.032 430L346.994 277.753M199.826 173.702L283.069 277.753M283.069 277.753L315.032 312.022M283.069 277.753L307.742 288.989M315.032 312.022V297.416M315.032 312.022L346.994 277.753M307.742 288.989L315.032 282.809M307.742 288.989L315.032 297.416M315.032 282.809V297.416M315.032 282.809L322.322 288.989M315.032 297.416L322.322 288.989M487.746 280.382L545.064 148.702L487.746 130.382M487.746 280.382V130.382M487.746 130.382L430.429 173.702M430.429 173.702L346.994 277.753M346.994 277.753L330.068 285.461M322.322 288.989L330.068 285.461" stroke="black" stroke-width="0.952381"/>
<defs>
<clipPath id="clip0_333_75">
<rect x="93.3652" y="469.717" width="360.733" height="468.571" transform="rotate(-105 93.3652 469.717)" fill="white"/>
</clipPath>
</defs>
</svg>
