<svg width="520" height="175" viewBox="0 0 520 175" fill="none" xmlns="http://www.w3.org/2000/svg">
<path d="M0 0.87207V1.34826H520V0.87207V0.39588H0V0.87207ZM520 67.8721V67.3959H0V67.8721V68.3483H520V67.8721Z" fill="#0000FF"/>
<path d="M29.4137 68.5441C15.9737 68.5441 7.33373 60.0001 7.33373 37.3441V31.2001C7.33373 8.73606 16.0697 6.86646e-05 29.4137 6.86646e-05C42.8537 6.86646e-05 51.4937 8.54407 51.4937 31.2001V37.3441C51.4937 59.8081 42.7577 68.5441 29.4137 68.5441ZM29.4137 62.2081C38.7257 62.2081 44.5817 56.3521 44.5817 37.3441V31.2001C44.5817 12.2881 38.6297 6.33607 29.4137 6.33607C20.1017 6.33607 14.2457 12.1921 14.2457 31.2001V37.3441C14.2457 56.2561 20.1977 62.2081 29.4137 62.2081ZM127.847 18.0481V10.5601L142.247 0.672066H148.967V67.8721H142.247V8.25607L127.847 18.0481ZM229.09 67.8721V61.7281L252.898 38.1121C261.154 29.8561 265.378 25.2481 265.378 19.3921C265.378 11.9041 259.714 6.33607 250.69 6.33607C241.666 6.33607 236.002 11.9041 236.002 19.3921H229.09C229.09 8.35207 237.538 6.86646e-05 250.69 6.86646e-05C263.842 6.86646e-05 272.29 8.35207 272.29 19.3921C272.29 26.7841 267.01 33.3121 257.986 42.0481L237.73 61.7281H272.29V67.8721H229.09ZM371.151 68.5441C357.711 68.5441 349.647 60.4801 349.071 47.2321H355.983C356.559 56.8321 361.839 62.2081 371.151 62.2081C381.039 62.2081 386.319 56.9281 386.319 49.1521C386.319 41.6641 381.039 36.3841 372.015 36.3841H362.991V30.2401H372.015C379.983 30.2401 384.879 25.3441 384.879 18.3361C384.879 11.1361 380.079 6.33607 371.151 6.33607C363.183 6.33607 358.287 11.3281 357.423 19.3921H350.511C351.087 7.68007 358.767 6.86646e-05 371.151 6.86646e-05C384.303 6.86646e-05 391.791 7.48807 391.791 18.3361C391.791 24.8641 388.527 30.3361 382.671 33.2161C389.487 36.0961 393.231 42.0481 393.231 49.1521C393.231 60.5761 385.263 68.5441 371.151 68.5441ZM468.119 51.7441V45.6001L499.607 0.672066H507.959V45.6001H517.079V51.7441H507.959V67.8721H501.239V51.7441H468.119ZM475.511 45.6001H501.239V8.44807L475.511 45.6001Z" fill="black"/>
<path d="M0 106.872V107.348H520V106.872V106.396H0V106.872ZM520 173.872V173.396H0V173.872V174.348H520V173.872Z" fill="#0000FF"/>
<path d="M14.0613 143.152L16.9413 106.672H51.9813V112.816H23.0853L21.2613 135.088C24.6213 131.632 29.5173 129.616 35.1813 129.616C47.4693 129.616 56.3013 138.448 56.3013 152.08C56.3013 165.616 47.3733 174.544 34.2213 174.544C23.1813 174.544 14.6373 168.88 12.1413 158.32H19.2453C21.5493 164.944 26.8293 168.208 34.2213 168.208C43.3413 168.208 49.3893 162.16 49.3893 152.08C49.3893 141.904 43.4373 135.952 34.2213 135.952C27.7893 135.952 22.9893 139.408 20.6853 143.152H14.0613ZM150.903 174.544C137.463 174.544 128.823 165.904 128.823 146.224V140.08C128.823 115.312 138.135 106 151.383 106C161.559 106 168.087 112.528 170.007 120.592H162.903C160.983 115.888 157.527 112.432 151.383 112.432C141.975 112.432 135.831 118.192 135.351 136.912C138.807 131.92 144.471 129.04 151.383 129.04C163.095 129.04 172.023 137.968 172.023 150.64V152.944C172.023 165.616 163.095 174.544 150.903 174.544ZM150.903 135.376C141.783 135.376 136.023 140.944 135.735 149.104V151.984C135.735 162.352 141.591 168.208 150.903 168.208C159.255 168.208 165.111 162.352 165.111 152.944V150.64C165.111 141.232 159.255 135.376 150.903 135.376ZM241.116 112.816V106.672H283.356V112.816L258.3 173.872H251.196L276.348 112.816H241.116ZM374.121 174.544C360.009 174.544 352.041 166.576 352.041 155.632C352.041 147.664 356.649 141.808 363.849 138.832C357.801 136.048 353.961 130.96 353.961 123.76C353.961 113.872 362.217 106 374.121 106C386.313 106 394.281 113.584 394.281 123.76C394.281 130.864 390.249 135.952 384.201 138.736C391.497 141.808 396.201 147.664 396.201 155.632C396.201 166.288 387.945 174.544 374.121 174.544ZM374.121 168.208C383.625 168.208 389.289 162.448 389.289 155.632C389.289 147.376 382.377 142.288 374.121 141.616C365.577 142.288 358.953 147.088 358.953 155.632C358.953 162.448 364.617 168.208 374.121 168.208ZM374.121 136.048C380.841 135.376 387.369 131.728 387.369 123.76C387.369 117.808 382.377 112.336 374.121 112.336C365.865 112.336 360.873 117.808 360.873 123.76C360.873 131.344 367.689 135.376 374.121 136.048ZM490.746 174.544C480.09 174.544 473.562 168.016 471.642 159.952H478.746C480.666 164.656 484.122 168.112 490.746 168.112C499.674 168.112 505.722 162.352 506.202 143.728C502.746 148.624 497.082 151.504 490.266 151.504C478.554 151.504 469.626 142.576 469.626 129.904V127.6C469.626 114.928 478.554 106 490.746 106C504.186 106 512.826 114.64 512.826 134.32V140.464C512.826 165.232 503.514 174.544 490.746 174.544ZM490.746 145.168C499.77 145.168 505.626 139.6 505.914 131.536V128.56C505.914 118.192 500.058 112.336 490.746 112.336C482.394 112.336 476.538 118.192 476.538 127.6V129.904C476.538 139.312 482.394 145.168 490.746 145.168Z" fill="black"/>
</svg>
